<svg width="24" height="24" viewBox="0 0 24 24" fill="none" xmlns="http://www.w3.org/2000/svg">
<path d="M11.25 2.08301C11.0066 2.13726 10.7675 2.21825 10.5371 2.32597C6.55332 4.188 4 9.39495 4 13.8571C4 18.0971 7.18341 21.5802 11.25 21.9651V2.08301Z" fill="#81A532"/>
<path d="M12.75 21.9651C16.8166 21.5802 20 18.0971 20 13.8571C20 13.4511 19.9789 13.0389 19.9374 12.6236L12.75 19.8111V21.9651Z" fill="#81A532"/>
<path d="M18.2597 7.18006C17.8707 6.45525 17.4222 5.76857 16.92 5.14111L12.75 9.31107V12.6898L18.2597 7.18006Z" fill="#81A532"/>
<path d="M15.9084 4.03131C15.1732 3.32607 14.3538 2.74238 13.4629 2.32597C13.2325 2.21825 12.9934 2.13726 12.75 2.08301V7.18975L15.9084 4.03131Z" fill="#81A532"/>
<path d="M18.9364 8.62464L12.75 14.8111V17.6898L19.5 10.9398L19.6319 10.8078C19.458 10.0701 19.2246 9.33675 18.9364 8.62464Z" fill="#81A532"/>
</svg>
