<svg width="24" height="24" viewBox="0 0 24 24" fill="none" xmlns="http://www.w3.org/2000/svg">
<path d="M19.3526 17.2578C20.0895 17.2579 20.6584 17.412 21.1348 17.6602C21.4817 17.8409 21.7661 18.0657 22.0098 18.2773L22.2403 18.4824L22.3223 18.5723C22.4884 18.7965 22.4797 19.1133 22.2862 19.3291C22.0926 19.5448 21.778 19.5882 21.5372 19.4473L21.4395 19.375L21.2198 19.1807C21.0078 18.9969 20.8115 18.8452 20.5801 18.7246C20.2856 18.5712 19.9088 18.4571 19.3526 18.457C18.3392 18.4571 17.8601 18.8634 17.2559 19.3838C16.6164 19.9346 15.8506 20.6006 14.377 20.6006C13.6401 20.6005 13.0712 20.4455 12.5948 20.1973C12.1325 19.9563 11.7814 19.6371 11.4893 19.375C11.1846 19.1015 10.9385 18.8854 10.6299 18.7246C10.3354 18.5712 9.95862 18.4571 9.40241 18.457C8.38897 18.4571 7.90987 18.8634 7.30573 19.3838C6.66625 19.9346 5.90038 20.6006 4.42682 20.6006C3.68995 20.6005 3.12103 20.4455 2.6446 20.1973C2.29775 20.0165 2.01334 19.7917 1.7696 19.5801L1.53913 19.375L1.4571 19.2852C1.29119 19.061 1.29974 18.744 1.49323 18.5283C1.68683 18.3126 2.00142 18.2693 2.24225 18.4102L2.33991 18.4824L2.55964 18.6768C2.77169 18.8606 2.96796 19.0122 3.19929 19.1328C3.49383 19.2863 3.8706 19.4003 4.42682 19.4004C5.44006 19.4004 5.91862 18.9948 6.52253 18.4746C7.16209 17.9237 7.92854 17.2579 9.40241 17.2578C10.1393 17.2579 10.7082 17.412 11.1846 17.6602C11.6469 17.9011 11.998 18.2204 12.2901 18.4824C12.5949 18.7559 12.841 18.972 13.1495 19.1328C13.444 19.2863 13.8208 19.4003 14.377 19.4004C15.3903 19.4004 15.8688 18.9948 16.4727 18.4746C17.1123 17.9237 17.8787 17.2579 19.3526 17.2578ZM19.3526 10.8281C20.0895 10.8282 20.6584 10.9823 21.1348 11.2305C21.4817 11.4112 21.7661 11.636 22.0098 11.8477L22.2403 12.0527L22.3223 12.1426C22.4884 12.3668 22.4797 12.6836 22.2862 12.8994C22.0926 13.1152 21.778 13.1585 21.5372 13.0176L21.4395 12.9453L21.2198 12.751C21.0077 12.5672 20.8115 12.4155 20.5801 12.2949C20.2856 12.1415 19.9088 12.0274 19.3526 12.0273C18.3391 12.0274 17.8601 12.4337 17.2559 12.9541C16.6164 13.505 15.8506 14.1709 14.377 14.1709C13.6401 14.1709 13.0712 14.0158 12.5948 13.7676C12.1325 13.5266 11.7814 13.2074 11.4893 12.9453C11.1845 12.6718 10.9385 12.4557 10.6299 12.2949C10.3354 12.1415 9.95865 12.0274 9.40241 12.0273C8.38893 12.0274 7.90989 12.4337 7.30573 12.9541C6.66624 13.505 5.90041 14.1709 4.42682 14.1709C3.68992 14.1708 3.12104 14.0158 2.6446 13.7676C2.29773 13.5868 2.01335 13.362 1.7696 13.1504L1.53913 12.9453L1.4571 12.8555C1.29116 12.6313 1.2997 12.3144 1.49323 12.0986C1.68684 11.8829 2.00141 11.8396 2.24225 11.9805L2.33991 12.0527L2.55964 12.2471C2.7717 12.4309 2.96793 12.5825 3.19929 12.7031C3.49384 12.8566 3.87057 12.9707 4.42682 12.9707C5.44008 12.9707 5.9186 12.5651 6.52253 12.0449C7.1621 11.494 7.9285 10.8282 9.40241 10.8281C10.1393 10.8282 10.7082 10.9823 11.1846 11.2305C11.6469 11.4714 11.998 11.7907 12.2901 12.0527C12.5949 12.3262 12.841 12.5423 13.1495 12.7031C13.444 12.8566 13.8207 12.9707 14.377 12.9707C15.3903 12.9707 15.8688 12.5651 16.4727 12.0449C17.1123 11.494 17.8787 10.8282 19.3526 10.8281ZM19.3526 4.40039C20.0895 4.40043 20.6584 4.55454 21.1348 4.80273C21.4817 4.98349 21.7661 5.20832 22.0098 5.41992L22.2403 5.625L22.3223 5.71484C22.4884 5.93904 22.4797 6.25591 22.2862 6.47168C22.0926 6.68741 21.778 6.73077 21.5372 6.58984L21.4395 6.51758L21.2198 6.32324C21.0078 6.13946 20.8115 5.98775 20.5801 5.86719C20.2856 5.71375 19.9088 5.59965 19.3526 5.59961C18.3392 5.59966 17.8601 6.00596 17.2559 6.52637C16.6164 7.07722 15.8506 7.74316 14.377 7.74316C13.6401 7.74311 13.0712 7.58807 12.5948 7.33984C12.1325 7.09891 11.7814 6.77964 11.4893 6.51758C11.1846 6.24412 10.9385 6.02796 10.6299 5.86719C10.3354 5.71375 9.95862 5.59965 9.40241 5.59961C8.38897 5.59966 7.90987 6.00596 7.30573 6.52637C6.66625 7.07722 5.90038 7.74316 4.42682 7.74316C3.68995 7.74311 3.12103 7.58807 2.6446 7.33984C2.29775 7.15907 2.01334 6.93427 1.7696 6.72266L1.53913 6.51758L1.4571 6.42773C1.29119 6.20354 1.29974 5.88662 1.49323 5.6709C1.68683 5.45516 2.00142 5.41191 2.24225 5.55273L2.33991 5.625L2.55964 5.81934C2.77169 6.00313 2.96796 6.15482 3.19929 6.27539C3.49383 6.42885 3.8706 6.54291 4.42682 6.54297C5.44006 6.54297 5.91862 6.13738 6.52253 5.61719C7.16209 5.06627 7.92854 4.40044 9.40241 4.40039C10.1393 4.40043 10.7082 4.55454 11.1846 4.80273C11.6469 5.04364 11.998 5.36293 12.2901 5.625C12.5949 5.89845 12.841 6.11461 13.1495 6.27539C13.444 6.42885 13.8208 6.54292 14.377 6.54297C15.3903 6.54297 15.8688 6.13739 16.4727 5.61719C17.1123 5.06627 17.8787 4.40044 19.3526 4.40039Z" fill="#171717"/>
</svg>
