<svg width="24" height="24" viewBox="0 0 24 24" fill="none" xmlns="http://www.w3.org/2000/svg">
<path d="M20.3585 11.6631L22.6583 15.4717C22.9332 15.927 23.0795 16.4452 23.0831 16.9736C23.0866 17.5022 22.9468 18.0226 22.6778 18.4814C22.4088 18.9402 22.0205 19.3217 21.5518 19.5869C21.0829 19.8522 20.55 19.9922 20.0079 19.9922H14.7149L16.4952 21.7275L15.4083 22.7881L11.7403 19.2119L15.4083 15.6348L16.4952 16.6953L14.6524 18.4922H20.0079C20.2788 18.4922 20.545 18.4226 20.7794 18.29C21.0138 18.1574 21.2083 17.9667 21.3428 17.7373C21.4774 17.5079 21.5477 17.2477 21.546 16.9834C21.5442 16.7192 21.4706 16.4601 21.3331 16.2324L18.3809 11.3438L20.3585 11.6631ZM7.8321 14.2314L6.33307 14.5635L5.77936 12.1846L3.33405 16.2334C3.19496 16.4605 3.12099 16.7199 3.1192 16.9844C3.11746 17.2489 3.18816 17.5094 3.32428 17.7383C3.45747 17.9688 3.65205 18.1602 3.88678 18.293C4.12143 18.4257 4.38797 18.4948 4.65924 18.4932H10.1583L8.62116 19.9932H4.65924C4.11728 19.9931 3.58506 19.8531 3.11628 19.5879C2.64739 19.3226 2.25835 18.9413 1.98932 18.4824C1.72033 18.0236 1.58055 17.5031 1.58405 16.9746C1.5876 16.4461 1.7348 15.928 2.00983 15.4727L4.52057 11.3154L1.96588 11.8799L1.62604 10.418L6.68463 9.29883L7.8321 14.2314ZM12.3331 1.28906C12.8685 1.28907 13.3946 1.42549 13.8594 1.68457C14.3242 1.94365 14.7118 2.31679 14.9835 2.7666L17.626 7.1416L18.0518 4.47754L19.5714 4.70801L18.7715 9.70605L13.6465 8.92676L13.8839 7.44531L16.2413 7.80371L13.6583 3.52734C13.5224 3.30244 13.3282 3.11586 13.0958 2.98633C12.8635 2.85689 12.6006 2.78908 12.3331 2.78906C12.0654 2.78906 11.8018 2.8568 11.5694 2.98633C11.3372 3.11585 11.1436 3.30256 11.0079 3.52734L8.26374 8.07031L7.76374 5.94434L9.68268 2.7666C9.95431 2.31678 10.342 1.94365 10.8067 1.68457C11.2715 1.42549 11.7977 1.28906 12.3331 1.28906Z" fill="#171717"/>
</svg>
