<svg width="24" height="24" viewBox="0 0 24 24" fill="none" xmlns="http://www.w3.org/2000/svg">
<path d="M8.47569 10.844C10.5793 10.844 12.6828 10.844 14.8501 10.844C14.8279 10.9553 14.8037 11.0401 14.7617 11.1434C14.7427 11.1906 14.7427 11.1906 14.7233 11.2387C14.7092 11.2732 14.6951 11.3078 14.6806 11.3434C14.6655 11.3809 14.6503 11.4184 14.6351 11.456C14.6019 11.5381 14.5687 11.6202 14.5353 11.7023C14.4811 11.8357 14.4271 11.9692 14.3732 12.1028C14.354 12.1501 14.3349 12.1975 14.3157 12.2449C14.306 12.269 14.2962 12.2931 14.2862 12.3179C14.2555 12.3937 14.2249 12.4695 14.1942 12.5453C13.9399 13.174 13.6869 13.8032 13.4339 14.4324C13.3806 14.565 13.3273 14.6976 13.2739 14.8302C12.9046 15.7477 12.5379 16.6661 12.1783 17.5874C12.1312 17.7082 12.084 17.829 12.0368 17.9498C12.0095 18.0196 11.9824 18.0894 11.9552 18.1592C11.9149 18.2629 11.8744 18.3665 11.8339 18.4701C11.8157 18.517 11.8157 18.517 11.7971 18.5649C11.7859 18.5935 11.7747 18.622 11.7632 18.6514C11.7535 18.6764 11.7437 18.7014 11.7337 18.7272C11.7058 18.7875 11.702 18.8232 11.6449 18.8804C11.6346 18.8542 11.628 18.7923 11.6174 18.7654C11.3362 18.0511 11.052 17.3379 10.7664 16.6253C10.6839 16.4197 10.6016 16.214 10.5193 16.0083C10.4785 15.9061 10.4376 15.804 10.3967 15.7018C10.3811 15.6628 10.3655 15.6237 10.3498 15.5847C10.3423 15.566 10.3349 15.5473 10.3271 15.528C10.2243 15.2709 10.2243 15.2709 10.1846 15.1717C10.1574 15.1038 10.1302 15.0359 10.1031 14.968C10.0258 14.775 9.94857 14.5819 9.87144 14.3888C9.5932 13.6923 9.31393 12.9963 9.03342 12.3007C9.01015 12.2431 8.98689 12.1854 8.96364 12.1277C8.92671 12.0361 8.88977 11.9445 8.8528 11.8529C8.83187 11.801 8.81094 11.7491 8.79002 11.6972C8.73093 11.5509 8.67155 11.4047 8.61053 11.2591C8.60097 11.2363 8.59141 11.2134 8.58156 11.1899C8.56445 11.1491 8.54721 11.1085 8.5298 11.0679C8.49613 10.9878 8.47569 10.932 8.47569 10.844Z" fill="#FAE5BE"/>
<path d="M15.5891 10.8275C16.872 10.8275 18.2109 10.8275 19.5327 10.8275C19.4226 10.9742 19.2253 11.2504 19.1051 11.388C18.9885 11.5227 18.8745 11.6588 18.7639 11.7986C18.6825 11.9011 18.5999 12.0026 18.5173 12.1041C18.5012 12.1239 18.4851 12.1437 18.4686 12.1641C18.317 12.3503 18.1649 12.5361 18.0126 12.7218C17.8869 12.8752 17.7616 13.0289 17.6366 13.1828C17.6208 13.2022 17.605 13.2216 17.5887 13.2416C17.5095 13.3391 17.4304 13.4366 17.3513 13.5341C17.1565 13.7741 16.9606 14.0131 16.7639 14.2515C16.6471 14.3932 16.5308 14.5353 16.4145 14.6775C16.3501 14.7563 16.2855 14.8351 16.221 14.9139C16.18 14.9641 16.139 15.0142 16.098 15.0644C15.9483 15.2475 15.7979 15.4301 15.6475 15.6127C15.5121 15.7769 15.3772 15.9414 15.2426 16.1062C15.1997 16.1586 15.1568 16.211 15.1139 16.2634C15.0927 16.2893 15.0715 16.3152 15.0496 16.342C14.5994 16.892 14.5994 16.892 14.5345 16.9712C14.4935 17.0214 14.4525 17.0715 14.4115 17.1217C14.2617 17.3049 14.1114 17.4876 13.9608 17.6701C13.8667 17.7843 13.7728 17.8988 13.6793 18.0135C13.5865 18.1271 13.4921 18.2393 13.397 18.351C13.2851 18.4826 13.1757 18.6159 13.0683 18.7512C12.9783 18.8642 12.8866 18.9758 12.7948 19.0874C12.7666 19.1217 12.7384 19.156 12.7103 19.1903C12.4894 19.4595 12.2747 19.6369 12.0488 19.9019C12.0202 19.8447 12.0202 19.8447 12.0527 19.736C12.0694 19.6887 12.0863 19.6414 12.1034 19.5943C12.1125 19.5688 12.1216 19.5433 12.131 19.517C12.2357 19.2265 12.3482 18.939 12.4615 18.6518C12.4842 18.5942 12.5068 18.5366 12.5294 18.4791C12.6931 18.0629 12.8587 17.6476 13.0253 17.2326C13.1559 16.9072 13.2852 16.5814 13.4138 16.2552C13.5701 15.8587 13.7275 15.4627 13.8862 15.0671C13.9977 14.7891 14.1089 14.5109 14.2202 14.2328C14.2883 14.0626 14.3564 13.8924 14.4245 13.7222C14.4525 13.6523 14.4804 13.5824 14.5084 13.5125C14.8605 12.6325 15.237 11.7074 15.5891 10.8275Z" fill="#F2C879"/>
<path d="M3.90209 10.8726C5.17555 10.8726 6.44901 10.8726 7.76106 10.8726C8.41808 12.4817 8.41808 12.4817 8.6434 13.0493C8.66918 13.1141 8.69496 13.1789 8.72075 13.2437C8.78671 13.4095 8.85261 13.5753 8.91848 13.7411C8.98486 13.9081 9.05129 14.0752 9.11773 14.2422C9.13077 14.275 9.14382 14.3078 9.15726 14.3415C9.18332 14.4071 9.20938 14.4726 9.23545 14.5381C9.27369 14.6343 9.31193 14.7304 9.35017 14.8266C9.5534 15.3376 9.75747 15.8483 9.96211 16.3588C9.98789 16.4231 10.0137 16.4874 10.0395 16.5518C10.0924 16.6838 10.0924 16.6838 10.1453 16.8158C10.8491 18.5725 10.8491 18.5725 11.124 19.292C11.1441 19.3447 11.1643 19.3974 11.1846 19.45C11.1964 19.4813 11.2083 19.5126 11.2205 19.5448C11.2308 19.5719 11.2411 19.5989 11.2517 19.6268C11.2761 19.6992 11.2925 19.7696 11.3056 19.8447C11.2222 19.764 11.1479 19.6798 11.0751 19.5894C10.9771 19.4685 10.8777 19.349 10.7768 19.2304C10.6589 19.0917 10.543 18.9516 10.4282 18.8104C10.356 18.7227 10.2824 18.6363 10.2087 18.55C10.1005 18.4232 9.99625 18.2942 9.89422 18.1625C9.7663 17.9975 9.63171 17.8395 9.49417 17.6825C9.38954 17.563 9.28896 17.441 9.19065 17.3162C9.12254 17.2313 9.052 17.1486 8.98128 17.066C8.872 16.938 8.76644 16.8078 8.66328 16.6748C8.54167 16.5183 8.41512 16.3669 8.28538 16.2171C8.17766 16.0926 8.07297 15.966 7.9692 15.8382C7.89546 15.7483 7.82034 15.6597 7.74498 15.5712C7.63436 15.4412 7.52668 15.3093 7.42061 15.1755C7.33708 15.072 7.25087 14.9709 7.16469 14.8697C7.05996 14.7465 6.95746 14.6216 6.85539 14.4962C6.78123 14.4061 6.70581 14.3171 6.63017 14.2282C6.51825 14.0966 6.40887 13.9634 6.30144 13.8281C6.10238 13.5781 5.89727 13.3329 5.69401 13.0864C5.62425 13.0018 5.55458 12.9171 5.48498 12.8324C5.31914 12.6305 5.15252 12.4295 4.98331 12.2305C4.88355 12.113 4.78566 11.9941 4.68829 11.8747C4.59918 11.7655 4.50974 11.6565 4.42019 11.5477C4.40321 11.527 4.38622 11.5063 4.36872 11.485C4.28698 11.3857 4.20476 11.287 4.12094 11.1895C4.10627 11.1724 4.0916 11.1553 4.07649 11.1377C4.04897 11.1057 4.02133 11.0739 3.99355 11.0422C3.90209 10.936 3.90209 10.936 3.90209 10.8726Z" fill="#F2C87A"/>
<path d="M9.94392 7.33351C11.1042 7.33351 12.2812 7.33351 13.4766 7.33351C13.7702 7.85513 13.7702 7.85513 13.8893 8.09964C13.9955 8.31649 14.1064 8.53049 14.2192 8.74393C14.3479 8.98763 14.4742 9.23251 14.6 9.47771C14.6388 9.55333 14.6777 9.62889 14.7166 9.70446C14.7414 9.75267 14.7661 9.80089 14.7909 9.84911C14.8025 9.87164 14.8141 9.89416 14.8261 9.91737C14.9059 10.0733 14.8501 10.1264 14.8501 10.1583C12.756 10.1583 10.6619 10.1583 8.50427 10.1583C8.54746 10.0503 8.59271 9.94919 8.64452 9.84551C8.6611 9.81232 8.67768 9.77914 8.69476 9.74494C8.70343 9.72767 8.7121 9.7104 8.72103 9.69261C8.74645 9.64194 8.77175 9.5912 8.79704 9.54046C8.94311 9.24876 9.09539 8.96128 9.24748 8.67242C9.57292 8.03595 9.61191 7.98285 9.94392 7.33351Z" fill="#FAE5BE"/>
<path d="M14.0951 7.32515C14.5192 7.31846 14.9434 7.31343 15.3676 7.31035C15.5645 7.30888 15.7615 7.30687 15.9585 7.3036C16.1486 7.30043 16.3387 7.29878 16.5289 7.29804C16.6014 7.29751 16.6739 7.29649 16.7463 7.29494C17.3449 7.28269 17.4508 7.34652 17.5888 7.4513C17.6544 7.52313 17.7002 7.58909 17.7455 7.67472C17.7694 7.70559 17.7938 7.73605 17.8191 7.7658C17.839 7.79232 17.859 7.81884 17.8795 7.84616C17.9035 7.87776 17.9274 7.90935 17.9514 7.94093C17.9641 7.95769 17.9768 7.97445 17.9899 7.99172C18.069 8.09561 18.1494 8.19853 18.2297 8.30156C18.2467 8.3235 18.2638 8.34544 18.2814 8.36805C18.3986 8.51852 18.5164 8.66852 18.6344 8.81833C18.7319 8.94224 18.8282 9.06706 18.9241 9.19218C19.0116 9.30611 19.1001 9.41919 19.1891 9.53201C19.2415 9.59866 19.2939 9.66534 19.3463 9.73203C19.3599 9.74932 19.3735 9.7666 19.3875 9.78442C19.4275 9.83531 19.4673 9.88634 19.5071 9.9374C19.5192 9.95285 19.5314 9.9683 19.544 9.98422C19.5972 10.0528 19.633 10.106 19.6607 10.1892C19.2951 10.1899 18.8642 10.188 18.4986 10.1883C18.3287 10.1884 18.1588 10.1886 17.9889 10.189C17.1899 10.1905 16.392 10.1867 15.5935 10.1582C15.5769 10.1266 15.5602 10.0949 15.5431 10.0622C15.4245 9.83663 15.3056 9.61123 15.1862 9.38608C15.1702 9.35583 15.1702 9.35583 15.1538 9.32496C15.1093 9.24099 15.0648 9.15703 15.0202 9.07307C14.8655 8.78143 14.7124 8.48904 14.5605 8.19593C14.4763 8.03425 14.3887 7.87595 14.2929 7.72077C14.2544 7.65159 14.1814 7.52132 14.1496 7.44892C14.1393 7.42575 14.1291 7.40257 14.1186 7.3787C14.1108 7.36103 14.1186 7.3787 14.0951 7.32515Z" fill="#F2C779"/>
<path d="M6.20973 7.32448C6.24153 7.32446 6.27334 7.32444 6.30611 7.32442C6.41114 7.32452 6.51614 7.32563 6.62116 7.32675C6.69402 7.32701 6.76687 7.32722 6.83973 7.32736C7.01183 7.32785 7.18392 7.32898 7.35602 7.33041C7.552 7.33201 7.74798 7.33279 7.94397 7.33351C8.347 7.335 8.7695 7.34151 9.17253 7.3447C9.13592 7.42277 9.10212 7.51704 9.06546 7.59509C9.04999 7.6281 9.03638 7.6538 9.0206 7.68747C8.95095 7.83567 8.87868 7.98184 8.80088 8.12595C8.77666 8.1714 8.75247 8.21687 8.7283 8.26235C8.71543 8.28654 8.70256 8.31073 8.68931 8.33565C8.60761 8.49026 8.5275 8.6457 8.44714 8.80101C8.32981 9.02752 8.21227 9.25391 8.0934 9.47963C8.07815 9.50861 8.07815 9.50861 8.06259 9.53817C7.95331 9.74527 7.84282 9.95171 7.73252 10.1583C7.46752 10.1634 7.20251 10.1681 6.9375 10.1725C6.91726 10.1729 6.89703 10.1732 6.87619 10.1736C6.14625 10.1857 5.41646 10.1894 4.68643 10.1886C4.66239 10.1886 4.63834 10.1886 4.61357 10.1885C4.31925 10.1882 3.96743 10.1869 3.67312 10.1861C3.73673 10.0895 3.80073 9.9945 3.87209 9.90346C3.89553 9.87345 3.89553 9.87345 3.91945 9.84284C3.94431 9.81119 3.94431 9.81119 3.96969 9.77889C4.0056 9.73295 4.04152 9.687 4.07744 9.64105C4.09574 9.61768 4.11404 9.59432 4.13289 9.57024C4.21861 9.46075 4.3041 9.35107 4.38953 9.24135C4.40609 9.22009 4.42264 9.19883 4.4397 9.17692C4.56722 9.01298 4.69353 8.84814 4.81947 8.68299C4.94897 8.51339 5.08013 8.34512 5.21156 8.17702C5.33984 8.0125 5.46534 7.84605 5.58848 7.67766C5.60143 7.66015 5.61438 7.64264 5.62773 7.62459C5.6388 7.60946 5.64988 7.59433 5.66129 7.57874C5.67494 7.56223 5.68859 7.54572 5.70265 7.52872C5.72955 7.49231 5.72955 7.49231 5.75699 7.45517C5.88748 7.35306 6.04841 7.32171 6.20973 7.32448Z" fill="#F2C779"/>
<path d="M4.35945 16.414C4.43549 16.452 4.44123 16.5477 4.47557 16.6248C4.69497 17.0764 5.1415 17.5052 5.62617 17.6731C5.5556 17.7529 5.44105 17.7949 5.34742 17.8446C4.95117 18.0719 4.68134 18.4051 4.45894 18.7989C4.42786 18.8535 4.3943 18.9067 4.35945 18.959C4.34353 18.9293 4.29677 18.9109 4.28037 18.8804C3.99423 18.3543 3.69523 17.9984 3.15888 17.7303C3.15888 17.7114 3.15888 17.6926 3.15888 17.6731C3.17587 17.6655 3.19285 17.6578 3.21035 17.6499C3.7591 17.3906 4.07858 16.938 4.35945 16.414Z" fill="#F2C97A"/>
<path d="M17.9978 18.189C18.0733 18.2878 18.1129 18.3887 18.1808 18.4927C18.2762 18.6309 18.3593 18.7213 18.5052 18.8072C18.5561 18.8372 18.6065 18.8684 18.6553 18.9018C18.6553 18.9207 18.7664 18.959 18.6916 18.959C18.645 18.9898 18.5536 19.0581 18.5052 19.0859C18.2607 19.2375 18.1052 19.4217 17.9907 19.6841C17.9718 19.6841 17.9292 19.6447 17.9098 19.6447C17.8991 19.6237 17.8883 19.6027 17.8773 19.581C17.7307 19.3016 17.5414 19.0948 17.2523 18.959C17.2523 18.9401 17.2523 18.9212 17.2523 18.9018C17.3078 18.8658 17.3078 18.8658 17.3828 18.825C17.6564 18.6644 17.848 18.4663 17.9978 18.189Z" fill="#F2CB7C"/>
<path fill-rule="evenodd" clip-rule="evenodd" d="M19.4564 2.1936C19.3462 2.25602 19.2778 2.38994 19.1592 2.77527C19.0387 3.16632 18.8751 3.45283 18.6457 3.6739C18.422 3.88953 18.237 3.99909 17.8633 4.13715C17.4546 4.28812 17.4077 4.31393 17.3432 4.42313C17.1918 4.67948 17.3201 4.92791 17.6586 5.03392C18.2118 5.20715 18.5713 5.43738 18.809 5.77074C18.9871 6.02032 19.0708 6.20232 19.217 6.658C19.3274 7.00219 19.3846 7.07167 19.5892 7.11006C19.844 7.15786 20.003 7.00097 20.1038 6.60196C20.305 5.80623 20.7619 5.32337 21.5676 5.05496C21.8745 4.9527 22 4.82547 22 4.61636C22 4.4138 21.8762 4.28254 21.605 4.19764C20.7017 3.91478 20.3218 3.49593 20.055 2.48845C20.0311 2.39818 19.9748 2.28986 19.93 2.24767C19.8273 2.15123 19.581 2.12311 19.4564 2.1936ZM3.76389 2.72141C3.63313 2.77829 3.56975 2.88791 3.49024 3.19483C3.40933 3.50722 3.25753 3.79155 3.09171 3.9414C2.92351 4.09346 2.82107 4.14865 2.54941 4.23376C2.26976 4.32133 2.12487 4.48292 2.15103 4.67804C2.17416 4.85062 2.28747 4.9743 2.46661 5.02259C2.71064 5.08831 2.99527 5.2424 3.14012 5.3872C3.31607 5.5631 3.40382 5.7302 3.51961 6.10999C3.62822 6.46621 3.71288 6.56265 3.91692 6.56265C4.14689 6.56265 4.22507 6.47291 4.35124 6.06387C4.54233 5.44439 4.73146 5.2425 5.2935 5.05804C5.55807 4.97118 5.67173 4.87681 5.70124 4.71935C5.73592 4.53447 5.63688 4.37316 5.43541 4.28647C5.3416 4.24611 5.2441 4.21293 5.21876 4.21272C5.10205 4.21185 4.80631 4.03293 4.67506 3.88382C4.51155 3.69799 4.41956 3.51841 4.33181 3.21363C4.22924 2.8574 4.18268 2.77552 4.0516 2.72074C3.90629 2.66 3.905 2.66 3.76389 2.72141ZM20.0371 3.97608C20.2133 4.20059 20.5296 4.46472 20.7282 4.55331L20.8588 4.61148L20.666 4.71914C20.2794 4.93499 19.9419 5.29556 19.7444 5.70397L19.6466 5.90603L19.5511 5.71073C19.3562 5.31229 18.9677 4.90627 18.6187 4.73626C18.5228 4.68962 18.4439 4.64354 18.4432 4.63389C18.4425 4.62425 18.5326 4.56996 18.6434 4.51326C18.9318 4.36569 19.3355 3.94428 19.5101 3.60832L19.6496 3.34019L19.7643 3.55744C19.8274 3.67695 19.9501 3.86534 20.0371 3.97608ZM3.99138 3.99982C4.06959 4.1766 4.26875 4.41026 4.43509 4.52052L4.59523 4.6266L4.42349 4.75C4.24028 4.88169 4.10247 5.04307 3.99758 5.24889L3.93283 5.37594L3.87271 5.25916C3.77136 5.06236 3.64726 4.91998 3.45935 4.78493C3.36049 4.71388 3.27264 4.65048 3.26415 4.64403C3.25571 4.63758 3.28726 4.60559 3.33427 4.57294C3.51933 4.44456 3.74766 4.20445 3.82706 4.05478C3.87295 3.96826 3.91849 3.89746 3.92827 3.89746C3.93805 3.89746 3.96645 3.94354 3.99138 3.99982ZM5.75979 6.6985C5.56978 6.76436 5.48996 6.82037 5.32855 7.001C5.24708 7.09218 4.48971 8.05894 4.29479 8.32059C4.25704 8.37126 3.96582 8.74754 3.64768 9.15672C2.77255 10.2823 2.8589 10.1424 2.8589 10.4351C2.8589 10.7195 2.85427 10.711 3.2969 11.2443C3.57823 11.5832 4.59401 12.8097 5.73655 14.19C6.8231 15.5027 8.14072 17.0919 8.30959 17.2935C8.60014 17.6404 9.34591 18.54 9.5322 18.7682C10.0766 19.4353 10.8668 20.3803 11.0011 20.5248C11.2956 20.8417 11.7212 20.9326 12.098 20.7591C12.386 20.6265 12.1694 20.8733 14.8011 17.6793C15.1745 17.226 15.7639 16.509 16.1108 16.0859C16.4576 15.6627 17.0471 14.9447 17.4206 14.4903C17.7942 14.0358 18.2276 13.5062 18.3836 13.3133C18.5397 13.1204 18.6836 12.945 18.7036 12.9234C18.7234 12.9018 18.8265 12.7772 18.9325 12.6464C19.0386 12.5156 19.4075 12.0677 19.7524 11.6511C20.4953 10.7536 20.5484 10.6776 20.5706 10.4811C20.5926 10.2858 20.5246 10.1258 20.3021 9.8495C20.2054 9.72939 19.8538 9.28276 19.5207 8.85699C19.1875 8.43123 18.8361 7.98232 18.7397 7.85944C18.6433 7.73653 18.4747 7.51914 18.365 7.37634C18.0495 6.96544 17.8939 6.81023 17.7147 6.72744L17.5478 6.65032L11.7458 6.6425C6.21385 6.63503 5.93535 6.63763 5.75979 6.6985ZM9.15162 7.36336C9.15162 7.37942 8.93816 7.80158 8.67727 8.30144C8.41637 8.8013 8.09693 9.41935 7.96736 9.67482L7.73181 10.1393L5.8738 10.1452C4.85188 10.1483 3.94875 10.1538 3.86678 10.1573C3.78482 10.1608 3.71779 10.1588 3.71779 10.1528C3.71779 10.1468 3.84109 9.98756 3.99176 9.79886C4.14244 9.61019 4.37427 9.31376 4.50689 9.14017C5.49413 7.84811 5.80607 7.44914 5.87025 7.39629C5.93763 7.34088 6.08063 7.33566 7.54777 7.33492C8.4299 7.3345 9.15162 7.3473 9.15162 7.36336ZM13.4544 7.37799C13.4967 7.43185 14.8659 10.091 14.8659 10.1193C14.8659 10.1305 13.4382 10.1396 11.6933 10.1396C9.94829 10.1396 8.5206 10.131 8.5206 10.1205C8.5206 10.1099 8.70594 9.74148 8.93252 9.30162C9.15909 8.8618 9.47853 8.23951 9.64242 7.91874L9.9404 7.33555L11.6802 7.33485C13.031 7.33433 13.4277 7.34394 13.4544 7.37799ZM17.3632 7.3566C17.4835 7.37648 17.5334 7.42863 17.9752 7.99621C18.2398 8.33605 18.6298 8.83507 18.8418 9.1051C19.4872 9.92728 19.6456 10.1393 19.6276 10.1574C19.6181 10.1669 18.715 10.1628 17.6206 10.1484L15.6309 10.1221L15.2989 9.49085C14.6758 8.30614 14.5231 8.01791 14.3439 7.68834C14.2454 7.50704 14.1648 7.35316 14.1648 7.34643C14.1648 7.32451 17.2282 7.33426 17.3632 7.3566ZM9.40123 14.9615C10.3044 17.2181 11.0583 19.1118 11.0766 19.1697C11.0948 19.2276 11.1577 19.4003 11.2164 19.5535C11.2751 19.7068 11.3186 19.8368 11.3129 19.8424C11.3073 19.8481 11.2676 19.8052 11.2247 19.7472C11.1819 19.6892 10.9069 19.3538 10.6137 19.0018C10.3205 18.6497 9.74934 17.9606 9.34443 17.4703C7.87039 15.6855 6.58906 14.1397 6.46545 13.9971C6.42363 13.9489 6.30496 13.8045 6.20172 13.6763C5.93876 13.3495 4.80259 11.9727 4.30717 11.3804C4.0794 11.1081 3.89308 10.8752 3.89308 10.8629C3.89308 10.8505 4.76291 10.8445 5.82605 10.8495L7.75905 10.8585L9.40123 14.9615ZM14.7601 11.1654C13.6792 13.8397 13.0122 15.5055 12.0924 17.8281C11.7303 18.7424 11.6407 18.9328 11.6407 18.7878C11.6407 18.761 11.1731 17.5736 10.6016 16.149C10.0302 14.7243 9.50412 13.4089 9.4326 13.2256C9.36112 13.0424 9.11877 12.4384 8.89409 11.8834C8.66938 11.3284 8.48554 10.8668 8.48554 10.8576C8.48554 10.8485 9.92684 10.841 11.6884 10.841H14.8913L14.7601 11.1654ZM19.4523 10.9024C19.4236 10.9361 19.1964 11.2142 18.9473 11.5204C18.6981 11.8265 18.3365 12.2693 18.1437 12.5044C17.7025 13.0425 16.0572 15.0556 15.7073 15.4857C15.4043 15.858 14.6164 16.8186 13.8626 17.7346C13.5757 18.0833 13.1017 18.6593 12.8094 19.0146C12.517 19.3699 12.2217 19.7238 12.1531 19.8009L12.0283 19.9412L12.1108 19.6957C12.2108 19.3982 12.8471 17.7614 13.0447 17.2935C13.0813 17.2068 13.2939 16.6702 13.517 16.1012C13.7402 15.5322 13.9593 14.9799 14.004 14.8738C14.0487 14.7678 14.4305 13.817 14.8524 12.761L15.6196 10.841H17.562C19.4082 10.841 19.5017 10.844 19.4523 10.9024ZM4.18938 15.2726C4.07548 15.3235 3.96319 15.4659 3.96319 15.5593C3.96319 15.644 3.79032 16.131 3.6955 16.3135C3.49528 16.6987 3.08855 17.0291 2.57844 17.2209C2.04894 17.4199 2 17.4627 2 17.7259C2 17.937 2.0889 18.0383 2.35818 18.1337C3.31348 18.4722 3.62422 18.7895 3.91089 19.7189C3.96708 19.901 4.03748 20.0535 4.08687 20.0999C4.20316 20.2092 4.43951 20.2282 4.5804 20.1396C4.67397 20.0807 4.71081 20.008 4.84165 19.6237C4.92543 19.3776 5.05111 19.0878 5.12091 18.9798C5.34447 18.6338 5.76536 18.3267 6.20684 18.1875C6.62601 18.0554 6.73269 17.9572 6.73269 17.7033C6.73269 17.5526 6.63604 17.4278 6.46356 17.3558C6.38983 17.3251 6.21949 17.2552 6.08501 17.2004C5.38598 16.9161 4.99727 16.4654 4.76771 15.6731C4.72466 15.5243 4.65616 15.3718 4.61553 15.334C4.516 15.2414 4.32186 15.2135 4.18938 15.2726ZM4.61564 16.9026C4.83751 17.2033 5.15713 17.4835 5.44915 17.6334L5.5851 17.7031L5.34384 17.8372C5.0386 18.0068 4.68968 18.362 4.50657 18.6894C4.42945 18.8273 4.35846 18.9397 4.34882 18.9391C4.33918 18.9385 4.28656 18.8464 4.23183 18.7344C4.05777 18.378 3.72649 18.0376 3.33195 17.8097L3.15376 17.7068L3.37444 17.5791C3.68754 17.3978 4.09683 16.9799 4.2455 16.6894L4.36628 16.4535L4.44379 16.6141C4.48638 16.7024 4.56375 16.8323 4.61564 16.9026ZM17.8215 17.0835C17.7182 17.1251 17.6527 17.2346 17.5807 17.4864C17.4017 18.1125 17.1061 18.4315 16.5869 18.5588C16.1182 18.6738 16.1107 19.2001 16.5761 19.3255C17.0887 19.4635 17.4376 19.8295 17.5689 20.3668C17.6551 20.7195 17.8054 20.8626 18.0483 20.8231C18.2184 20.7955 18.2943 20.7135 18.3593 20.4874C18.4971 20.0075 18.7247 19.6601 19.0111 19.4927C19.0932 19.4447 19.2748 19.3714 19.4148 19.3299C19.7058 19.2434 19.7835 19.1611 19.7835 18.9392C19.7835 18.7446 19.6771 18.642 19.3849 18.555C19.2553 18.5164 19.0571 18.423 18.9445 18.3474C18.6602 18.1566 18.5452 17.9678 18.3185 17.3191C18.2368 17.0851 18.0441 16.9938 17.8215 17.0835ZM18.1703 18.4931C18.2471 18.6036 18.3943 18.7516 18.4985 18.8235L18.6875 18.9536L18.5849 19.0033C18.4056 19.0902 18.195 19.2959 18.0841 19.4924L17.9768 19.6827L17.9159 19.5466C17.8297 19.3541 17.6515 19.1628 17.4523 19.049L17.2813 18.9513L17.4597 18.8368C17.6488 18.7155 17.8313 18.5132 17.9347 18.3105C17.9774 18.2269 18.0027 18.2045 18.0142 18.2404C18.0235 18.2693 18.0937 18.383 18.1703 18.4931Z" fill="black"/>
<path d="M19.6492 3.31641C19.6973 3.38853 19.7394 3.46147 19.781 3.53738C20.0384 4.00217 20.3978 4.39358 20.8785 4.6243C20.7846 4.70194 20.6837 4.72966 20.5794 4.79246C20.1571 5.06013 19.8551 5.48485 19.6492 5.9322C19.6303 5.9322 19.6686 5.9322 19.6492 5.9322C19.6325 5.89534 19.6039 5.82261 19.5869 5.78502C19.3308 5.24425 18.9896 4.92827 18.4486 4.66167C18.4486 4.66167 18.4486 4.66167 18.4299 4.64299C18.4486 4.6243 18.5182 4.58005 18.5421 4.56825C19.0916 4.28621 19.3803 3.85919 19.6492 3.31641Z" fill="#F2CA7B"/>
<path d="M3.91968 3.87693C3.98607 3.96202 4.04136 4.05038 4.09655 4.14303C4.22052 4.33925 4.39241 4.51506 4.59813 4.6243C4.48598 4.71772 4.49777 4.71635 4.40206 4.77879C4.18061 4.92325 4.05034 5.15257 3.94393 5.39035C3.86916 5.29693 3.91968 5.35299 3.84465 5.23418C3.71027 4.95913 3.49454 4.81076 3.23364 4.66167C3.304 4.58869 3.40187 4.53088 3.45697 4.45555C3.75701 4.19456 3.80284 4.10945 3.91968 3.87693Z" fill="#F2C97A"/>
</svg>
