<svg width="120" height="111" viewBox="0 0 120 111" fill="none" xmlns="http://www.w3.org/2000/svg">
<path d="M98.5807 24.9355C98.5807 27.144 96.8037 28.9336 94.6106 28.9336C93.844 28.9336 93.1367 28.7181 92.5305 28.3351C91.3954 27.6348 90.6406 26.3779 90.6406 24.9355C90.6406 22.727 92.4176 20.9375 94.6106 20.9375C95.0564 20.9375 95.4843 21.0093 95.8825 21.153C97.4515 21.6796 98.5807 23.1759 98.5807 24.9355Z" fill="#F2CA8B"/>
<path opacity="0.34" d="M98.5736 24.9349C98.5736 27.1434 96.7966 28.9329 94.6035 28.9329C93.8369 28.9329 93.1296 28.7175 92.5234 28.3344C94.9542 26.3354 95.6674 23.0376 95.8754 21.1523C97.4444 21.679 98.5736 23.1753 98.5736 24.9349Z" fill="#EFBD6E"/>
<path d="M94.6043 29.2331C92.2508 29.2331 90.3359 27.3047 90.3359 24.9346C90.3359 22.5651 92.2508 20.6367 94.6043 20.6367C96.9578 20.6367 98.8721 22.5651 98.8721 24.9346C98.8721 27.3047 96.9578 29.2331 94.6043 29.2331ZM94.6043 21.2358C92.5783 21.2358 90.9303 22.8955 90.9303 24.9352C90.9303 26.9749 92.5783 28.6352 94.6043 28.6352C96.6297 28.6352 98.2778 26.9755 98.2778 24.9352C98.2778 22.8949 96.6297 21.2358 94.6043 21.2358Z" fill="#1F2E30"/>
<path d="M43.3072 12.3535C43.3072 14.562 41.5302 16.3515 39.3372 16.3515C38.8974 16.3515 38.4695 16.2797 38.0713 16.1421C36.4964 15.6094 35.3672 14.1191 35.3672 12.3535C35.3672 10.145 37.1442 8.35547 39.3372 8.35547C39.7057 8.35547 40.0563 8.40335 40.3951 8.5051C42.077 8.96595 43.3072 10.5161 43.3072 12.3535Z" fill="#F2CA8B"/>
<path opacity="0.34" d="M43.3062 12.3562C43.3062 14.5647 41.5292 16.3543 39.3362 16.3543C38.8964 16.3543 38.4685 16.2824 38.0703 16.1448C40.6021 13.7089 40.6615 10.4769 40.3941 8.50781C42.076 8.96866 43.3062 10.5188 43.3062 12.3562Z" fill="#EFBD6E"/>
<path d="M39.3381 16.6516C36.9852 16.6516 35.0703 14.7233 35.0703 12.3532C35.0703 9.98307 36.9852 8.05469 39.3381 8.05469C41.6916 8.05469 43.6065 9.98307 43.6065 12.3532C43.6065 14.7238 41.6916 16.6516 39.3381 16.6516ZM39.3381 8.65378C37.3127 8.65378 35.6646 10.3134 35.6646 12.3538C35.6646 14.3941 37.3127 16.0537 39.3381 16.0537C41.3641 16.0537 43.0121 14.3941 43.0121 12.3538C43.0121 10.3134 41.3641 8.65378 39.3381 8.65378Z" fill="#1F2E30"/>
<path d="M45.4577 18.4049C46.2714 18.4049 46.931 17.7406 46.931 16.9212C46.931 16.1018 46.2714 15.4375 45.4577 15.4375C44.644 15.4375 43.9844 16.1018 43.9844 16.9212C43.9844 17.7406 44.644 18.4049 45.4577 18.4049Z" fill="#F2CA8B"/>
<path d="M45.458 18.7059C44.4815 18.7059 43.6875 17.9063 43.6875 16.923C43.6875 15.9402 44.4815 15.1406 45.458 15.1406C46.4338 15.1406 47.2284 15.9402 47.2284 16.923C47.2284 17.9063 46.4338 18.7059 45.458 18.7059ZM45.458 15.7391C44.8096 15.7391 44.2818 16.2706 44.2818 16.923C44.2818 17.576 44.8096 18.1074 45.458 18.1074C46.1064 18.1074 46.6341 17.576 46.6341 16.923C46.6341 16.2706 46.1064 15.7391 45.458 15.7391Z" fill="#1F2E30"/>
<path d="M93.2145 65.7824C92.9245 65.519 92.6006 65.2671 92.2648 65.0378C91.3834 64.4363 90.3939 63.9444 89.5529 63.526C88.2621 62.879 87.4835 62.4954 87.4663 61.9573C87.4491 61.5964 87.8015 61.1212 88.5355 60.1594C89.5928 58.7852 91.0369 56.8957 91.0369 55.2636C91.0369 53.3567 90.0135 51.1979 89.3372 49.7723C89.081 49.2282 88.8825 48.8045 88.7744 48.4837C88.4505 47.5105 87.7224 45.9472 87.5346 45.5576C87.1424 45.3631 85.7267 44.5784 85.5389 43.2844C85.3743 42.0934 85.7719 41.4291 86.3181 40.5187C86.4429 40.3129 86.5736 40.095 86.7103 39.8544C86.9778 39.3792 87.3355 39.1212 87.6202 38.9153C87.6375 38.904 87.6541 38.8926 87.666 38.8812C88.1836 38.509 88.4107 38.2743 87.5067 36.7056C86.8244 35.526 86.3585 35.1082 85.8183 34.6216C85.6364 34.4612 85.4486 34.2895 85.2441 34.0836C84.7039 33.5395 84.0502 32.7495 83.1177 31.1748C82.4806 30.0981 81.6563 28.7586 80.6727 27.2013C78.1653 25.2376 75.4189 23.5714 72.502 22.2487C71.5523 22.9358 69.8128 23.8808 67.9365 23.3823C66.7485 23.0615 65.7304 22.6323 64.8265 22.2487C63.5416 21.7106 62.5235 21.2755 61.597 21.3838C59.6298 21.6071 56.0366 23.159 56.0478 23.9604C56.1049 26.8063 55.6895 27.3558 55.3198 27.5102C55.047 27.6305 54.7511 27.5329 54.4444 27.2241C53.9327 26.7028 53.6712 25.9301 53.421 25.1802C53.0911 24.1837 52.7726 23.2392 51.9144 22.9986C50.368 22.5635 45.2224 24.0352 44.1306 24.4476C43.7949 24.5733 43.5964 25.1688 43.4026 25.7476C43.1584 26.4975 42.8969 27.2761 42.2425 27.5401C41.4865 27.8375 38.9393 28.4845 38.2285 28.0782C38.0865 27.998 37.9955 27.8723 37.973 27.7286C37.9557 27.6143 37.882 27.3965 37.6259 27.2187C37.3644 27.0469 36.864 26.8865 35.9487 27.1044C35.4144 27.2301 35.3348 27.5455 35.2207 28.141C35.1012 28.7826 34.9366 29.6642 33.5376 29.7845C33.3557 29.8019 33.1852 29.8072 33.0259 29.8072C31.9401 29.8072 31.2293 29.4751 30.4162 29.0459C30.3479 29.0058 30.2742 28.9717 30.2059 28.9316C29.9331 28.7886 29.6318 28.6282 29.296 28.4678C25.714 31.5543 22.7175 35.2184 20.3866 39.3696C21.5633 40.7097 21.4956 41.6601 21.2109 42.2269C20.3979 43.8704 20.1138 45.6683 20.1762 46.3668C20.2047 46.6074 20.4318 47.2083 20.654 47.7924C21.1432 49.0804 21.4843 50.0368 21.3874 50.5922C21.3304 50.913 21.0005 51.5026 20.4264 52.5218C19.9545 53.3466 19.4256 54.2796 19.0957 55.0583C18.6239 56.1518 18.8229 56.3068 18.8229 56.3068C19.0904 56.4612 19.3917 56.3128 19.8636 56.0548C20.1988 55.8657 20.5685 55.6598 20.9494 55.6825C21.0231 55.6825 21.0974 55.6939 21.1711 55.7167C21.4671 55.8022 21.7113 56.0315 21.9158 56.4151C22.8084 58.0586 22.8084 59.255 22.8084 60.4173C22.8084 61.0015 22.3478 61.7059 21.8135 62.5247C21.2335 63.4296 20.5685 64.4483 20.7788 65.0498C20.9381 65.5136 21.3131 65.7082 21.7113 65.9146C22.2403 66.1894 22.8994 66.5389 22.8031 67.6036C22.7175 68.5828 22.314 68.9036 21.9841 69.1669C21.8189 69.3046 21.6887 69.4075 21.6032 69.5907C21.5693 69.6709 21.5407 69.7738 21.5235 69.9055C21.4041 70.8906 22.3936 72.9399 22.7175 73.6156L22.7858 73.7533C23.0301 74.2632 23.65 78.8376 22.6723 79.4164C22.2854 79.651 21.7624 80.9851 21.4956 81.6835C21.911 82.3419 22.3544 82.9949 22.8203 83.6418C23.9406 82.6399 24.6116 82.783 24.9806 83.1038C25.424 83.4874 25.7426 83.8711 26.0153 84.2086C26.3791 84.6497 26.6637 84.9933 27.1071 85.2105C27.4197 85.365 27.869 85.1764 28.3409 84.9759C28.9037 84.7353 29.5462 84.4666 30.0864 84.7928C31.0646 85.3943 31.9115 86.6021 31.6102 87.9649C31.4848 88.543 31.2631 88.9213 31.1045 89.196C30.8768 89.591 30.8543 89.6425 31.0474 89.8604C31.5419 90.4218 31.7124 90.5929 32.1279 91.0113L32.321 91.2058C32.3894 91.2746 32.4631 91.3548 32.5427 91.435C33.0485 91.9677 33.7426 92.7003 34.4534 92.4944C35.5167 92.1909 36.7617 92.5285 36.8129 92.5405C36.9038 92.5632 36.9775 92.632 37.006 92.7236C37.0399 92.8266 37.8874 95.2888 38.0805 95.9873C38.1144 96.1303 38.1091 96.3021 38.0805 96.4852C39.8884 97.3615 41.7647 98.1114 43.6641 98.7069C44.2043 98.8787 44.7897 99.0504 45.5178 99.2449C46.9792 99.6286 48.4234 99.926 49.7992 100.127C51.4199 100.373 53.0798 100.516 54.7344 100.562C55.3596 98.7691 56.5821 97.7786 58.2028 97.7786C60.8695 97.7786 63.223 97.3034 64.4913 97.0454C64.7528 96.994 64.9691 96.9479 65.1165 96.9251C65.6793 96.8276 68.0334 94.898 69.3866 93.7016C69.4092 93.6788 69.4437 93.6561 69.4776 93.6441C69.5115 93.6327 72.741 92.4992 73.8499 91.9438C74.0265 91.8522 74.2933 91.7259 74.6232 91.5715C76.2605 90.7868 80.1039 88.9548 80.5419 88.0098C80.6786 87.7177 80.7125 87.3682 80.7523 87.0019C80.8492 86.0113 80.974 84.7688 83.4642 84.448C84.4418 84.3164 85.426 84.1733 86.3585 84.0357C87.1656 83.9214 87.9394 83.8064 88.6555 83.7149C89.5084 82.5352 90.3327 81.2586 91.1005 79.9018C93.0849 76.4035 94.5404 72.6299 95.4331 68.7019C94.7264 67.4714 93.9818 66.4868 93.2145 65.7824ZM78.2211 58.3447C78.8238 58.0814 79.3925 57.8695 79.8929 57.6864C81.1891 57.2111 82.1276 56.8676 82.5483 55.9974C82.7474 55.585 82.918 55.2815 83.066 55.0128C83.3958 54.3999 83.6175 53.9936 83.9414 52.8941C84.0668 52.459 84.3283 52.1382 84.7146 51.9437C85.7095 51.4511 87.1882 52.0179 87.2506 52.0412C87.3017 52.0586 87.3474 52.0987 87.3813 52.1388C87.5293 52.3447 88.797 54.1827 87.9441 54.996C87.6939 55.2366 87.4211 55.3857 87.165 55.5287C86.6646 55.7981 86.2664 56.0153 86.1017 56.8514C85.9995 57.3667 85.152 61.0883 84.6522 61.4204C84.317 61.6497 81.6902 61.8669 80.6495 61.8669C80.4736 61.8669 80.3369 61.8609 80.2745 61.8442C79.865 61.764 77.4996 60.6131 77.3748 59.4561C77.3398 59.1348 77.4592 58.6763 78.2211 58.3447ZM58.6908 24.7798C58.8786 24.1902 59.8111 23.9951 60.7946 23.7952C60.9765 23.7611 61.1471 23.721 61.3123 23.6863C62.5401 23.4002 63.2854 23.8006 63.9445 24.1561C64.3653 24.3854 64.7635 24.5972 65.2805 24.6314C66.8899 24.7403 68.6123 26.5897 69.0901 27.2307C69.2832 27.494 69.3005 27.8088 69.1358 28.1123C68.7608 28.8107 67.4242 29.4122 66.2932 29.4122C66.2249 29.4122 66.1625 29.4062 66.0941 29.4062C64.5876 29.3033 63.7858 28.6964 63.0067 28.1063C62.7452 27.9118 62.2507 27.6712 61.7271 27.4132C60.7887 26.9553 59.6179 26.3886 58.9867 25.6841C58.6961 25.3633 58.5939 25.0605 58.6908 24.7798ZM42.3156 31.6447C42.3614 31.5704 42.441 31.519 42.526 31.507C42.7816 31.4729 43.1001 31.4615 43.4638 31.4496C44.7315 31.4035 46.4604 31.3466 47.1652 30.3387C48.3253 28.6611 51.2701 29.5541 52.5099 30.2531C53.6355 30.8828 55.1082 32.5777 55.1481 33.5856C55.1653 33.992 54.9662 34.2099 54.801 34.3188C54.6762 34.4044 54.5454 34.5133 54.3915 34.6336C53.7716 35.1436 52.8504 35.8935 51.3385 35.8935C50.7472 35.8935 50.0708 35.7792 49.2917 35.4925C46.8354 34.5935 45.0275 34.6851 43.5773 34.7593C43.2136 34.7767 42.8778 34.7934 42.5652 34.7934C42.0648 34.7934 41.8259 34.5642 41.7177 34.3697C41.2583 33.5689 42.1391 31.9595 42.3156 31.6447ZM31.7743 31.7362C32.1837 30.9229 33.9916 30.8373 34.7476 30.8373C34.7702 30.8373 34.7987 30.8373 34.8272 30.8487C35.2991 30.9863 39.4385 32.2743 39.9443 33.9004C40.0804 34.3296 39.9556 34.5989 39.8308 34.7533C39.5746 35.0681 39.0629 35.1711 38.4092 35.1711C37.8238 35.1711 37.1243 35.0855 36.3677 34.9993C35.8049 34.9305 35.2248 34.8676 34.7304 34.8449C33.1382 34.7707 32.9165 34.5013 32.5189 33.7341C32.3882 33.4935 32.2289 33.19 31.9561 32.8123C31.6037 32.3204 31.6607 31.9595 31.7743 31.7362ZM24.6556 68.0268C23.814 66.8016 23.4277 63.8181 24.0357 63.2626C24.3542 62.9706 24.633 62.8503 24.8998 62.9077C25.3034 62.9933 25.5025 63.429 25.7128 63.8923C25.8549 64.2017 26.0142 64.5566 26.2418 64.8086C26.4635 65.066 26.725 65.3179 27.0037 65.5933C27.6349 66.2175 28.3569 66.9219 28.8348 67.8209C29.4719 69.0059 30.4097 72.3612 30.188 73.3637C30.131 73.6384 29.9206 73.8676 29.5741 74.0454C29.0398 74.3147 28.2208 74.4464 27.4815 74.4464C26.9241 74.4464 26.4123 74.3722 26.0997 74.2345C25.2867 73.8682 24.337 72.2822 24.2294 71.5322C24.1896 71.2862 24.2407 71.1025 24.3715 70.9882C24.6104 70.7811 25.4234 69.1376 24.6556 68.0268ZM40.6896 91.3824L40.6497 91.4853C40.5873 91.6571 40.4453 91.7714 40.2634 91.8061C40.2296 91.8115 40.1951 91.8115 40.1553 91.8115C39.4671 91.8115 38.2452 90.8383 37.7959 90.2769C37.5005 89.9106 37.0565 89.9046 36.3855 89.8933C36.0046 89.8987 35.6123 89.8987 35.2029 89.8017C34.0374 89.5384 33.685 88.7136 33.5257 88.1181C33.3551 87.4998 33.7872 86.7038 33.833 86.6176C33.8443 86.6003 33.8555 86.5889 33.8615 86.5716C34.0321 86.3657 34.6347 85.6439 35.2433 85.0998C35.6189 84.7736 35.9939 84.5103 36.2726 84.4702C36.8414 84.39 38.3652 84.5504 38.5869 84.8825C38.6095 84.9167 38.7176 85.0543 38.871 85.2489C39.2293 85.7187 39.8492 86.5141 40.3437 87.2072C40.5998 87.5621 40.8269 87.8943 40.9635 88.1402C41.5198 89.1152 40.9338 90.7072 40.6896 91.3824ZM72.0177 91.0107C71.6028 91.0568 71.125 91.1136 70.6074 91.1938C69.4984 91.3596 69.2488 91.5829 68.9356 91.8749C68.7252 92.0694 68.4809 92.2927 67.9859 92.5279C66.8828 93.0492 63.9772 93.9482 63.2153 94.0511C62.9823 94.2402 62.2376 94.7555 61.1399 94.7555C60.9355 94.7555 60.7192 94.7382 60.4915 94.6981C58.8542 94.4006 57.4154 92.8888 57.353 92.826C57.2906 92.7631 57.268 92.6769 57.2793 92.5913C57.2906 92.5058 57.3363 92.4256 57.41 92.3795C57.4671 92.3507 62.7375 89.1613 63.7098 88.394C64.5228 87.747 65.3584 87.9415 65.9729 88.0846C66.2005 88.142 66.4109 88.1875 66.5868 88.1875C66.922 88.1875 67.9116 87.9415 68.8613 87.7009C69.7938 87.4663 70.7601 87.2197 71.4483 87.1168C72.9947 86.8876 73.5124 87.5178 73.5635 87.586C73.5861 87.6201 73.6033 87.6549 73.6146 87.689C73.6657 87.9008 74.1204 89.7389 74.1204 90.1913C74.1216 90.7587 73.3709 90.8503 72.0177 91.0107ZM87.5174 78.8945C87.3979 78.9861 87.1703 79.1064 86.7442 79.3296C85.9252 79.7533 84.5553 80.4692 84.0888 81.1275C83.8101 81.5165 83.6966 81.7805 83.5943 82.0091C83.441 82.3527 83.3102 82.6501 82.7587 83.114C81.8375 83.8872 79.6826 83.8926 79.5916 83.8926C79.5518 83.8926 79.512 83.8866 79.4722 83.8699C79.3985 83.8358 77.8746 83.12 77.0046 82.3868C76.8798 82.2838 76.7716 82.1803 76.6807 82.0833C76.4988 81.8828 76.4192 81.6309 76.453 81.3621C76.5612 80.4973 77.8289 79.6043 78.085 79.4325C78.1819 79.3697 78.46 79.2721 79.5233 78.9286C80.6887 78.5449 82.6446 77.9039 82.9745 77.652C83.4291 77.3084 83.9295 76.1402 83.9979 74.5774C84.0205 74.1477 84.1572 73.8556 84.4186 73.7072C84.9078 73.4265 85.6013 73.7874 86.1582 74.0849C86.3288 74.1705 86.5617 74.2968 86.636 74.3027C86.7442 74.3027 86.8464 74.3369 86.9433 74.4057C87.5519 74.8067 87.9097 76.3125 87.978 76.7644C88.1313 77.7896 87.9721 78.5282 87.5174 78.8945Z" fill="#9DE5F2"/>
<path d="M17.3395 73.066C17.6182 73.8775 17.9101 74.6472 18.2084 75.3559C18.2138 75.3684 18.2185 75.381 18.2215 75.3942C18.3778 75.7778 18.5442 76.1608 18.7201 76.5337C18.7278 76.5457 18.735 76.5583 18.7403 76.5702C19.4357 78.1156 20.2356 79.6316 21.1223 81.0842C21.5746 79.9368 21.9609 79.1791 22.3852 78.9266C22.8589 78.6117 22.5832 74.6364 22.2747 74.0026L22.2105 73.8698C21.6132 72.6326 20.8335 70.8688 20.9625 69.8328C21.0421 69.1942 21.3559 68.9428 21.6334 68.7202C21.9241 68.4874 22.1749 68.2863 22.2408 67.5525C22.3026 66.869 21.9639 66.6925 21.451 66.4255C21.0183 66.2005 20.4799 65.9192 20.2427 65.2399C19.9414 64.375 20.6522 63.2774 21.341 62.2162C21.7826 61.5345 22.2396 60.8301 22.2396 60.4207C22.2396 59.2805 22.2396 58.2038 21.4219 56.6926C21.2917 56.4532 21.1538 56.3101 21.0118 56.2682C20.7788 56.203 20.4686 56.3736 20.1381 56.5561C19.6781 56.8099 19.1088 57.1283 18.5454 56.8045C17.9635 56.4693 18.2548 55.574 18.5739 54.8306C18.9192 54.0262 19.4582 53.0758 19.9343 52.2379C20.3539 51.4987 20.7877 50.7344 20.8293 50.4944C20.9048 50.0539 20.4531 48.8659 20.1233 47.9981C19.8564 47.296 19.6455 46.7418 19.6146 46.4198C19.5409 45.6345 19.8303 43.7361 20.7069 41.9699C21.0362 41.3073 20.6071 40.5203 20.093 39.8984C19.6538 40.6986 19.2413 41.521 18.8378 42.4014C18.0854 44.0407 17.4316 45.7548 16.895 47.4965C16.5021 48.7719 16.1883 49.9899 15.9351 51.2204C15.474 53.4253 15.1946 55.6685 15.1055 57.8902C14.9498 61.6303 15.3117 65.3763 16.1782 69.023C16.2085 69.1858 16.2478 69.3415 16.2852 69.4923L16.3078 69.582C16.3102 69.5916 16.3119 69.6012 16.3131 69.6114C16.4641 70.2386 16.6531 70.9155 16.889 71.6792C17.0293 72.152 17.1814 72.6123 17.3395 73.066Z" fill="#B4D865"/>
<path d="M26.6096 66.0033C26.3261 65.7244 26.0575 65.4605 25.8192 65.1905C25.5387 64.8721 25.3592 64.4789 25.2017 64.1312C25.0799 63.863 24.9129 63.495 24.7916 63.4698C24.7762 63.4662 24.6704 63.4591 24.4243 63.6841C24.1605 63.9941 24.3067 66.5049 25.1286 67.7013C26.0308 69.0132 25.2403 70.9266 24.7869 71.3851C24.7643 71.7616 25.654 73.4045 26.3368 73.7097C26.9157 73.9695 28.5578 73.9222 29.3197 73.5361C29.5051 73.4416 29.6186 73.3374 29.6394 73.2423C29.8029 72.5061 29.0012 69.331 28.3403 68.0957C27.8999 67.2715 27.2438 66.627 26.6096 66.0033Z" fill="#B4D865"/>
<path d="M36.5194 93.0616C36.1854 92.9892 35.3272 92.842 34.6087 93.0484C33.5716 93.3471 32.7051 92.4362 32.131 91.8329C32.0567 91.7545 31.9854 91.6797 31.9188 91.6126L31.7251 91.4175C31.3013 90.992 31.126 90.816 30.6226 90.2426C30.1519 89.707 30.3867 89.303 30.6137 88.9116C30.7635 88.653 30.9507 88.331 31.0577 87.8438C31.2978 86.7581 30.5965 85.7778 29.7947 85.2882C29.4976 85.1068 29.0429 85.3001 28.5621 85.5048C28.0189 85.7365 27.4014 85.9968 26.8559 85.7299C26.3026 85.457 25.9513 85.029 25.5793 84.5772C25.3041 84.2414 25.0182 83.8943 24.6117 83.5429C24.2498 83.2311 23.6032 83.6998 23.1562 84.1085C26.9111 89.1893 31.8743 93.368 37.5422 96.2241C37.5404 96.1918 37.5369 96.1625 37.5303 96.1373C37.3699 95.5562 36.709 93.6158 36.5194 93.0616Z" fill="#B4D865"/>
<path d="M40.4712 88.427C40.0808 87.7471 38.9599 86.2987 38.4208 85.6032C38.2907 85.435 38.1932 85.3081 38.1439 85.2417C37.924 85.14 36.9059 84.9532 36.3514 85.0364C36.0121 85.0849 35.038 86.0467 34.3207 86.9187C34.2178 87.112 33.9867 87.6489 34.074 87.9697C34.2226 88.5167 34.477 89.0494 35.3316 89.2451C35.6745 89.3235 36.0364 89.3229 36.3853 89.3229C36.4097 89.3229 36.434 89.3229 36.4584 89.3229C37.1092 89.3229 37.7736 89.3427 38.2366 89.916C38.7715 90.578 39.8329 91.2423 40.1342 91.2423L40.155 91.1855C40.3583 90.6331 40.8962 89.1655 40.4712 88.427Z" fill="#B4D865"/>
<path d="M88.1872 84.3555C87.6333 84.4327 87.0479 84.5177 86.4446 84.6056C85.5062 84.7421 84.5238 84.8851 83.5426 85.015C81.5 85.2808 81.4203 86.0666 81.3205 87.0625C81.2812 87.4593 81.2402 87.8699 81.0631 88.2523C80.6014 89.2483 77.8134 90.6841 74.8686 92.087C74.5441 92.2414 74.2814 92.3665 74.1097 92.4533C73.0351 92.9943 70.1622 94.0118 69.7218 94.1674C69.0312 94.7779 66.0852 97.3437 65.2157 97.4897C65.0689 97.5143 64.8633 97.5562 64.6048 97.6082C63.3211 97.8686 60.9313 98.3522 58.204 98.3522C56.5774 98.3522 55.7489 99.4875 55.3281 100.574C59.5299 100.613 63.7139 100.001 67.7743 98.743C68.9023 98.3851 69.9893 97.9949 71.0038 97.5825C71.4127 97.4227 71.8186 97.2467 72.2233 97.0654C72.8087 96.805 73.3252 96.5614 73.8036 96.3202C74.9964 95.7289 76.1951 95.0568 77.3689 94.3236C81.5576 91.6956 85.1942 88.3433 88.1872 84.3555Z" fill="#B4D865"/>
<path d="M71.5382 87.6849C70.8803 87.7842 69.9282 88.0242 69.0071 88.257C67.9307 88.5276 67.0024 88.7622 66.5924 88.7622C66.3552 88.7622 66.1104 88.7053 65.8512 88.6443C65.27 88.5084 64.6686 88.3678 64.0671 88.8448C63.2006 89.5301 59.2068 91.966 58.0312 92.6794C58.4972 93.1038 59.5254 93.9381 60.6023 94.135C62.009 94.3953 62.9076 93.5712 62.9165 93.5628C62.9688 93.5137 63.0383 93.4862 63.1097 93.4862C63.4657 93.4862 66.5282 92.5896 67.7507 92.0109C68.1667 91.8134 68.3676 91.629 68.5619 91.4501C68.9149 91.1257 69.2483 90.8193 70.5309 90.6277C71.0545 90.5493 71.5365 90.4919 71.9602 90.4422C72.6276 90.3626 73.38 90.274 73.5559 90.1537C73.534 89.8108 73.2683 88.6425 73.087 87.9051C72.9765 87.8118 72.5504 87.5334 71.5382 87.6849Z" fill="#B4D865"/>
<path d="M87.4162 76.8535C87.2676 75.8779 86.8195 74.9443 86.6168 74.8754C86.6156 74.8754 86.6144 74.8754 86.6126 74.8754C86.4504 74.8754 86.2459 74.7719 85.9006 74.5905C85.6118 74.4385 85.112 74.1758 84.8315 74.1758C84.7804 74.1758 84.7364 74.1848 84.7025 74.2045C84.6258 74.2488 84.5789 74.3906 84.5688 74.6043C84.4975 76.1922 83.9947 77.6022 83.3184 78.1134C82.9439 78.3959 81.4581 78.8956 79.699 79.4714C79.1029 79.6671 78.4854 79.8688 78.3885 79.9191C77.8768 80.2632 77.0769 80.9587 77.0186 81.4333C77.0061 81.538 77.0323 81.62 77.1036 81.6996C77.7033 82.364 79.3317 83.1666 79.6568 83.3228C80.2695 83.3144 81.7856 83.1869 82.3972 82.674C82.8465 82.2969 82.938 82.0899 83.0765 81.7762C83.1834 81.5344 83.3166 81.234 83.6274 80.7947C84.1748 80.0232 85.5666 79.3002 86.4878 78.8214C86.7945 78.6622 87.0839 78.5114 87.1636 78.4473C87.4405 78.2247 87.5344 77.6292 87.4162 76.8535Z" fill="#B4D865"/>
<path d="M95.3392 50.0416C95.3368 50.0338 95.3357 50.0254 95.3345 50.017C95.1104 49.1013 94.884 48.276 94.6451 47.4943C94.4983 47.0161 94.3396 46.5379 94.1756 46.0537C94.1732 46.0465 94.1714 46.0394 94.169 46.0316C94.0995 45.8466 94.0365 45.6689 93.9711 45.4857L93.9384 45.3942C91.9582 39.9843 88.9373 35.1543 84.9619 31.0395C84.0199 30.067 83.0417 29.1501 82.0391 28.3008C82.6441 29.2752 83.1694 30.14 83.6075 30.8827C84.8478 32.9733 85.5657 33.6215 86.1993 34.1937C86.7508 34.6916 87.2708 35.1615 87.9982 36.4159C89.112 38.3419 88.7269 38.8202 87.959 39.3804C87.6922 39.5749 87.4158 39.776 87.209 40.1387C87.0693 40.387 86.9344 40.6097 86.8102 40.8162C86.267 41.7181 85.9681 42.2149 86.1065 43.2018C86.2747 44.3641 87.8515 45.0746 87.8675 45.0811C87.9293 45.1087 87.9798 45.1572 88.009 45.2188C88.0464 45.2978 88.9361 47.155 89.3182 48.3041C89.4133 48.5884 89.6189 49.0241 89.8573 49.5281C90.5544 51.0022 91.6075 53.2304 91.6075 55.266C91.6075 57.0902 90.0962 59.0671 88.9925 60.5107C88.5712 61.0619 88.0464 61.749 88.0375 61.9393C88.0892 62.1554 89.0823 62.6492 89.8067 63.0101C91.0013 63.6044 92.4883 64.3441 93.6009 65.3604C94.2986 65.9972 94.9749 66.8435 95.6162 67.8813C96.0417 65.8171 96.3068 63.7271 96.4066 61.6586C96.447 61.0176 96.4577 60.3754 96.4625 59.7751C96.4744 57.4804 96.2919 55.1732 95.9205 52.9186C95.7701 52.0023 95.5793 51.0602 95.3392 50.0416Z" fill="#B4D865"/>
<path d="M80.3822 61.2823C80.8214 61.3685 84.0111 61.0908 84.3535 60.934C84.5365 60.7018 85.2271 58.3311 85.5439 56.7355C85.7626 55.6342 86.3622 55.3086 86.8918 55.0213C87.1301 54.8921 87.3547 54.7694 87.5515 54.5809C87.9235 54.2235 87.347 53.1037 86.9684 52.5459C86.7693 52.4783 86.2267 52.3125 85.6918 52.3125C85.4339 52.3125 85.1784 52.3502 84.9644 52.4573C84.7237 52.5776 84.5662 52.7734 84.4836 53.0558C84.146 54.2128 83.9006 54.6629 83.5606 55.2859C83.4162 55.5498 83.254 55.8473 83.0584 56.2501C82.5349 57.3256 81.4538 57.7224 80.0851 58.2258C79.593 58.4065 79.0349 58.6112 78.4489 58.8686C78.09 59.0254 77.9194 59.2037 77.939 59.3976C78.0187 60.1386 80.0577 61.2171 80.3822 61.2823Z" fill="#B4D865"/>
<path d="M30.474 28.4282C31.4927 28.971 32.1678 29.3295 33.4878 29.2152C34.4554 29.1314 34.5421 28.6706 34.6622 28.0331C34.7686 27.4688 34.9011 26.7667 35.8175 26.5483C36.9342 26.2849 37.5862 26.5106 37.938 26.7452C38.2483 26.9535 38.4557 27.2527 38.5258 27.5926C38.8895 27.7806 40.9316 27.443 42.0329 27.0067C42.4418 26.8427 42.6569 26.1945 42.8649 25.5679C43.0997 24.8635 43.3421 24.1345 43.9311 23.913C44.8933 23.5473 50.2754 21.9469 52.0673 22.4515C53.2161 22.7717 53.5947 23.9047 53.9608 25.0011C54.2003 25.7181 54.4267 26.3956 54.8469 26.8188C55.0026 26.9756 55.087 26.9941 55.0959 26.9864C55.1001 26.9846 55.5315 26.7673 55.4763 23.9693C55.4555 22.5029 60.015 20.9893 61.5335 20.8163C62.614 20.7002 63.7426 21.1731 65.0477 21.7243C65.9315 22.0978 66.9347 22.5209 68.0811 22.8279C69.5247 23.2152 70.8964 22.6388 71.8954 21.9769C69.306 20.8493 66.603 19.9928 63.8514 19.429C63.0484 19.2668 62.2717 19.1327 61.5436 19.031C60.541 18.8808 59.5117 18.77 58.4764 18.7012C56.6144 18.5797 54.7429 18.5845 52.9088 18.7132C49.822 18.9322 46.7422 19.514 43.7564 20.4417C41.8177 21.0432 39.9028 21.7991 38.064 22.6879C38.0533 22.6927 38.042 22.6974 38.0308 22.701C35.9299 23.7221 33.924 24.9203 32.0692 26.2634C31.2294 26.8721 30.4729 27.4628 29.7656 28.0595C30.0206 28.187 30.2542 28.3115 30.474 28.4282Z" fill="#B4D865"/>
<path d="M60.9109 24.358C60.3154 24.4801 59.3193 24.6842 59.2307 24.9577C59.2087 25.0253 59.2747 25.1534 59.4072 25.3006C59.9671 25.9201 61.0832 26.4641 61.9788 26.9016C62.5506 27.1799 63.0444 27.4211 63.3469 27.6492C64.0928 28.2124 64.7965 28.7432 66.1331 28.8336C67.1416 28.9036 68.3719 28.3351 68.6375 27.8419C68.71 27.7072 68.6791 27.633 68.634 27.5732C68.0866 26.8382 66.5372 25.2928 65.2422 25.2061C64.6063 25.163 64.1332 24.9086 63.6756 24.6626C63.2019 24.4076 62.7485 24.1641 62.1096 24.1641C61.9069 24.1641 61.6852 24.1886 61.4386 24.2448C61.2734 24.2838 61.0945 24.3203 60.9109 24.358Z" fill="#B4D865"/>
<path d="M52.2394 30.7538C51.0692 30.0978 48.5166 29.3993 47.6352 30.6676C46.7717 31.9095 44.877 31.9753 43.4923 32.0238C43.2076 32.034 42.9544 32.0429 42.7452 32.0615C42.3839 32.7306 42.0095 33.7278 42.2145 34.0851C42.2365 34.1234 42.2953 34.2251 42.5693 34.2251C42.8742 34.2251 43.2005 34.2084 43.5529 34.1904C43.9612 34.1694 44.4123 34.1467 44.9091 34.1467C46.1453 34.1467 47.6614 34.2885 49.4895 34.9583C51.9815 35.8698 53.1731 34.9008 54.0419 34.1916C54.2066 34.0575 54.3557 33.9366 54.4936 33.8439C54.5412 33.8121 54.5899 33.7589 54.5834 33.6128C54.5554 32.8874 53.2848 31.3379 52.2394 30.7538Z" fill="#B4D865"/>
<path d="M34.7601 34.274C35.2742 34.2974 35.8655 34.3668 36.4372 34.4338C37.5617 34.5661 39.1021 34.748 39.3957 34.3901C39.4148 34.3668 39.4736 34.2956 39.4041 34.0723C39.057 32.9519 35.9345 31.7836 34.706 31.4102C33.6392 31.4149 32.4738 31.6178 32.2812 32.0003C32.2247 32.1122 32.2705 32.2726 32.4185 32.4761C32.7168 32.8873 32.8868 33.2111 33.0223 33.4714C33.3432 34.0843 33.4098 34.2118 34.7601 34.274Z" fill="#B4D865"/>
<path opacity="0.2" d="M97.0308 59.5821V59.7826C97.0249 60.3895 97.0136 61.0425 96.9738 61.6895C96.8603 64.0255 96.5358 66.3908 96.0128 68.7154C95.1148 72.7463 93.6248 76.6055 91.5952 80.19C90.7935 81.5983 89.9347 82.9323 89.042 84.1521C86.7111 87.3643 83.9761 90.1869 80.8774 92.5749C79.848 93.3709 78.7735 94.1155 77.6651 94.8139C76.4771 95.5585 75.2599 96.2342 74.0546 96.8351C73.5655 97.0811 73.0425 97.3277 72.4512 97.591C72.0363 97.7741 71.6209 97.9573 71.2114 98.1177C70.188 98.5355 69.085 98.9311 67.9421 99.2914C63.9566 100.528 59.857 101.152 55.7349 101.152C55.4621 101.152 55.1946 101.146 54.9219 101.141C53.1764 101.101 51.4249 100.952 49.7139 100.694C48.3208 100.488 46.854 100.19 45.37 99.8013C44.6307 99.6008 44.0394 99.429 43.4938 99.2519C41.504 98.6276 39.5362 97.8436 37.6434 96.9099C36.8927 96.5436 36.1593 96.154 35.4373 95.7416C30.3886 92.8616 25.9651 88.9276 22.5478 84.2443C21.979 83.4656 21.4334 82.6696 20.9389 81.8736C20.2739 80.8142 19.654 79.7148 19.0853 78.5926C18.7893 78.0144 18.4999 77.4243 18.2324 76.8347C18.2265 76.8234 18.2212 76.812 18.2152 76.806C18.0387 76.4224 17.8568 76.016 17.6809 75.5809C17.6809 75.5695 17.675 75.5635 17.6696 75.5521C17.3737 74.8363 17.0783 74.0636 16.7996 73.2563C16.6403 72.7924 16.4869 72.3232 16.3449 71.848C16.1006 71.0633 15.9069 70.3708 15.7536 69.7239C15.7536 69.7179 15.7476 69.7065 15.7476 69.7011L15.7304 69.6323C15.6906 69.4719 15.6507 69.3001 15.6222 69.1397C14.7408 65.4583 14.3771 61.6619 14.5364 57.8656C14.6273 55.6152 14.9061 53.3361 15.3779 51.1037C15.6341 49.8552 15.9521 48.6187 16.3502 47.3247C16.8958 45.5609 17.5555 43.8264 18.3174 42.1602C18.7893 41.1409 19.2671 40.1905 19.7901 39.2688C22.2007 34.9284 25.3167 31.1093 29.0638 27.9145V27.9091C29.8768 27.2047 30.7523 26.5176 31.7359 25.8017C32.1109 25.5324 32.4918 25.2637 32.8787 25.0117C32.6172 25.4013 32.3498 25.8251 32.0717 26.2656C31.6283 26.9641 31.173 27.7313 30.7012 28.5501C30.6043 28.7159 30.5134 28.8823 30.4171 29.0481C26.6586 35.6957 22.2577 45.7333 20.9502 55.6847C20.9217 55.8738 20.8991 56.0623 20.8765 56.2574C20.5865 58.6622 20.4843 61.0617 20.615 63.403C20.6662 64.308 20.7571 65.2009 20.8825 66.0885C21.0186 67.039 21.1951 67.978 21.4227 68.8997C21.4851 69.1343 21.5422 69.3636 21.6046 69.5928C22.8271 73.9846 25.1925 77.9641 29.1209 81.1362C31.0714 82.7109 33.1236 84.0222 35.2441 85.1043C35.4319 85.1959 35.6138 85.2934 35.8016 85.379C36.9843 85.9572 38.1895 86.4557 39.4061 86.8909C39.7187 87.0052 40.0313 87.1081 40.3445 87.2117C52.6884 91.2312 66.6013 88.4428 77.006 82.3907C77.1825 82.2877 77.3584 82.1842 77.529 82.0813C79.4225 80.9477 81.1906 79.7052 82.8053 78.3765C83.1524 78.0904 83.4935 77.8037 83.8287 77.5063C84.7951 76.6588 85.6996 75.7772 86.5293 74.8668C86.6713 74.7178 86.808 74.5634 86.9447 74.409C88.7699 72.3477 90.2366 70.1488 91.2547 67.887C91.6695 66.9653 92.0053 66.0149 92.2668 65.0411C92.3179 64.8466 92.369 64.6461 92.4089 64.4516C94.2738 56.5327 91.4651 47.1769 87.9117 39.4184C87.832 39.2406 87.747 39.0635 87.6674 38.8857C86.877 37.1967 86.0527 35.582 85.245 34.0875C83.5565 30.9729 81.9186 28.3502 80.6961 26.5062C80.8155 26.5918 80.935 26.6839 81.0545 26.7755C82.5498 27.9264 83.9939 29.2264 85.3644 30.6407C89.401 34.8147 92.46 39.7165 94.4729 45.2018L94.5014 45.2994C94.5698 45.4825 94.6381 45.6656 94.7059 45.8548C94.7118 45.8721 94.7172 45.8835 94.7172 45.9008C94.8818 46.3761 95.0411 46.8513 95.1837 47.3265C95.428 48.1279 95.6609 48.97 95.8886 49.9031C95.8945 49.9144 95.8945 49.9258 95.8945 49.9318C96.1388 50.9564 96.3266 51.9075 96.4799 52.8292C96.843 55.0472 97.0308 57.3204 97.0308 59.5821Z" fill="#7EB7C2"/>
<path d="M28.8381 67.8216C28.3603 66.9227 27.6382 66.2182 27.007 65.594C26.7283 65.3193 26.4668 65.0673 26.2451 64.8093C26.0175 64.5574 25.8588 64.2025 25.7161 63.893C25.5058 63.4292 25.3067 62.9941 24.9031 62.9085C24.6357 62.851 24.3575 62.9713 24.039 63.2634C23.4304 63.8188 23.8173 66.8018 24.6589 68.0275C25.4267 69.1383 24.6137 70.7819 24.3748 70.9877C24.244 71.1021 24.1929 71.2852 24.2327 71.5318C24.3409 72.2817 25.2906 73.8678 26.103 74.234C26.4157 74.3717 26.9274 74.4459 27.4848 74.4459C28.2242 74.4459 29.0425 74.3143 29.5774 74.0449C29.9245 73.8672 30.1349 73.6385 30.1913 73.3632C30.413 72.3619 29.4752 69.0067 28.8381 67.8216ZM29.6398 73.2381C29.6172 73.3357 29.5031 73.4386 29.3213 73.5356C28.5594 73.9192 26.9161 73.9707 26.336 73.7074C25.6537 73.4039 24.7611 71.7604 24.7837 71.3828C25.2383 70.9249 26.0288 69.0121 25.1248 67.7007C24.3058 66.5043 24.1584 63.996 24.4253 63.6812C24.6696 63.4579 24.7724 63.4633 24.789 63.4693C24.9138 63.492 25.079 63.8643 25.1985 64.1276C25.3578 64.4772 25.5396 64.8722 25.8184 65.1924C26.0573 65.4617 26.3241 65.7251 26.6088 66.0052C27.2459 66.6234 27.8997 67.2704 28.3371 68.0951C28.9974 69.3275 29.7991 72.5056 29.6398 73.2381Z" fill="#1F2E30"/>
<path d="M40.9619 88.1436C40.8252 87.8976 40.5982 87.5654 40.342 87.2105C39.8475 86.5174 39.2277 85.722 38.8693 85.2522C38.716 85.0576 38.6078 84.92 38.5852 84.8859C38.3635 84.5537 36.8397 84.3933 36.271 84.4735C35.9922 84.5136 35.6172 84.777 35.2416 85.1031C34.633 85.6472 34.0304 86.3684 33.8598 86.5749C33.8539 86.5922 33.8426 86.6036 33.8313 86.6209C33.7855 86.7065 33.3535 87.5026 33.524 88.1214C33.6833 88.7169 34.0357 89.5417 35.2012 89.805C35.6107 89.9026 36.0029 89.9026 36.3839 89.8966C37.0549 89.9079 37.4982 89.9139 37.7942 90.2802C38.2435 90.8416 39.466 91.8148 40.1536 91.8148C40.1934 91.8148 40.2273 91.8148 40.2618 91.8094C40.4436 91.7753 40.5857 91.6604 40.6481 91.4886L40.6879 91.3857C40.9334 90.7088 41.5193 89.1167 40.9619 88.1436ZM40.1548 91.1894L40.1322 91.2468C39.8309 91.2468 38.7677 90.5825 38.2334 89.9181C37.7728 89.3454 37.1078 89.3226 36.4594 89.3226H36.3857C36.0332 89.3226 35.6749 89.3286 35.3284 89.2484C34.4755 89.0539 34.2194 88.5212 34.072 87.9718C33.9864 87.651 34.22 87.1129 34.3222 86.9238C34.7887 86.351 35.3628 85.7501 35.8003 85.3778C36.0332 85.1833 36.2323 85.057 36.3518 85.0403C36.9033 84.9541 37.9208 85.1432 38.143 85.2462C38.1942 85.309 38.291 85.4353 38.4218 85.6071C38.666 85.9219 39.0417 86.4031 39.4054 86.8897C39.8374 87.4678 40.2582 88.0633 40.4686 88.4296C40.8935 89.1682 40.3533 90.6339 40.1548 91.1894Z" fill="#1F2E30"/>
<path d="M73.6194 87.6886C73.6081 87.6544 73.5908 87.6197 73.5683 87.5856C73.5171 87.5168 72.9995 86.8872 71.4531 87.1164C70.7649 87.2193 69.7985 87.4659 68.866 87.7005C67.9163 87.9411 66.9274 88.1871 66.5916 88.1871C66.4151 88.1871 66.2053 88.141 65.9777 88.0842C65.3637 87.9411 64.5275 87.7466 63.7145 88.3936C62.7422 89.1609 57.4719 92.3503 57.4148 92.3791C57.3411 92.4252 57.2953 92.5054 57.284 92.5909C57.2728 92.6765 57.2953 92.7627 57.3577 92.8256C57.4201 92.8884 58.859 94.4002 60.4963 94.6977C60.7239 94.7378 60.9397 94.7552 61.1447 94.7552C62.2418 94.7552 62.9871 94.2398 63.2201 94.0507C63.982 93.9478 66.8876 93.0488 67.9906 92.5275C68.4851 92.2929 68.7299 92.0697 68.9403 91.8745C69.2529 91.5825 69.5031 91.3592 70.6121 91.1934C71.1298 91.1132 71.607 91.0558 72.0224 91.0103C73.3757 90.8499 74.1263 90.7583 74.1263 90.1915C74.1251 89.7385 73.6705 87.9004 73.6194 87.6886ZM71.9589 90.4429C71.5327 90.4884 71.049 90.5459 70.526 90.6261C69.2464 90.8152 68.9112 91.124 68.5588 91.4508C68.3656 91.6285 68.1606 91.8117 67.7458 92.0122C66.5233 92.5903 63.4643 93.4839 63.1059 93.4839C63.0376 93.4839 62.9639 93.5127 62.9128 93.5641C62.9069 93.5701 62.0088 94.3943 60.5985 94.1369C59.524 93.9364 58.4947 93.1063 58.0287 92.6765C59.2055 91.9667 63.1969 89.5272 64.061 88.8461C64.6636 88.3649 65.2663 88.5085 65.8463 88.6456C66.1078 88.703 66.3521 88.7599 66.591 88.7599C67.0005 88.7599 67.927 88.5253 69.0015 88.2559C69.9227 88.0267 70.8778 87.7867 71.5375 87.6832C72.5496 87.5342 72.9763 87.8089 73.0839 87.9064C73.2658 88.6396 73.5273 89.8073 73.5504 90.1508C73.3745 90.2711 72.6239 90.3627 71.9589 90.4429Z" fill="#1F2E30"/>
<path d="M87.9779 76.7639C87.9095 76.3114 87.5512 74.8056 86.9432 74.4052C86.8463 74.3364 86.7441 74.3023 86.6359 74.3023C86.5622 74.2963 86.3287 74.1706 86.1581 74.0844C85.6006 73.7869 84.9071 73.426 84.4185 73.7067C84.157 73.8558 84.0203 74.1478 83.9978 74.577C83.9294 76.1403 83.429 77.308 82.9744 77.6515C82.6445 77.9035 80.6886 78.5445 79.5232 78.9281C78.4599 79.2717 78.1812 79.3692 78.0849 79.4321C77.8288 79.6038 76.5611 80.4968 76.4529 81.3617C76.4191 81.631 76.4987 81.883 76.6806 82.0829C76.7715 82.1804 76.8796 82.2834 77.0045 82.3863C77.8745 83.1189 79.3984 83.8347 79.4721 83.8694C79.5119 83.8868 79.5517 83.8921 79.5915 83.8921C79.6824 83.8921 81.8374 83.8862 82.7586 83.1135C83.3101 82.6496 83.4409 82.3522 83.5942 82.0086C83.6964 81.7794 83.81 81.5161 84.0887 81.127C84.5552 80.4687 85.9251 79.7529 86.7441 79.3291C87.1702 79.1059 87.3978 78.9856 87.5173 78.894C87.9719 78.5277 88.1312 77.7892 87.9779 76.7639ZM87.1589 78.4475C87.0793 78.5104 86.7892 78.6594 86.4879 78.8198C85.5667 79.301 84.1737 80.0222 83.6222 80.7955C83.3149 81.2306 83.1788 81.534 83.076 81.7746C82.9339 82.0894 82.843 82.2959 82.3937 82.6736C81.7851 83.1835 80.2672 83.3152 79.6533 83.3206C79.3918 83.1943 78.2602 82.6395 77.5269 82.0781C77.3563 81.9518 77.2142 81.8261 77.1007 81.7004C77.0324 81.6202 77.0039 81.5346 77.0158 81.4311C77.0728 80.9559 77.8745 80.2628 78.3862 79.9193C78.4831 79.8678 79.1024 79.6673 79.6997 79.4728C80.9959 79.0436 82.1447 78.6654 82.8044 78.3733C83.0433 78.2757 83.2192 78.1842 83.3161 78.11C83.4979 77.9669 83.6744 77.7604 83.8278 77.5031C84.2373 76.816 84.516 75.7566 84.5671 74.6057C84.5784 74.3878 84.6242 74.2448 84.7038 74.2047C84.7377 74.182 84.7775 74.176 84.8292 74.176C85.1133 74.176 85.6083 74.4393 85.8978 74.5884C86.1878 74.7428 86.381 74.8403 86.5289 74.8631C86.5575 74.8744 86.586 74.8744 86.6086 74.8744C86.6145 74.8744 86.6145 74.8744 86.6145 74.8744C86.819 74.9433 87.2683 75.8763 87.4163 76.8495C87.5286 77.6288 87.4376 78.2243 87.1589 78.4475Z" fill="#1F2E30"/>
<path d="M96.4793 52.8256C96.326 51.9039 96.1382 50.9534 95.8939 49.9282C95.8939 49.9222 95.8939 49.9108 95.888 49.8994C95.6603 48.9664 95.4274 48.1243 95.1831 47.3229C95.0411 46.8477 94.8818 46.3724 94.7166 45.8972C94.7166 45.8799 94.7106 45.8685 94.7053 45.8512C94.6369 45.662 94.5686 45.4789 94.5008 45.2957L94.4723 45.1982C92.4594 39.7129 89.4004 34.8117 85.3638 30.6371C83.9933 29.2228 82.5492 27.9228 81.0539 26.7719C80.9344 26.6803 80.815 26.5888 80.6955 26.5026C78.1994 24.5844 75.4762 22.9528 72.5879 21.6583C69.8243 20.4098 66.9193 19.4707 63.9626 18.8638C63.1496 18.7034 62.3651 18.5664 61.6204 18.4628C60.6142 18.3084 59.5676 18.1995 58.5103 18.1247C57.5666 18.0672 56.6228 18.0391 55.6844 18.0391C54.7406 18.0391 53.8022 18.0732 52.8697 18.1366C49.7424 18.3599 46.6157 18.95 43.5907 19.8944C41.6348 20.5013 39.7015 21.2626 37.8478 22.1562C37.8365 22.1562 37.8252 22.1622 37.8139 22.1676C36.0969 23.0037 34.4424 23.9541 32.8787 25.0075C32.4924 25.2595 32.1109 25.5288 31.7359 25.7975C30.7523 26.5133 29.8768 27.2004 29.0638 27.9049V27.9103C25.3173 31.1051 22.2013 34.9248 19.7901 39.2646C19.2671 40.1863 18.7893 41.1367 18.3174 42.156C17.5555 43.8222 16.8958 45.5573 16.3502 47.3205C15.9521 48.6145 15.6341 49.8516 15.3779 51.0995C14.9061 53.3325 14.6273 55.6116 14.5364 57.8614C14.3771 61.6577 14.7408 65.4541 15.6222 69.1355C15.6507 69.2959 15.6906 69.4677 15.7304 69.6281L15.7476 69.6969C15.7476 69.7029 15.7536 69.7143 15.7536 69.7196C15.9069 70.3666 16.1006 71.0597 16.3449 71.8438C16.4869 72.319 16.6403 72.7882 16.7996 73.252C17.0783 74.0594 17.3737 74.8327 17.6696 75.5479C17.6756 75.5593 17.6809 75.5653 17.6809 75.5766C17.8574 76.0118 18.0393 76.4181 18.2152 76.8018C18.2206 76.8072 18.2265 76.8191 18.2324 76.8305C18.4999 77.4201 18.7899 78.0102 19.0853 78.5883C19.654 79.7105 20.2733 80.81 20.9389 81.8694C21.4334 82.6654 21.9796 83.4614 22.5478 84.2401C25.9651 88.924 30.3886 92.8574 35.4373 95.7374C36.1593 96.1498 36.8927 96.5388 37.6434 96.9057C39.5368 97.8388 41.504 98.6234 43.4938 99.2476C44.0394 99.4254 44.6307 99.5972 45.37 99.7971C46.854 100.187 48.3208 100.484 49.7139 100.69C51.4255 100.947 53.1764 101.096 54.9219 101.137C55.1946 101.143 55.4621 101.148 55.7349 101.148C59.857 101.148 63.9566 100.524 67.9421 99.2871C69.085 98.9262 70.188 98.5312 71.2114 98.1135C71.6209 97.9531 72.0357 97.7699 72.4512 97.5868C73.0425 97.3234 73.5655 97.0774 74.0546 96.8309C75.2599 96.23 76.4771 95.5543 77.6651 94.8097C78.7741 94.1113 79.8486 93.3667 80.8774 92.5707C83.9761 90.1832 86.7111 87.3601 89.042 84.1479C89.9347 82.9281 90.7935 81.594 91.5952 80.1857C93.6248 76.6013 95.1148 72.7421 96.0128 68.7112C96.5358 66.3866 96.8603 64.0219 96.9738 61.6853C97.0136 61.0383 97.0249 60.3853 97.0308 59.7784V59.5779C97.0308 57.3204 96.843 55.0472 96.4793 52.8256ZM32.0717 26.2638C33.9253 24.9183 35.9323 23.7213 38.0302 22.702C38.0415 22.6961 38.0528 22.6907 38.0641 22.6847C39.9065 21.7971 41.8166 21.0412 43.7553 20.4403C46.7459 19.5126 49.822 18.9344 52.9095 18.7112C54.7459 18.5855 56.6168 18.5795 58.4759 18.6998C59.5106 18.7686 60.5399 18.883 61.5461 19.032C62.2741 19.1349 63.0473 19.2666 63.8544 19.427C66.6061 19.9938 69.3072 20.8473 71.8943 21.9749C70.8994 22.6392 69.5236 23.2174 68.0847 22.8277C66.9359 22.5183 65.9298 22.0946 65.0484 21.7229C63.7409 21.1734 62.6147 20.6976 61.5348 20.8179C60.0169 20.9897 55.4567 22.5015 55.4793 23.9673C55.5304 26.7671 55.0984 26.985 55.0984 26.985C55.0871 26.9963 55.0015 26.9736 54.8482 26.8192C54.4274 26.3954 54.1998 25.7197 53.9609 24.9985C53.5971 23.9051 53.2162 22.7709 52.0674 22.4507C50.2761 21.9467 44.8922 23.5501 43.9312 23.9104C43.3458 24.1337 43.1009 24.8609 42.868 25.5653C42.6576 26.1949 42.4418 26.8419 42.0324 27.0083C40.9353 27.4434 38.8884 27.7816 38.5241 27.5925C38.4558 27.2549 38.2513 26.9515 37.9387 26.745C37.5863 26.5104 36.9326 26.2871 35.8182 26.5505C34.903 26.7683 34.7722 27.4722 34.6641 28.0336C34.5446 28.6692 34.4596 29.133 33.4873 29.2186C32.2707 29.3215 31.5998 29.0241 30.7012 28.5489C30.6275 28.5088 30.5532 28.4687 30.4735 28.4286C30.2572 28.3143 30.0242 28.188 29.7687 28.0623C30.4735 27.4602 31.2301 26.8707 32.0717 26.2638ZM18.7382 76.5708C18.7323 76.5594 18.7269 76.542 18.721 76.5307C18.5445 76.1584 18.3739 75.7748 18.2206 75.3911C18.2152 75.3797 18.2152 75.3684 18.2093 75.357C17.9079 74.6472 17.6179 73.8799 17.3392 73.0665C17.1799 72.614 17.0266 72.1502 16.8845 71.675C16.6516 70.9131 16.4638 70.238 16.3104 69.6077C16.3104 69.6017 16.3104 69.5904 16.3051 69.579L16.2825 69.4934C16.2486 69.339 16.2088 69.184 16.1743 69.0242C15.3102 65.3769 14.9465 61.632 15.1052 57.8871C15.1907 55.6655 15.4689 53.4265 15.9354 51.2168C16.1856 49.9916 16.4982 48.7719 16.8905 47.4952C17.4307 45.7548 18.0845 44.0425 18.8351 42.399C19.2386 41.5227 19.654 40.6986 20.0915 39.8966C20.6032 40.5208 21.0352 41.3055 20.7054 41.9692C19.83 43.733 19.5399 45.6339 19.6136 46.4185C19.6422 46.7393 19.8525 47.2947 20.12 47.9992C20.4498 48.864 20.9045 50.0545 20.8248 50.4956C20.785 50.7362 20.353 51.4975 19.9322 52.236C19.4544 53.0775 18.9201 54.028 18.5736 54.83C18.255 55.5745 17.9597 56.4675 18.5451 56.8056C19.1079 57.1264 19.6766 56.811 20.1372 56.5537C20.4047 56.4046 20.6662 56.2676 20.8765 56.2562C20.9277 56.2502 20.9675 56.2562 21.0132 56.2676C21.1553 56.3077 21.292 56.4507 21.4227 56.6913C22.2417 58.2032 22.2417 59.2793 22.2417 60.4188C22.2417 60.8312 21.7811 61.5351 21.3437 62.2168C21.0875 62.6118 20.832 63.0128 20.6156 63.4018C20.2632 64.0601 20.0528 64.6958 20.2406 65.2398C20.3773 65.6348 20.6216 65.8982 20.8831 66.0873C21.0709 66.2303 21.27 66.3333 21.4518 66.4249C21.9635 66.6942 22.3047 66.866 22.2423 67.553C22.1739 68.2862 21.9237 68.4861 21.6337 68.7213C21.5654 68.7788 21.4917 68.8357 21.4233 68.8991C21.2129 69.0936 21.0198 69.357 20.9627 69.8328C20.832 70.8694 21.6111 72.6326 22.2138 73.8697L22.2762 74.0014C22.5834 74.637 22.8616 78.6105 22.3843 78.9259C21.9635 79.1779 21.5772 79.9392 21.122 81.0847C20.2335 79.6285 19.4318 78.1167 18.7382 76.5708ZM23.1563 84.106C23.6056 83.6996 24.2481 83.2298 24.6118 83.5392C25.0213 83.8941 25.3054 84.2377 25.5782 84.5758C25.9538 85.0283 26.3003 85.4574 26.8577 85.7268C27.4033 85.9961 28.0178 85.7327 28.5634 85.5035C29.0412 85.2976 29.4959 85.1025 29.7972 85.2857C30.5989 85.7782 31.2984 86.7574 31.0595 87.8395C30.9514 88.3321 30.7642 88.6529 30.6162 88.9102C30.3886 89.2999 30.1496 89.7062 30.6221 90.2389C31.1279 90.8171 31.3044 90.9888 31.7252 91.4186L31.9183 91.6131C31.9867 91.6759 32.055 91.7507 32.1346 91.8309C32.7088 92.4378 33.5729 93.3482 34.6082 93.0447C35.3303 92.8388 36.1891 92.9872 36.5189 93.0621C36.7121 93.6121 37.3717 95.553 37.531 96.1366C37.537 96.1593 37.5423 96.1881 37.5423 96.2222C31.8726 93.3649 26.9142 89.1849 23.1563 84.106ZM77.3638 94.3267C76.1924 95.0599 74.993 95.7296 73.7991 96.3251C73.3212 96.5657 72.8042 96.8063 72.2182 97.0697C71.8147 97.2474 71.4111 97.4246 71.0016 97.585C69.9842 97.9974 68.8978 98.3864 67.7721 98.7473C63.7124 100.001 59.5278 100.614 55.326 100.574C55.7468 99.4918 56.5711 98.3523 58.2031 98.3523C60.9262 98.3523 63.3201 97.8711 64.5997 97.6077C64.8612 97.5563 65.0662 97.5162 65.2136 97.4934C66.0837 97.3444 69.0285 94.7792 69.7167 94.1669C70.1601 94.0125 73.0312 92.9986 74.1063 92.4546C74.2769 92.369 74.5384 92.2427 74.8623 92.0883C77.8077 90.6854 80.5992 89.2484 81.0598 88.2519C81.2363 87.8736 81.2761 87.4618 81.3154 87.0668C81.4176 86.0703 81.4972 85.2803 83.5387 85.0169C84.5223 84.8852 85.5005 84.7422 86.4384 84.6046C87.041 84.519 87.6264 84.4328 88.1839 84.3586C85.1873 88.3434 81.5543 91.6987 77.3638 94.3267ZM91.1008 79.9033C90.3329 81.2601 89.5086 82.5373 88.6557 83.7164C87.9396 83.8079 87.1658 83.9223 86.3587 84.0372C85.4262 84.1748 84.4426 84.3179 83.4644 84.4495C80.9742 84.7703 80.8488 86.0128 80.7525 87.0034C80.7127 87.3697 80.6789 87.7192 80.5422 88.0113C80.1042 88.9563 76.2607 90.7883 74.6234 91.573C74.2935 91.7274 74.0261 91.8537 73.8502 91.9452C72.7418 92.5007 69.5123 93.6342 69.4778 93.6456C69.4439 93.657 69.4095 93.6797 69.3869 93.7031C68.0336 94.9001 65.6796 96.8297 65.1167 96.9266C64.9688 96.9494 64.753 96.9955 64.4915 97.0469C63.2238 97.3049 60.8698 97.7801 58.2031 97.7801C56.5824 97.7801 55.3599 98.7706 54.7346 100.563C53.0801 100.517 51.4202 100.374 49.7995 100.128C48.4236 99.9275 46.9794 99.6301 45.518 99.2464C44.79 99.0519 44.2046 98.8802 43.6643 98.7084C41.7655 98.1129 39.8893 97.3629 38.0808 96.4867C38.1093 96.3036 38.1146 96.1318 38.0808 95.9888C37.8876 95.2903 37.0401 92.828 37.0062 92.7251C36.9777 92.6335 36.904 92.5647 36.8131 92.542C36.762 92.5306 35.5169 92.1924 34.4537 92.4959C33.7429 92.7018 33.0493 91.9692 32.5429 91.4365C32.4633 91.3563 32.3896 91.2761 32.3213 91.2073L32.1281 91.0128C31.7133 90.595 31.5427 90.4232 31.0476 89.8618C30.8545 89.644 30.8771 89.5925 31.1047 89.1975C31.264 88.9228 31.4857 88.5445 31.6105 87.9664C31.9118 86.6036 31.0649 85.3952 30.0866 84.7943C29.5464 84.4681 28.904 84.7368 28.3411 84.9774C27.8693 85.1779 27.42 85.367 27.1073 85.212C26.664 84.9942 26.3799 84.6506 26.0156 84.2101C25.7428 83.872 25.4242 83.4883 24.9809 83.1053C24.6112 82.7845 23.9402 82.6414 22.8205 83.6433C22.354 82.9964 21.9107 82.3434 21.4958 81.685C21.7633 80.9866 22.2863 79.6525 22.6726 79.4179C23.6508 78.8397 23.0309 74.2647 22.7861 73.7548L22.7177 73.6171C22.3938 72.9414 21.4043 70.8915 21.5238 69.907C21.541 69.7753 21.5689 69.6724 21.6034 69.5922C21.689 69.409 21.8191 69.3061 21.9844 69.1684C22.3142 68.9051 22.7177 68.5843 22.8033 67.6051C22.9002 66.5404 22.2405 66.1908 21.7116 65.9161C21.3134 65.7102 20.9384 65.5151 20.7791 65.0513C20.5687 64.4498 21.2337 63.4311 21.8138 62.5262C22.3481 61.7074 22.8087 61.003 22.8087 60.4188C22.8087 59.2565 22.8087 58.0595 21.916 56.4166C21.7116 56.033 21.4667 55.8037 21.1713 55.7182C21.0976 55.6954 21.0233 55.684 20.9497 55.684C20.5687 55.6613 20.199 55.8672 19.8638 56.0563C19.3919 56.3143 19.0906 56.4627 18.8232 56.3083C18.8232 56.3083 18.6241 56.1539 19.096 55.0598C19.4258 54.2811 19.9548 53.3475 20.4267 52.5233C21.0008 51.504 21.3306 50.9145 21.3877 50.5937C21.4845 50.0383 21.1434 49.0819 20.6543 47.7939C20.4326 47.2098 20.205 46.6089 20.1764 46.3683C20.114 45.6698 20.3981 43.8719 21.2111 42.2284C21.4952 41.6616 21.5636 40.7111 20.3868 39.3711C22.7177 35.2198 25.7143 31.5552 29.2962 28.4693C29.6314 28.6297 29.9327 28.7901 30.2061 28.9331C30.2744 28.9732 30.3481 29.0073 30.4165 29.0474C31.2295 29.4766 31.9403 29.8087 33.0261 29.8087C33.1854 29.8087 33.356 29.8027 33.5378 29.786C34.9362 29.6657 35.1015 28.7841 35.2209 28.1425C35.3344 27.547 35.4141 27.2322 35.949 27.1059C36.8642 26.888 37.3646 27.0484 37.6261 27.2202C37.8823 27.398 37.956 27.6152 37.9732 27.7301C37.9958 27.8732 38.0867 27.9994 38.2288 28.0796C38.9396 28.486 41.4868 27.839 42.2428 27.5416C42.8965 27.2782 43.158 26.4996 43.4029 25.7491C43.596 25.1709 43.7951 24.5754 44.1309 24.4491C45.2226 24.0367 50.3682 22.5656 51.9146 23.0001C52.7734 23.2407 53.0914 24.1852 53.4212 25.1817C53.6714 25.9316 53.9329 26.7049 54.4446 27.2256C54.7519 27.535 55.0473 27.632 55.32 27.5117C55.6897 27.3573 56.1045 26.8072 56.0481 23.9619C56.0368 23.1605 59.63 21.6086 61.5972 21.3853C62.5237 21.2764 63.5418 21.7115 64.8267 22.2502C65.7307 22.6338 66.7487 23.063 67.9368 23.3838C69.813 23.8817 71.5532 22.9373 72.5023 22.2502C75.4192 23.5729 78.1655 25.2391 80.6729 27.2028C81.6565 28.7601 82.4808 30.1002 83.1179 31.1763C84.0504 32.751 84.7041 33.541 85.2444 34.0851C85.4488 34.2915 85.6366 34.4627 85.8185 34.6231C86.3587 35.1097 86.8247 35.5281 87.5069 36.7071C88.4109 38.2758 88.1833 38.511 87.6662 38.8827C87.6549 38.8941 87.6377 38.9055 87.6204 38.9168C87.3364 39.1227 86.978 39.3807 86.7106 39.8559C86.5739 40.0965 86.4431 40.3137 86.3183 40.5202C85.7727 41.4306 85.3745 42.0949 85.5392 43.2859C85.727 44.5799 87.1426 45.3646 87.5349 45.5591C87.7227 45.9487 88.4501 47.5114 88.7746 48.4852C88.8828 48.806 89.0819 49.2297 89.3374 49.7738C90.0138 51.1994 91.0372 53.3582 91.0372 55.2651C91.0372 56.8972 89.593 58.7867 88.5357 60.1609C87.8023 61.1227 87.4499 61.5979 87.4665 61.9588C87.4838 62.4969 88.2623 62.8805 89.5532 63.5275C90.3947 63.9452 91.3842 64.4378 92.265 65.0393C92.6002 65.2685 92.9247 65.5205 93.2147 65.7839C93.9826 66.4883 94.7273 67.4728 95.4321 68.704C94.5407 72.6314 93.0852 76.405 91.1008 79.9033ZM96.4056 61.6607C96.3034 63.728 96.036 65.818 95.6152 67.8846C94.9727 66.8426 94.2958 66.0011 93.5969 65.3595C93.2332 65.0274 92.8296 64.7239 92.4089 64.4492C91.5447 63.8764 90.6063 63.4126 89.8046 63.0122C89.0765 62.6513 88.0876 62.1587 88.0365 61.9414C88.0424 61.7523 88.5708 61.0652 88.9915 60.5098C90.0946 59.0668 91.6071 57.0917 91.6071 55.2651C91.6071 53.2325 90.5492 51.0049 89.8557 49.5278C89.6168 49.0238 89.4123 48.5887 89.3154 48.3026C88.9345 47.1577 88.0418 45.2963 88.0079 45.2221C87.9794 45.1593 87.9283 45.1078 87.8659 45.0845C87.8487 45.0731 86.2737 44.3633 86.1032 43.201C85.9665 42.2158 86.2624 41.7178 86.808 40.8189C86.9334 40.613 87.0636 40.3892 87.2062 40.1378C87.3994 39.8002 87.6609 39.5997 87.9111 39.4166C87.9283 39.4052 87.9396 39.3938 87.9568 39.3825C88.7241 38.8211 89.111 38.3405 87.9967 36.4163C87.2686 35.1624 86.7456 34.6926 86.1941 34.1946C85.5629 33.6218 84.8468 32.9748 83.607 30.8848C83.169 30.1403 82.6407 29.2761 82.0381 28.3023C83.0389 29.1498 84.0165 30.0661 84.9603 31.0393C88.9345 35.1564 91.9536 39.9828 93.938 45.3939L93.9666 45.4854C94.0349 45.6686 94.0973 45.8463 94.1656 46.0349C94.1656 46.0403 94.171 46.0463 94.171 46.0522C94.3362 46.5388 94.4949 47.014 94.6429 47.4952C94.8818 48.2739 95.1088 49.104 95.3311 50.0203C95.3311 50.0263 95.3364 50.0317 95.3364 50.0431C95.5754 51.0624 95.7685 52.0014 95.9165 52.9177C96.2915 55.1735 96.474 57.4813 96.4621 59.7772C96.4567 60.3781 96.4454 61.0191 96.4056 61.6607Z" fill="#1F2E30"/>
<path d="M87.3799 52.1377C87.3461 52.0976 87.3003 52.0576 87.2492 52.0402C87.1868 52.0175 85.7081 51.4501 84.7132 51.9426C84.3269 52.1372 84.0648 52.458 83.94 52.8931C83.6161 53.9925 83.3945 54.3989 83.0646 55.0118C82.9166 55.2811 82.7461 55.5846 82.547 55.9963C82.1262 56.8666 81.1884 57.2101 79.8916 57.6853C79.3912 57.8685 78.8224 58.0803 78.2198 58.3437C77.4579 58.6759 77.3384 59.1337 77.3723 59.4545C77.4971 60.6108 79.8624 61.7618 80.2719 61.8426C80.3343 61.8599 80.471 61.8653 80.6469 61.8653C81.6876 61.8653 84.3145 61.6481 84.6497 61.4188C85.1501 61.0867 85.997 57.3651 86.0992 56.8498C86.2638 56.0137 86.662 55.7964 87.1624 55.5271C87.4186 55.3841 87.6914 55.235 87.9416 54.9944C88.7956 54.1823 87.5279 52.3442 87.3799 52.1377ZM87.5505 54.5827C87.3573 54.7718 87.1297 54.8921 86.8908 55.0238C86.3619 55.3099 85.7592 55.6366 85.5435 56.7361C85.2249 58.3335 84.5373 60.7042 84.3555 60.9334C84.0084 61.0938 80.8187 61.3685 80.3813 61.2829C80.0574 61.2201 78.0159 60.138 77.9422 59.3995C77.9196 59.2049 78.0902 59.0272 78.4486 58.8728C79.034 58.6148 79.5968 58.4089 80.0859 58.2258C81.4564 57.7218 82.5363 57.3268 83.0599 56.2501C83.253 55.8491 83.4182 55.5516 83.5603 55.2883C83.9014 54.6641 84.1457 54.2176 84.4868 53.0553C84.5664 52.7746 84.7257 52.5801 84.9646 52.4598C85.1804 52.3508 85.4365 52.3167 85.6927 52.3167C86.227 52.3167 86.7731 52.4825 86.9722 52.5459C87.3461 53.1055 87.9255 54.2218 87.5505 54.5827Z" fill="#1F2E30"/>
<path d="M69.0911 27.2316C68.6133 26.59 66.8909 24.7406 65.2815 24.6323C64.7645 24.5982 64.3663 24.3863 63.9455 24.1571C63.2858 23.8022 62.5411 23.4011 61.3133 23.6872C61.1487 23.7214 60.9781 23.7615 60.7956 23.7962C59.812 23.9967 58.8796 24.1912 58.6918 24.7807C58.5949 25.0614 58.6971 25.3649 58.9871 25.6857C59.6183 26.3901 60.7897 26.9569 61.7275 27.4147C62.2505 27.6727 62.7456 27.9127 63.0071 28.1078C63.7862 28.6974 64.588 29.3042 66.0945 29.4078C66.1629 29.4078 66.2253 29.4138 66.2936 29.4138C67.4252 29.4138 68.7612 28.8123 69.1363 28.1138C69.3015 27.8104 69.2848 27.4949 69.0911 27.2316ZM68.6364 27.8385C68.369 28.3364 67.1411 28.9032 66.135 28.835C64.7989 28.7434 64.0941 28.2108 63.3488 27.65C63.0416 27.4207 62.553 27.1807 61.9783 26.9C61.0797 26.4649 59.9654 25.9209 59.4085 25.3026C59.2718 25.1536 59.2094 25.0279 59.2326 24.9591C59.3176 24.6844 60.3131 24.4779 60.9097 24.3582C61.0916 24.3181 61.2735 24.284 61.4387 24.2439C61.6889 24.1864 61.9052 24.1637 62.1097 24.1637C62.7468 24.1637 63.2014 24.4096 63.6793 24.6616C64.1339 24.9076 64.6058 25.1656 65.2429 25.2057C66.5391 25.2912 68.0855 26.8378 68.637 27.5764C68.6762 27.6326 68.7101 27.7068 68.6364 27.8385Z" fill="#1F2E30"/>
<path d="M52.509 30.2553C51.2693 29.5569 48.3244 28.6633 47.1643 30.3409C46.4595 31.3488 44.7306 31.4057 43.4629 31.4517C43.0992 31.4631 42.7807 31.4745 42.5251 31.5092C42.4395 31.5206 42.3605 31.572 42.3147 31.6469C42.1382 31.9617 41.2574 33.5705 41.7174 34.3725C41.8256 34.567 42.0645 34.7962 42.5649 34.7962C42.8775 34.7962 43.2133 34.7788 43.577 34.7621C45.0266 34.6879 46.8351 34.5963 49.2914 35.4953C50.0705 35.7813 50.7468 35.8963 51.3382 35.8963C52.8507 35.8963 53.7719 35.1463 54.3912 34.6364C54.5445 34.5161 54.6753 34.4072 54.8007 34.3216C54.9653 34.2127 55.1644 33.9954 55.1478 33.5884C55.1073 32.5799 53.6352 30.8849 52.509 30.2553ZM54.4881 33.8452C54.3514 33.9367 54.198 34.0571 54.0334 34.1887C53.1693 34.8986 51.9753 35.8723 49.4845 34.956C47.6534 34.2863 46.1415 34.1486 44.9018 34.1486C44.4073 34.1486 43.9521 34.1714 43.5485 34.1887C43.1961 34.2061 42.8662 34.2228 42.5649 34.2228C42.2862 34.2228 42.2297 34.1253 42.2065 34.0852C42.0021 33.7243 42.3771 32.7284 42.7408 32.058C42.9459 32.0407 43.2014 32.0353 43.4855 32.0239C44.8673 31.9724 46.7661 31.9096 47.6303 30.6671C48.5116 29.4019 51.0589 30.1003 52.2303 30.7527C53.2763 31.3368 54.5499 32.8888 54.5784 33.61C54.5843 33.7596 54.5332 33.8111 54.4881 33.8452Z" fill="#1F2E30"/>
<path d="M39.9446 33.903C39.4382 32.2769 35.2994 30.9883 34.8275 30.8512C34.799 30.8398 34.7705 30.8398 34.7479 30.8398C33.9919 30.8398 32.1834 30.9254 31.7745 31.7388C31.661 31.962 31.604 32.3229 31.9564 32.8155C32.2292 33.1932 32.3885 33.4966 32.5192 33.7372C32.9174 34.5045 33.1391 34.7738 34.7307 34.848C35.2251 34.8708 35.8052 34.9336 36.368 35.0025C37.124 35.088 37.8235 35.1742 38.4095 35.1742C39.0632 35.1742 39.5749 35.0713 39.8311 34.7565C39.9559 34.6015 40.0807 34.3321 39.9446 33.903ZM39.3931 34.3896C39.103 34.7505 37.562 34.5667 36.4364 34.4351C35.8622 34.3662 35.2709 34.2974 34.7592 34.2747C33.4059 34.2118 33.3435 34.0855 33.019 33.4733C32.8824 33.2099 32.7118 32.8891 32.4164 32.4768C32.2684 32.2709 32.2233 32.1105 32.2797 32.0016C32.4729 31.6179 33.6383 31.412 34.7021 31.412C35.93 31.7843 39.0573 32.9526 39.4044 34.0748C39.4727 34.298 39.4097 34.3669 39.3931 34.3896Z" fill="#1F2E30"/>
<path d="M43.4844 70.4951C45.429 68.7582 47.4205 67.2607 49.4293 65.8495C50.4414 65.1199 51.4185 64.4807 52.4835 63.7966C53.5782 63.1855 54.7276 62.8671 55.88 62.8438C57.0318 62.8689 58.1836 63.1622 59.2777 63.7762C60.3516 64.4567 61.3203 65.1067 62.3342 65.8369C64.3412 67.256 66.3322 68.757 68.2756 70.4951C66.1343 69.7481 64.0399 68.7654 61.9622 67.7001C60.9305 67.2051 59.8672 66.5581 58.8837 66.0727C57.9048 65.6089 56.8939 65.3593 55.883 65.3826C54.872 65.3689 53.8611 65.625 52.8846 66.1008C51.8939 66.5928 50.836 67.2326 49.8019 67.7258C47.723 68.7851 45.6275 69.7595 43.4844 70.4951Z" fill="#1F2E30"/>
<path d="M45.6735 57.5633C47.6559 55.4608 47.5705 52.138 45.4827 50.1415C43.3949 48.1451 40.0953 48.2312 38.1129 50.3337C36.1305 52.4362 36.2159 55.759 38.3037 57.7554C40.3915 59.7518 43.6911 59.6658 45.6735 57.5633Z" fill="#1F2E30"/>
<path d="M44.0342 51.1495C44.0342 52.3477 43.0696 53.3185 41.8804 53.3185C40.6911 53.3185 39.7266 52.3471 39.7266 51.1495C39.7266 49.9513 40.6911 48.9805 41.8804 48.9805C43.0696 48.9805 44.0342 49.9519 44.0342 51.1495Z" fill="#F5FCFE"/>
<path d="M73.3312 57.6611C75.3669 55.6111 75.3669 52.2873 73.3312 50.2373C71.2955 48.1872 67.995 48.1872 65.9594 50.2373C63.9237 52.2873 63.9237 55.6111 65.9594 57.6611C67.995 59.7112 71.2955 59.7112 73.3312 57.6611Z" fill="#1F2E30"/>
<path d="M71.7998 51.1534C71.7998 52.3516 70.8352 53.3224 69.646 53.3224C68.4562 53.3224 67.4922 52.351 67.4922 51.1534C67.4922 49.9552 68.4568 48.9844 69.646 48.9844C70.8352 48.9844 71.7998 49.9558 71.7998 51.1534Z" fill="#F5FCFE"/>
<path d="M109.766 56.5586C109.385 57.6599 108.773 58.5636 107.941 59.2878C106.479 60.5567 104.328 61.233 101.505 61.2988C101.32 61.3048 101.136 61.3048 100.958 61.3048C98.2596 61.3048 96.2865 60.7961 94.8423 60.012C92.5958 58.803 91.6271 56.9237 91.2348 55.2419C89.8144 49.1192 94.6105 40.2672 96.9046 39.1241C96.9462 39.1061 96.9937 39.0942 97.0413 39.0942C97.1186 39.0942 97.1958 39.1241 97.2552 39.1839C97.3444 39.2797 97.3622 39.4234 97.2969 39.5371C96.5005 40.9974 96.5064 42.9546 96.7501 44.6663C97.0651 38.0169 102.444 34.8687 102.509 34.8328C102.557 34.8089 102.604 34.7969 102.658 34.7969C102.735 34.7969 102.812 34.8268 102.866 34.8867C102.961 34.9824 102.978 35.132 102.913 35.2458C102.889 35.2877 100.637 39.1959 102.901 41.6797C104.244 43.152 104.851 44.792 105.124 46.0189C105.189 45.8154 105.255 45.594 105.338 45.3606C105.796 44.0738 104.827 42.2603 104.815 42.2423C104.75 42.1106 104.779 41.955 104.892 41.8653C104.946 41.8174 105.011 41.7994 105.076 41.7994C105.148 41.7994 105.213 41.8174 105.267 41.8653C107.876 44.0798 111.483 51.6269 109.766 56.5586Z" fill="#F2CA8B"/>
<path opacity="0.34" d="M107.936 59.2875C106.474 60.5564 104.322 61.2327 101.499 61.2985C101.315 61.3045 101.131 61.3045 100.953 61.3045C98.2545 61.3045 96.2814 60.7958 94.8372 60.0117C93.6604 57.8571 92.2162 53.8411 94.4212 49.5498C94.4212 49.5498 94.6054 53.7394 96.5547 54.1104C98.5041 54.4875 100.721 50.669 98.8726 45.9588C97.0243 41.2485 100.59 37.8789 100.59 37.8789C100.59 37.8789 100.661 42.3677 103.633 45.4321C106.605 48.5024 100.287 54.709 103.633 54.2661C106.973 53.8112 105.19 50.0765 105.19 50.0765C105.19 50.0765 110.587 53.5598 107.936 59.2875Z" fill="#EFBD6E"/>
<path d="M102.651 35.0946C102.651 35.0946 100.232 39.1986 102.678 41.8811C105.124 44.5636 105.052 47.8919 105.052 47.8919C105.052 47.8919 105.11 46.8942 105.615 45.4602C106.119 44.0261 105.074 42.0953 105.074 42.0953C108.722 45.1908 115.402 60.6653 101.493 60.9986C101.311 61.0028 101.131 61.0052 100.954 61.0052C83.9893 61.0052 93.8008 41.0013 97.0345 39.3925C95.1826 42.7705 97.4315 48.564 97.4315 48.564C95.2456 39.3009 102.651 35.0946 102.651 35.0946ZM97.0339 39.3931H97.0368H97.0339ZM102.65 34.4961C102.55 34.4961 102.45 34.5212 102.359 34.5733C102.304 34.605 98.3966 36.8871 96.9596 41.6548C97.0464 40.9576 97.2264 40.2921 97.539 39.7109C97.5967 39.6187 97.63 39.5098 97.63 39.3937C97.63 39.0639 97.3667 38.7964 97.0392 38.7952C97.0375 38.7952 97.0357 38.7952 97.0339 38.7952C97.0161 38.7952 96.9976 38.7958 96.9798 38.7976C96.9002 38.8048 96.8253 38.8281 96.7575 38.8634C94.3975 40.0616 89.4962 49.0793 90.9416 55.3098C91.6078 58.1814 93.8852 61.6049 100.954 61.6049C101.135 61.6049 101.319 61.6025 101.507 61.5983C107.181 61.4625 109.279 58.8374 110.039 56.6594C111.801 51.6134 108.12 43.8981 105.457 41.6387C105.346 41.5447 105.21 41.498 105.074 41.498C104.941 41.498 104.807 41.5429 104.698 41.6333C104.476 41.8152 104.415 42.1307 104.552 42.3832C104.78 42.8082 105.276 44.0118 105.131 44.9502C104.77 43.8628 104.157 42.6184 103.116 41.4771C101.002 39.1585 103.141 35.437 103.162 35.3998C103.299 35.1664 103.263 34.8696 103.075 34.6762C102.96 34.5577 102.806 34.4961 102.65 34.4961Z" fill="#1F2E30"/>
<path d="M24.8125 37.1842C24.5302 38.0005 24.0767 38.6709 23.4598 39.2077C22.3758 40.1486 20.7807 40.6495 18.6881 40.6986C18.5514 40.7028 18.4147 40.7028 18.2828 40.7028C16.2823 40.7028 14.8197 40.3257 13.7487 39.7446C12.0835 38.8486 11.3649 37.4553 11.0743 36.208C10.0212 31.6689 13.577 25.1063 15.2779 24.2588C15.3088 24.2456 15.3439 24.2366 15.3795 24.2366C15.4366 24.2366 15.4942 24.2588 15.5382 24.3031C15.6042 24.3743 15.6173 24.4808 15.5691 24.5646C14.979 25.6473 14.9831 27.0981 15.1638 28.3675C15.3974 23.4376 19.3846 21.1041 19.4333 21.0771C19.4684 21.0592 19.5041 21.0508 19.5433 21.0508C19.6004 21.0508 19.658 21.0729 19.6978 21.1172C19.7685 21.1884 19.7816 21.2992 19.7329 21.3836C19.7151 21.4147 18.0456 24.3121 19.724 26.1537C20.7194 27.2453 21.1693 28.4609 21.372 29.3706C21.4201 29.2198 21.4689 29.0558 21.5307 28.8829C21.87 27.9288 21.1515 26.5846 21.1432 26.5708C21.0951 26.4733 21.1164 26.3577 21.2002 26.2913C21.2401 26.256 21.2882 26.2422 21.3369 26.2422C21.3898 26.2422 21.4386 26.2554 21.4778 26.2913C23.4111 27.9324 26.0855 33.5279 24.8125 37.1842Z" fill="#F2CA8B"/>
<path opacity="0.34" d="M23.4563 39.2078C22.3722 40.1486 20.7771 40.6496 18.6845 40.6987C18.5478 40.7029 18.4111 40.7028 18.2792 40.7028C16.2787 40.7028 14.8161 40.3258 13.7452 39.7446C12.8727 38.1472 11.8023 35.1702 13.4367 31.9886C13.4367 31.9886 13.5734 35.0948 15.0182 35.3695C16.4635 35.649 18.1068 32.8181 16.7363 29.3264C15.3658 25.8341 18.01 23.3359 18.01 23.3359C18.01 23.3359 18.0629 26.6636 20.266 28.9356C22.4691 31.2117 17.7853 35.813 20.266 35.4851C22.7419 35.1481 21.4201 32.3788 21.4201 32.3788C21.4201 32.3788 25.4211 34.9614 23.4563 39.2078Z" fill="#EFBD6E"/>
<path d="M19.5392 21.2722C19.5392 21.2722 17.7461 24.315 19.5594 26.3039C21.3726 28.2927 21.3191 30.7604 21.3191 30.7604C21.3191 30.7604 21.3619 30.0206 21.7363 28.9577C22.1108 27.8947 21.3352 26.4631 21.3352 26.4631C24.0399 28.7584 28.9923 40.23 18.6804 40.4778C18.5449 40.4808 18.4123 40.4825 18.281 40.4825C5.70352 40.4825 12.9773 25.6527 15.3748 24.4599C14.0019 26.964 15.669 31.2595 15.669 31.2595C14.0495 24.3905 19.5392 21.2722 19.5392 21.2722ZM15.3748 24.4593H15.3772H15.3748ZM19.5386 20.8281C19.4649 20.8281 19.3906 20.8467 19.3228 20.8856C19.2818 20.9089 16.3851 22.6009 15.3201 26.1357C15.3843 25.6186 15.518 25.1254 15.7498 24.6945C15.7926 24.6263 15.817 24.5455 15.817 24.4593C15.817 24.2145 15.622 24.0164 15.379 24.0158C15.3778 24.0158 15.376 24.0158 15.3748 24.0158C15.3617 24.0158 15.3481 24.0164 15.335 24.0176C15.2761 24.023 15.2203 24.0403 15.1704 24.0667C13.4207 24.9548 9.78706 31.6402 10.858 36.2595C11.3519 38.3884 13.0403 40.9266 18.281 40.9266C18.4153 40.9266 18.552 40.9248 18.6911 40.9218C22.8976 40.8207 24.453 38.8749 25.017 37.2602C26.3233 33.5189 23.5936 27.7995 21.6193 26.1243C21.5372 26.0549 21.4362 26.0202 21.3352 26.0202C21.2365 26.0202 21.1379 26.0537 21.0564 26.1201C20.8924 26.2554 20.8467 26.4888 20.9483 26.6761C21.1177 26.991 21.4855 27.8833 21.378 28.5794C21.1099 27.7732 20.6553 26.8509 19.8839 26.0046C18.3167 24.2857 19.9023 21.5266 19.9183 21.4991C20.0194 21.3261 19.9932 21.1058 19.8536 20.9628C19.7686 20.8742 19.6539 20.8281 19.5386 20.8281Z" fill="#1F2E30"/>
</svg>
