<svg width="67" height="54" viewBox="0 0 67 54" fill="none" xmlns="http://www.w3.org/2000/svg">
<path fill-rule="evenodd" clip-rule="evenodd" d="M4.07224 4.23849C0.166992 8.14374 0.166992 14.4291 0.166992 26.9999C0.166992 39.5707 0.166992 45.8561 4.07224 49.7613C7.97748 53.6666 14.2629 53.6666 26.8337 53.6666H40.167C52.7378 53.6666 59.0232 53.6666 62.9284 49.7613C66.8337 45.8561 66.8337 39.5707 66.8337 26.9999C66.8337 14.4291 66.8337 8.14374 62.9284 4.23849C59.0232 0.333252 52.7378 0.333252 40.167 0.333252H26.8337C14.2629 0.333252 7.97748 0.333252 4.07224 4.23849ZM55.4209 12.0661C56.3048 13.1268 56.1615 14.7032 55.1008 15.5871L47.7792 21.6885C44.8246 24.1507 42.4299 26.1463 40.3164 27.5057C38.1147 28.9217 35.9706 29.8162 33.5003 29.8162C31.0301 29.8162 28.8859 28.9217 26.6843 27.5057C24.5707 26.1463 22.176 24.1507 19.2215 21.6885L11.8999 15.5871C10.8392 14.7032 10.6959 13.1268 11.5798 12.0661C12.4637 11.0054 14.0401 10.8621 15.1008 11.746L22.2971 17.743C25.407 20.3345 27.5661 22.128 29.3889 23.3003C31.1535 24.4352 32.3501 24.8162 33.5003 24.8162C34.6506 24.8162 35.8472 24.4352 37.6117 23.3003C39.4346 22.128 41.5937 20.3345 44.7036 17.743L51.8999 11.746C52.9606 10.8621 54.537 11.0054 55.4209 12.0661Z" fill="#A1CE3F"/>
</svg>
