<svg width="22" height="22" viewBox="0 0 22 22" fill="none" xmlns="http://www.w3.org/2000/svg">
<path d="M12.75 9C12.75 9.41421 13.0858 9.75 13.5 9.75H14.1893L12.1768 11.7626C12.0791 11.8602 11.9209 11.8602 11.8232 11.7626L10.2374 10.1768C9.55402 9.49336 8.44598 9.49336 7.76256 10.1768L5.46967 12.4697C5.17678 12.7626 5.17678 13.2374 5.46967 13.5303C5.76256 13.8232 6.23744 13.8232 6.53033 13.5303L8.82322 11.2374C8.92085 11.1398 9.07915 11.1398 9.17678 11.2374L10.7626 12.8232C11.446 13.5066 12.554 13.5066 13.2374 12.8232L15.25 10.8107V11.5C15.25 11.9142 15.5858 12.25 16 12.25C16.4142 12.25 16.75 11.9142 16.75 11.5V9C16.75 8.58579 16.4142 8.25 16 8.25H13.5C13.0858 8.25 12.75 8.58579 12.75 9Z" fill="#81A532"/>
<path fill-rule="evenodd" clip-rule="evenodd" d="M10.9426 0.25C8.63423 0.249987 6.82519 0.249977 5.41371 0.439747C3.96897 0.633986 2.82895 1.03933 1.93414 1.93414C1.03933 2.82895 0.633986 3.96897 0.439747 5.41371C0.249977 6.82519 0.249987 8.63423 0.25 10.9426V11.0574C0.249987 13.3658 0.249977 15.1748 0.439747 16.5863C0.633986 18.031 1.03933 19.1711 1.93414 20.0659C2.82895 20.9607 3.96897 21.366 5.41371 21.5603C6.82519 21.75 8.63423 21.75 10.9426 21.75H11.0574C13.3658 21.75 15.1748 21.75 16.5863 21.5603C18.031 21.366 19.1711 20.9607 20.0659 20.0659C20.9607 19.1711 21.366 18.031 21.5603 16.5863C21.75 15.1748 21.75 13.3658 21.75 11.0574V10.9426C21.75 8.63423 21.75 6.82519 21.5603 5.41371C21.366 3.96897 20.9607 2.82895 20.0659 1.93414C19.1711 1.03933 18.031 0.633986 16.5863 0.439747C15.1748 0.249977 13.3658 0.249987 11.0574 0.25H10.9426ZM2.9948 2.9948C3.56445 2.42514 4.33517 2.09825 5.61358 1.92637C6.91356 1.75159 8.62178 1.75 11 1.75C13.3782 1.75 15.0864 1.75159 16.3864 1.92637C17.6648 2.09825 18.4355 2.42514 19.0052 2.9948C19.5749 3.56445 19.9018 4.33517 20.0736 5.61358C20.2484 6.91356 20.25 8.62178 20.25 11C20.25 13.3782 20.2484 15.0864 20.0736 16.3864C19.9018 17.6648 19.5749 18.4355 19.0052 19.0052C18.4355 19.5749 17.6648 19.9018 16.3864 20.0736C15.0864 20.2484 13.3782 20.25 11 20.25C8.62178 20.25 6.91356 20.2484 5.61358 20.0736C4.33517 19.9018 3.56445 19.5749 2.9948 19.0052C2.42514 18.4355 2.09825 17.6648 1.92637 16.3864C1.75159 15.0864 1.75 13.3782 1.75 11C1.75 8.62178 1.75159 6.91356 1.92637 5.61358C2.09825 4.33517 2.42514 3.56445 2.9948 2.9948Z" fill="#81A532"/>
</svg>
