<svg width="24" height="25" viewBox="0 0 24 25" fill="none" xmlns="http://www.w3.org/2000/svg">
<path fill-rule="evenodd" clip-rule="evenodd" d="M15.9925 2.51606C15.927 2.61432 15.861 2.73365 15.7998 2.84428L15.4773 3.42717L12.6497 4.81687C12.5735 4.85431 12.5266 4.87734 12.4819 4.90033C10.856 5.73521 9.71047 7.30401 9.36562 9.13327C9.35611 9.1837 9.34708 9.23636 9.33217 9.32329L9.33094 9.33049C9.31501 9.42336 9.30798 9.46428 9.30076 9.50377C9.03456 10.9594 8.3439 12.2879 7.32835 13.3097C7.30083 13.3374 7.27207 13.3657 7.20619 13.4304L6.4018 14.2214C5.89777 14.717 5.49146 15.1165 5.18768 15.4601C4.87759 15.811 4.62758 16.154 4.47734 16.5485C4.07618 17.6018 4.21118 18.7956 4.84068 19.7287C5.07679 20.0786 5.39871 20.3542 5.7799 20.6224C6.15313 20.8849 6.63864 21.1774 7.24012 21.5397L7.95314 21.9692C8.55438 22.3314 9.03997 22.624 9.44477 22.8301C9.85683 23.0399 10.2515 23.1961 10.6702 23.2354C11.7877 23.3403 12.8691 22.8503 13.5501 21.9515C13.8038 21.6167 13.9627 21.2199 14.0978 20.7677C14.2308 20.3226 14.359 19.7569 14.5185 19.0527L14.7726 17.9316C14.7934 17.8398 14.8025 17.7993 14.8118 17.7603C15.1543 16.3228 15.9137 15.0369 16.9809 14.0757C17.0098 14.0496 17.04 14.0231 17.1092 13.9621L17.1147 13.9573C17.1793 13.9005 17.2187 13.8658 17.2562 13.8316C18.614 12.5945 19.3318 10.7773 19.2136 8.91784C19.2103 8.8666 19.206 8.8133 19.199 8.72531L18.9373 5.45823L19.2924 4.81639C19.3496 4.71313 19.4119 4.60062 19.4581 4.4986C19.5106 4.38267 19.5692 4.22469 19.5779 4.0319C19.5895 3.77447 19.5213 3.51973 19.3826 3.30256C19.2787 3.13992 19.149 3.03236 19.0456 2.95816C18.9547 2.89287 18.8445 2.82652 18.7434 2.76564L17.928 2.27446C17.8197 2.20921 17.7029 2.13882 17.5971 2.08645C17.4778 2.02742 17.3127 1.95977 17.109 1.94756C16.8392 1.93137 16.5715 2.00306 16.3459 2.15188C16.1756 2.26421 16.0663 2.40532 15.9925 2.51606ZM15.983 4.84999L17.4548 5.73658L17.7032 8.83766C17.7083 8.9016 17.7115 8.94095 17.7137 8.97104L16.6585 9.32274C16.0296 9.53238 15.3373 9.40891 14.8196 8.99478C13.7675 8.15308 12.322 7.99995 11.1169 8.60251L11.0572 8.63235C11.4489 7.5888 12.1998 6.73138 13.1671 6.23469C13.1987 6.21845 13.2331 6.20152 13.3182 6.15968L15.983 4.84999Z" fill="#7EB7C2"/>
</svg>
