<svg width="97" height="117" viewBox="0 0 97 117" fill="none" xmlns="http://www.w3.org/2000/svg">
<path d="M83.6389 52.5469L47.1526 54.8016L42.1445 55.1098C42.1445 55.1098 44.5792 54.5772 47.5595 53.6265C51.3368 52.416 55.9869 50.529 57.6115 48.201C60.389 44.2157 59.9899 39.9496 58.4242 39.0905C58.3509 39.0506 58.2737 39.0186 58.1984 38.993C56.4475 38.4336 53.0386 39.1069 52.6277 36.0166C52.2175 32.9264 54.9832 30.1639 59.7302 31.0629C67.0034 32.4455 76.3487 34.8598 80.904 41.9963C82.6581 44.743 83.6972 48.1886 83.6389 52.5469Z" fill="#9DE5F2"/>
<path d="M83.9619 52.8538L42.1639 55.4356L42.0742 54.7892C42.0978 54.7846 44.5298 54.2487 47.4598 53.3137C51.0924 52.1497 55.7563 50.2856 57.343 48.0132C59.279 45.2344 59.5427 42.4425 59.1802 40.8958C59.0036 40.142 58.679 39.6022 58.2675 39.3765C58.2112 39.3464 58.151 39.3215 58.0928 39.3012C57.6806 39.1697 57.1375 39.1095 56.563 39.0454C54.8167 38.8504 52.6425 38.6083 52.3042 36.0585C52.1053 34.5582 52.6117 33.1102 53.6946 32.0856C55.1138 30.7423 57.2788 30.2653 59.7914 30.741C67.8497 32.2727 76.6913 34.7872 81.1798 41.8203C83.0851 44.8 84.0221 48.4104 83.9671 52.5508L83.9619 52.8538ZM45.5486 54.5719L83.3135 52.2387C83.3187 48.3554 82.4157 44.9707 80.6275 42.1723C76.2725 35.3493 67.5887 32.8897 59.6684 31.3842C57.3685 30.9484 55.4056 31.3659 54.1441 32.5613C53.215 33.44 52.7812 34.6838 52.952 35.9735C53.2235 38.0155 54.9574 38.2092 56.6344 38.3957C57.2422 38.4631 57.8167 38.5272 58.2976 38.681C58.3964 38.7143 58.4906 38.7542 58.5802 38.8027C59.1586 39.12 59.5977 39.8103 59.8175 40.7472C60.2297 42.5053 59.9366 45.436 57.8795 48.3882C56.1881 50.8104 51.3888 52.7432 47.6587 53.9379C46.9134 54.1754 46.1989 54.3874 45.5486 54.5719Z" fill="#1F2E30"/>
<g opacity="0.2">
<path d="M83.6348 52.5464L47.1484 54.8012C47.2819 54.4419 47.4193 54.0474 47.5554 53.626C51.3327 52.4156 55.9828 50.5286 57.6074 48.2006C60.3849 44.2152 59.9858 39.9492 58.4201 39.0901C58.8349 38.901 59.2713 38.6445 59.7084 38.3193C59.7084 38.3193 62.7888 40.8901 65.548 39.0633C65.548 39.0633 70.8707 41.144 73.1699 39.2812C73.1699 39.2812 77.7442 43.4 80.8998 41.9959C82.654 44.7426 83.6931 48.1881 83.6348 52.5464Z" fill="#5E8991"/>
</g>
<path d="M65.5479 39.0633C65.5479 39.0633 62.9098 40.7363 59.7083 38.3193L57.6172 38.8565" fill="#9DE5F2"/>
<path d="M63.288 39.9635C62.2706 39.9635 61.0085 39.6691 59.6416 38.6759L57.701 39.1745C57.5289 39.2183 57.3483 39.1136 57.3032 38.9389C57.2587 38.7642 57.364 38.5856 57.5387 38.5404L59.6298 38.0033C59.726 37.9791 59.8288 37.9987 59.9086 38.0589C62.8942 40.3149 65.3511 38.8035 65.3753 38.7878C65.5271 38.6909 65.7299 38.7361 65.8261 38.8892C65.9229 39.0416 65.8778 39.2438 65.7253 39.3407C65.6592 39.3825 64.7157 39.9635 63.288 39.9635Z" fill="#1F2E30"/>
<path d="M90.5692 55.4919L54.9098 47.444L50.0156 46.3383C50.0156 46.3383 52.502 46.5084 55.6295 46.4299C59.5946 46.3252 64.5869 45.8148 66.7984 44.0351C70.5803 40.9861 71.3916 36.779 70.1288 35.5162C70.0699 35.4573 70.0045 35.4049 69.9391 35.3591C68.4146 34.3319 64.9533 34.0243 65.4244 30.9426C65.8955 27.8608 69.324 25.983 73.6293 28.1749C80.2247 31.538 88.5212 36.4714 90.8963 44.5978C91.8123 47.7254 91.845 51.324 90.5692 55.4919Z" fill="#9DE5F2"/>
<path d="M90.7913 55.8787L49.9414 46.6583L50.0363 46.0126C50.0605 46.0145 52.5449 46.1807 55.6194 46.1035C59.4327 46.0034 64.4322 45.5186 66.5914 43.7814C69.2276 41.6556 70.262 39.0495 70.3471 37.4628C70.389 36.6901 70.228 36.0809 69.8956 35.7485C69.8505 35.704 69.7994 35.6635 69.7484 35.6275C69.3892 35.3854 68.8854 35.176 68.3514 34.9536C66.7294 34.2777 64.7103 33.4369 65.0983 30.8943C65.3273 29.3986 66.2191 28.1502 67.5454 27.469C69.2838 26.5766 71.496 26.7244 73.7749 27.8845C81.0822 31.6107 88.867 36.499 91.2075 44.5077C92.202 47.9015 92.0921 51.6297 90.8797 55.5895L90.7913 55.8787ZM53.4334 46.7761L90.3418 55.106C91.4339 51.3798 91.5143 47.8773 90.5806 44.6902C88.3096 36.9204 80.6614 32.129 73.4785 28.4668C71.392 27.4049 69.3911 27.2564 67.8457 28.0507C66.7078 28.6343 65.943 29.7067 65.746 30.9931C65.4346 33.0299 67.0455 33.7006 68.6034 34.349C69.168 34.5839 69.7019 34.8064 70.12 35.0884C70.2057 35.1486 70.2849 35.2127 70.3569 35.284C70.8234 35.7505 71.0511 36.5363 71.0001 37.4968C70.9039 39.3001 69.802 42.0318 67.001 44.2898C64.6991 46.1414 59.5505 46.6538 55.6358 46.7571C54.8545 46.7774 54.1093 46.7814 53.4334 46.7761Z" fill="#1F2E30"/>
<path opacity="0.2" d="M90.5695 55.492L54.9102 47.4441C55.1392 47.1366 55.3813 46.7963 55.6299 46.4299C59.5949 46.3253 64.5872 45.8149 66.7988 44.0352C70.5806 40.9862 71.392 36.779 70.1292 35.5162C70.5806 35.4508 71.0714 35.3265 71.5817 35.1367C71.5817 35.1367 73.8194 38.4671 76.9797 37.4857C76.9797 37.4857 81.5075 40.9731 84.2359 39.828C84.2359 39.828 87.4747 45.0625 90.8967 44.5979C91.8127 47.7255 91.8454 51.3241 90.5695 55.492Z" fill="#5E8991"/>
<path d="M76.9777 37.4857C76.9777 37.4857 73.9764 38.3539 71.5797 35.1367L69.4219 35.0674" fill="#9DE5F2"/>
<path d="M76.006 37.9237C74.8734 37.9237 73.0263 37.5429 71.4128 35.4583L69.4106 35.3935C69.23 35.3876 69.088 35.2365 69.0939 35.0559C69.1005 34.8759 69.2556 34.715 69.4316 34.7399L71.5894 34.8092C71.6889 34.8125 71.7818 34.8609 71.842 34.9407C74.0764 37.9413 76.8585 37.1791 76.8866 37.1706C77.0581 37.1202 77.2413 37.2203 77.2917 37.3937C77.3414 37.5677 77.2419 37.749 77.0679 37.7994C77.0214 37.8124 76.6177 37.9237 76.006 37.9237Z" fill="#1F2E30"/>
<path d="M93.3774 61.4446C93.1746 60.8099 93.1091 60.1425 93.0306 59.3704C92.8736 57.8197 92.6707 55.883 91.2378 53.1546C90.0732 50.9169 88.5617 48.8885 87.4625 47.4098C86.3633 45.9311 85.7875 45.1329 85.7155 44.6094C85.6828 44.4066 85.6697 44.1514 85.6566 43.8635C85.6364 43.4304 85.6004 42.9056 85.495 42.3462C83.5596 41.7776 81.439 41.508 79.3695 41.3831C79.5429 41.6009 79.7431 41.8293 79.9904 42.0773C81.8879 43.9747 82.4833 46.1339 81.4429 47.3313C81.2467 47.5603 80.9064 47.6519 80.4157 47.6519C79.6174 47.6519 78.4266 47.4033 76.804 47.0369C74.8803 46.6116 72.4856 46.075 71.792 46.5134C70.4049 47.3771 66.5053 46.8275 65.0069 45.8199C64.2545 45.3161 64.1694 44.7926 64.2283 44.4458C64.3049 43.9931 64.4115 43.5835 64.5247 43.1713C60.5348 43.8956 56.5475 44.6716 52.5065 45.1728C47.5437 45.7885 42.463 46.1568 37.4923 45.4594C32.9573 44.8234 29.4974 42.6282 25.5323 40.5279C19.8975 37.543 14.2862 39.1166 8.76591 41.2483C3.97447 48.3769 1.19827 56.6675 0.734375 65.2526C1.51954 66.5285 1.84667 68.4783 1.84667 69.0933C1.84667 69.571 3.11601 70.8599 3.60019 71.3507C3.80303 71.5535 3.96007 71.7171 4.0255 71.8021C4.42463 72.3059 5.64816 78.5938 5.12472 81.4138C4.75177 83.4421 6.83899 86.7464 7.7223 87.7343C7.75501 87.6689 7.79427 87.6035 7.84662 87.5446C8.36351 86.9754 9.66556 87.0081 9.92074 87.0146C9.97308 87.0212 10.0189 87.0342 10.0647 87.0604C10.0843 87.067 11.8509 88.0484 13.1137 88.8336C13.997 89.3701 13.8923 90.417 13.768 91.7387C13.6699 92.7201 13.5521 93.9371 13.8073 95.2784C14.1083 96.8618 16.1301 98.563 17.9098 100.068C19.467 101.383 20.9457 102.626 21.3056 103.778C21.6196 104.785 21.7112 106.015 21.5869 107.435C30.6163 113.605 41.3795 116.491 52.5288 115.562C53.0261 115.522 53.5168 115.47 54.0075 115.411C55.9442 114.299 57.3313 113.298 58.1296 112.434C60.7664 109.588 61.9965 108.613 64.5744 108.018C67.0804 107.435 72.5765 105.08 75.4685 103.346C78.3802 101.599 84.5764 95.5663 84.9363 94.1269C85.0082 93.8259 85.1064 93.3679 85.2241 92.8052C85.7345 90.3712 86.5916 86.3014 87.7498 84.9667C88.4564 84.1619 89.4706 83.9525 90.5371 83.73C91.6952 83.4945 93.0038 83.2262 94.1881 82.1335C95.621 77.5404 96.3473 72.7443 96.3473 67.8894C96.3473 67.3202 96.3342 66.764 96.3145 66.2079C94.6336 63.9047 93.6457 62.3017 93.3774 61.4446ZM12.4077 66.7575C11.7927 67.451 11.0599 67.981 10.4121 68.4521C9.27364 69.2831 8.83525 69.6626 9.1166 70.0944C9.7251 71.0301 10.1308 72.5219 9.66623 73.4379C9.52228 73.7192 9.24092 74.0529 8.69131 74.1772C8.58662 74.2034 8.4754 74.223 8.35108 74.2296H8.34453C7.50048 74.2296 5.36093 69.1457 5.26933 68.668C5.08613 67.752 4.63465 66.6855 3.62048 64.4936C3.49616 64.2122 3.36532 63.944 3.24754 63.6888C2.4493 62.0007 1.86695 60.7772 2.33151 59.377C2.51471 58.8274 2.85496 58.1665 3.24099 57.4075C3.90838 56.0924 4.73933 54.4632 5.09266 52.7424C5.6619 49.9812 6.01523 48.6661 6.76113 48.4894C6.82656 48.4763 6.89853 48.4698 6.96396 48.4763C7.21914 48.4894 7.46777 48.6595 7.70986 48.9801C8.22021 49.641 8.15479 51.1262 8.06318 53.0106C7.96504 55.1567 7.8538 57.5907 8.62587 59.0302C9.11005 59.9331 9.88215 60.8688 10.628 61.7652C12.1722 63.6299 13.6313 65.3834 12.4077 66.7575ZM22.87 93.6034C22.8046 93.924 22.7261 94.225 22.6214 94.4802C22.4512 94.8924 22.2877 95.3635 22.1241 95.8346C21.7904 96.7768 21.4763 97.6666 21.1623 98.1246C20.9398 98.4452 20.436 98.5499 19.8798 98.5499C19.1143 98.5499 18.2375 98.3471 17.8711 98.2555C17.7861 98.2359 17.7141 98.1835 17.6749 98.1115C17.616 98.0199 16.2616 95.828 15.8625 93.6819C15.4895 91.6601 15.7643 90.7507 16.0064 89.9524L16.0653 89.7496C16.4121 88.5849 16.6869 87.8914 16.9028 87.4857C17.2103 86.9165 17.4066 86.8838 17.5113 86.8707C17.5505 86.8641 17.6094 86.851 17.6749 86.8445C18.1787 86.7464 19.2386 86.5501 19.6508 87.2371C19.8013 87.4857 20.6061 88.2185 21.2539 88.8139C22.3204 89.7823 22.798 90.2403 22.9093 90.4955C23.1055 90.947 23.1186 92.4061 22.87 93.6034ZM80.1671 96.5674C79.8596 97.4965 75.6066 100.088 74.3045 100.866C74.0559 101.023 73.7811 101.102 73.4998 101.102C73.3231 101.102 73.1464 101.069 72.9632 101.01C71.6481 100.559 70.5358 98.5696 70.0254 97.4311C69.9469 97.2544 69.8815 97.0974 69.8357 96.9731C69.3973 95.7953 70.3787 94.8008 71.334 93.839C71.8378 93.3352 72.3613 92.8052 72.5968 92.3079C73.2249 90.9535 75.9403 87.3679 76.9675 87.1193C77.7592 86.9296 79.7549 87.3679 80.1605 87.8129C80.2718 87.9372 80.311 88.0877 80.2652 88.2316C80.239 88.3494 80.2521 89.1476 80.2587 89.8477V90.2011C80.2783 91.4573 80.2848 92.9033 80.1802 93.6689C80.0886 94.297 80.154 94.755 80.2129 95.1607C80.2783 95.6121 80.3437 96.044 80.1671 96.5674ZM90.6686 57.8917C90.577 58.2712 90.3545 58.7358 90.0797 59.233C89.89 59.5929 89.6675 59.9724 89.4516 60.3388C89.0328 61.052 88.5617 61.8502 88.5225 62.1708C88.4963 62.341 88.3655 62.7204 87.6065 62.7204H87.5149C86.2455 62.6681 83.8312 61.6212 83.7461 59.7892C83.7199 59.1152 83.6349 58.5526 83.5629 58.0618C83.3993 56.9495 83.275 56.0728 83.7657 54.6595C84.3873 52.8798 83.1245 49.6999 82.7123 48.9605C82.2347 48.1034 83.9816 46.5919 84.7537 45.9769C84.8911 45.8722 85.0809 45.8853 85.1986 46.0162C85.5258 46.376 85.9772 47.0238 86.4549 47.7762C87.4625 49.3531 88.6141 51.4011 89.0721 52.2582C89.6217 53.2789 91.0154 56.5046 90.6686 57.8917Z" fill="#9DE5F2"/>
<path d="M20.6778 103.97C20.3749 103.002 18.9714 101.818 17.4848 100.565C15.5305 98.9169 13.5087 97.2125 13.1632 95.3981C12.891 93.9684 13.014 92.6958 13.1135 91.6725C13.2378 90.3848 13.2797 89.6985 12.7713 89.3877C11.6603 88.698 10.1508 87.854 9.81513 87.6669C9.3074 87.6557 8.55102 87.7388 8.33379 87.9816C8.29912 88.0208 8.27818 88.0634 8.29192 88.1445C8.33183 88.4128 8.20228 88.5371 8.1218 88.5875C8.04001 88.6392 7.86859 88.7013 7.63435 88.5423C6.82629 87.9934 4.00758 83.8471 4.48064 81.2966C4.96743 78.6663 3.79362 72.703 3.50442 72.1959C3.45534 72.1371 3.31269 71.9938 3.13014 71.8079C2.10747 70.7689 1.19015 69.779 1.19015 69.0952C1.19015 68.7 1.03116 67.6381 0.672604 66.6455C0.66148 67.0577 0.65625 67.4732 0.65625 67.8887C0.65625 69.3772 0.728869 70.9096 0.87216 72.4439C2.18796 86.3772 9.50238 98.9431 20.9696 107.012C21.039 105.833 20.9415 104.811 20.6778 103.97Z" fill="#A1CE3F"/>
<path d="M22.3074 90.7621C22.2112 90.5796 21.4019 89.8396 20.8117 89.2998C19.8616 88.4302 19.2715 87.8812 19.0883 87.5777C18.9077 87.2767 18.095 87.4285 17.7895 87.4861C17.7391 87.4959 17.6933 87.5037 17.654 87.5109C17.4767 87.6954 17.0704 88.6442 16.6903 89.9371L16.6287 90.1412C16.3965 90.9074 16.155 91.7004 16.5018 93.5625C16.8296 95.3239 17.8804 97.1847 18.1565 97.6539C19.3094 97.93 20.4629 97.9791 20.6206 97.7527C20.8856 97.3693 21.199 96.4788 21.502 95.6177C21.6695 95.1414 21.8396 94.6605 22.0084 94.2365C22.488 93.0352 22.4474 91.0782 22.3074 90.7621Z" fill="#A1CE3F"/>
<path d="M10.1219 62.1855C9.35439 61.2596 8.56073 60.303 8.04449 59.3393C7.1867 57.7388 7.30512 55.21 7.40916 52.9788C7.48047 51.4412 7.55507 49.8513 7.18997 49.3769C7.02967 49.1682 6.93021 49.1289 6.90797 49.1289C6.90666 49.1289 6.90533 49.1296 6.90533 49.1296C6.48331 49.2264 5.99456 51.5995 5.73153 52.8748C5.35989 54.682 4.50667 56.357 3.82097 57.7035C3.44474 58.4422 3.11956 59.0802 2.95205 59.5833C2.56798 60.7349 3.07245 61.8001 3.83536 63.4123C3.95575 63.6688 4.084 63.9377 4.21421 64.2216C5.24604 66.4626 5.70928 67.5579 5.90557 68.54C6.08289 69.4253 7.89858 73.0573 8.40566 73.5677C8.7315 73.5297 8.95199 73.3897 9.07761 73.1411C9.40215 72.4999 9.07434 71.2325 8.56464 70.4512C7.91427 69.4554 8.93759 68.7121 10.0218 67.9263C10.6433 67.4748 11.348 66.9632 11.914 66.3272C12.7633 65.3706 11.4802 63.8238 10.1219 62.1855Z" fill="#A1CE3F"/>
<path d="M90.668 84.3741C89.6676 84.5796 88.8032 84.7562 88.2399 85.3987C87.191 86.6007 86.3267 90.7241 85.8622 92.9389C85.7424 93.5094 85.6443 93.9792 85.5684 94.2861C85.1326 96.0226 78.7067 102.163 75.8003 103.906C72.8082 105.702 67.3199 108.054 64.7211 108.654C62.293 109.213 61.178 110.104 58.606 112.878C57.9569 113.579 56.9584 114.357 55.6289 115.198C65.2393 113.774 74.0514 109.51 81.2003 102.81C86.9647 97.4084 91.3125 90.6632 93.8217 83.2461C92.7519 83.9468 91.658 84.1713 90.668 84.3741Z" fill="#A1CE3F"/>
<path d="M79.5413 96.3627C79.6669 95.9865 79.6224 95.6783 79.5616 95.251C79.5007 94.8257 79.4248 94.2957 79.5275 93.5741C79.6401 92.7882 79.6178 91.0943 79.6015 89.857C79.5884 88.8886 79.5858 88.4391 79.6061 88.2068C79.2769 88.0177 78.1673 87.7246 77.4613 87.7246C77.3298 87.7246 77.212 87.7351 77.1165 87.758C76.4785 87.9104 73.8685 91.1113 73.1828 92.5815C72.9008 93.1847 72.3374 93.7533 71.7924 94.3029C70.9484 95.1542 70.1508 95.9583 70.4452 96.7428C70.93 98.0351 72.096 100.02 73.1697 100.388C73.4563 100.486 73.7141 100.459 73.9601 100.307C73.9614 100.307 73.9627 100.305 73.9647 100.305C76.5171 98.7823 79.3751 96.8416 79.5413 96.3627Z" fill="#A1CE3F"/>
<path d="M90.2226 44.4973C89.249 43.9176 88.2701 43.419 87.3966 43.0271C87.0086 42.853 86.6036 42.6999 86.1914 42.5586C86.2588 43.0238 86.2876 43.4583 86.3059 43.8292C86.319 44.0949 86.3295 44.3291 86.3569 44.5202C86.4119 44.9036 87.1408 45.8844 87.9848 47.0203C89.0978 48.5186 90.623 50.5698 91.8151 52.8501C93.3056 55.6943 93.5117 57.6965 93.6766 59.3054C93.7518 60.0415 93.8173 60.6775 93.9972 61.2506C94.2066 61.918 94.9996 63.2364 96.2552 65.0122C95.8692 58.4025 94.1484 52.0669 91.1333 46.1631C90.8454 45.5978 90.534 45.0476 90.2226 44.4973Z" fill="#A1CE3F"/>
<path d="M83.2801 48.6415C83.6125 49.237 85.139 52.7146 84.3826 54.8777C83.9429 56.1346 84.0548 56.9027 84.2099 57.9653C84.2838 58.4737 84.3682 59.0502 84.4003 59.7581C84.4468 60.7788 85.5408 61.4141 86.0092 61.6399C86.92 62.0789 87.6901 62.1149 87.8766 62.0357C87.9584 61.5803 88.3883 60.8495 88.8829 60.0081C89.3579 59.202 89.8958 58.2879 90.0345 57.7311C90.2962 56.6855 89.1885 53.8583 88.4949 52.5693C87.7084 51.1096 85.8882 47.9212 84.9133 46.6904C83.8913 47.5476 83.1728 48.4505 83.2801 48.6415Z" fill="#A1CE3F"/>
<path d="M78.545 41.3701C74.0513 41.5507 69.6387 42.2515 65.2333 43.0432C65.0946 43.5476 64.9637 44.0279 64.8728 44.5572C64.823 44.8438 65.1149 45.1075 65.3681 45.2783C66.7859 46.2309 70.361 46.6307 71.4406 45.9574C71.7338 45.7736 72.1604 45.6983 72.6799 45.6983C73.7935 45.6983 75.3396 46.0431 76.9466 46.401C78.4279 46.7315 80.6669 47.2307 80.9496 46.9029C81.6274 46.1216 81.3559 44.372 79.5252 42.5407C79.0972 42.1134 78.7871 41.73 78.545 41.3701Z" fill="#A1CE3F"/>
<path opacity="0.2" d="M91.7198 45.8667C91.6092 45.6502 91.4869 45.4414 91.373 45.2268C90.0441 44.3291 88.6184 43.576 87.3988 43.0284C86.2486 42.5121 84.9746 42.1569 83.6562 41.9004C84.6488 43.7959 85.5962 45.7535 86.4527 47.7779C86.9761 48.9949 87.4603 50.2381 87.9052 51.4944C88.6904 53.6928 89.3578 55.9371 89.8616 58.214C89.9401 58.5543 90.0121 58.8945 90.0775 59.2347C90.9019 63.2849 91.216 67.4266 90.7972 71.5421C90.1364 78.0655 86.191 84.7132 80.2565 90.2028C80.0471 90.4056 79.8246 90.6019 79.6087 90.7982C76.9392 93.1733 73.9032 95.3194 70.6055 97.1253C70.4092 97.23 70.2195 97.3346 70.0232 97.4328C56.0735 104.833 37.6419 106.194 22.8678 93.6051C22.6781 93.4481 22.4883 93.2845 22.2986 93.1144C20.5974 91.6161 18.9485 89.928 17.3586 88.0436C17.2081 87.8604 17.0576 87.6772 16.9006 87.4874C13.9039 83.8168 11.1362 79.4068 8.68911 74.179C8.5975 73.9761 8.49936 73.7733 8.40776 73.5705C5.11009 66.3666 4.39689 59.6208 5.62044 53.333C5.71858 52.803 5.83635 52.2795 5.96721 51.7626C6.15042 51.0037 6.36635 50.2512 6.61498 49.5053C6.61498 49.4988 6.62151 49.4922 6.62151 49.4922C6.7262 49.152 6.84399 48.8117 6.96176 48.478C7.97724 45.6855 9.37809 42.9937 11.0838 40.4014C9.95714 40.7867 8.83437 41.2166 7.71486 41.6609C3.15308 48.7358 0.512982 56.8819 0.0719834 65.3132C0.0261824 66.1507 0 67.0209 0 67.8911C0 69.396 0.0719706 70.9533 0.22246 72.5105C0.641212 76.9859 1.67502 81.3174 3.25842 85.4133C6.7393 94.4165 12.8832 102.262 21.0619 107.875C25.1055 110.663 29.4959 112.789 34.1152 114.222C38.7346 115.649 43.5699 116.388 48.5033 116.388C49.8446 116.388 51.2186 116.329 52.5796 116.218C53.1096 116.172 53.633 116.12 54.1499 116.054C64.5075 114.863 74.0144 110.447 81.6501 103.289C82.4156 102.576 83.155 101.836 83.8682 101.071C84.5814 100.312 85.2684 99.5265 85.9293 98.7283C89.9009 93.9061 92.9237 88.3642 94.7819 82.4166C94.7819 82.4166 94.7819 82.4166 94.7819 82.4101C96.2541 77.7318 97 72.8442 97 67.8911C97 67.2826 96.9869 66.6938 96.9607 66.0918C96.7056 58.9855 94.9455 52.1807 91.7198 45.8667Z" fill="#7EB7C2"/>
<path d="M96.9607 66.0903C96.7056 58.9846 94.9455 52.1798 91.7198 45.8659C91.6092 45.6493 91.4869 45.4406 91.373 45.2259C91.3619 45.2187 91.3508 45.2122 91.3396 45.205C91.1296 44.4918 90.7554 44.0554 90.6611 43.9985L90.5813 43.9488L90.5682 43.9409L90.5604 43.9363L90.5591 43.9357C90.5525 43.9317 90.546 43.9278 90.5394 43.9239C87.9451 42.3765 85.4778 41.0967 79.4065 40.7309L79.2358 40.7198C79.1494 40.7139 79.0637 40.708 78.9786 40.7034L78.9498 40.7021L78.921 40.7034L78.885 40.7047L78.8837 40.7028L78.5186 40.7172C78.5062 40.7178 78.4938 40.7185 78.4814 40.7185L77.3501 40.7636L77.3573 40.7741C73.7475 40.9867 70.1881 41.5056 66.1373 42.2181L66.138 42.2162L65.116 42.4L64.9759 42.4255L64.9203 42.4354L64.7116 42.4726L64.406 42.5276C63.7943 42.6388 63.1825 42.7507 62.5707 42.8633C59.2554 43.4718 55.8269 44.1012 52.4238 44.5239C48.7951 44.974 45.8802 45.1834 43.2479 45.1834C41.2183 45.1834 39.3647 45.0617 37.581 44.8118C33.8299 44.2857 30.7855 42.6316 27.5624 40.8801C26.9945 40.5719 26.4206 40.2598 25.8363 39.9503C23.6458 38.7896 21.3603 38.2256 18.8504 38.2256C16.9385 38.2256 14.8958 38.556 12.5187 39.2568L12.5469 39.209L10.8719 39.7809L10.8647 39.7835L10.8254 39.7979C10.3353 39.9667 9.83544 40.1466 9.27929 40.3547L8.93906 40.4836L8.78006 40.5431L8.52751 40.6386C8.56807 40.6229 7.72729 41.5592 7.7142 41.6594C8.02958 41.5344 8.44702 41.3708 8.76305 41.2491C8.89914 41.1968 9.03523 41.1464 9.17132 41.0947C9.28386 41.0522 9.39576 41.0096 9.5083 40.9671C10.0115 40.7787 10.5153 40.5961 11.0197 40.4227C11.0407 40.4155 11.0616 40.407 11.0832 40.3998C11.0825 40.4005 11.0825 40.4011 11.0819 40.4018C13.6559 39.5204 16.2469 38.8799 18.8497 38.8799C21.0698 38.8799 23.2983 39.3464 25.5295 40.5287C29.4945 42.629 32.9545 44.8242 37.4894 45.4602C39.3967 45.7278 41.3204 45.8384 43.2473 45.8384C46.3421 45.8384 49.4455 45.5531 52.5037 45.1736C56.5446 44.6724 60.5326 43.8964 64.5218 43.1721C64.758 43.1289 64.9943 43.087 65.2311 43.0445C65.1356 43.3906 65.0499 43.7322 64.9727 44.0816C65.0505 43.7328 65.1362 43.3919 65.2324 43.0445C69.6378 42.2528 74.0511 41.552 78.5442 41.3715C78.6789 41.571 78.8373 41.7791 79.0218 41.997C78.8373 41.7791 78.6796 41.571 78.5455 41.3715C78.6783 41.3662 78.8111 41.3623 78.9433 41.3571C79.0833 41.3643 79.2253 41.376 79.366 41.3845C80.8002 41.4709 82.256 41.6351 83.6614 41.9126C83.6595 41.9086 83.6575 41.9041 83.6556 41.9001C83.7596 41.9204 83.861 41.9453 83.9644 41.9669C83.9951 41.9734 84.0252 41.98 84.056 41.9865C84.5042 42.0814 84.9426 42.1952 85.375 42.3182C85.4137 42.3294 85.4536 42.3366 85.4922 42.3477C85.5975 42.9071 85.6335 43.4319 85.6538 43.865C85.6669 44.1529 85.6799 44.4081 85.7127 44.6109C85.7846 45.1343 86.3604 45.9326 87.4596 47.4113C88.5589 48.89 90.0703 50.9184 91.235 53.1561C92.6679 55.8845 92.8707 57.8212 93.0278 59.3719C93.1063 60.144 93.1717 60.8114 93.3745 61.4461C93.6428 62.3032 94.6308 63.9062 96.3123 66.2094C96.332 66.7655 96.345 67.3217 96.345 67.8909C96.345 72.7458 95.6188 77.5418 94.1859 82.135C93.0016 83.2277 91.693 83.496 90.5349 83.7315C89.4684 83.954 88.4542 84.1634 87.7475 84.9681C86.5894 86.3029 85.7323 90.3727 85.2219 92.8067C85.1042 93.3694 85.006 93.8274 84.9341 94.1283C84.5742 95.5678 78.378 101.6 75.4663 103.347C72.5743 105.081 67.0782 107.437 64.5722 108.019C61.9943 108.615 60.7642 109.589 58.1274 112.436C57.3291 113.299 55.942 114.3 54.0053 115.413C53.5146 115.472 53.0238 115.524 52.5266 115.563C41.3773 116.492 30.6141 113.607 21.5847 107.437C21.709 106.017 21.6174 104.787 21.3034 103.779C20.9435 102.628 19.4648 101.385 17.9076 100.069C16.1279 98.5645 14.1061 96.8633 13.8051 95.2799C13.5499 93.9386 13.6677 92.7216 13.7658 91.7401C13.8901 90.4185 13.9948 89.3716 13.1115 88.8351C11.8487 88.0499 10.0821 87.0684 10.0625 87.0619C10.0167 87.0357 9.97088 87.0226 9.91853 87.0161C9.66336 87.0096 8.36131 86.9768 7.84441 87.5461C7.79207 87.605 7.75281 87.6704 7.72009 87.7358C6.83679 86.7478 4.74957 83.4436 5.12252 81.4153C5.64596 78.5953 4.42243 72.3074 4.0233 71.8036C3.95787 71.7186 3.80082 71.555 3.59799 71.3522C3.11381 70.8614 1.84447 69.5725 1.84447 69.0948C1.84447 68.4798 1.51733 66.53 0.732174 65.2541C1.19607 56.669 3.97161 48.3784 8.7637 41.2498C8.41365 41.3852 8.06426 41.5213 7.71486 41.66C3.15308 48.735 0.512982 56.881 0.0719834 65.3123C0.0261824 66.1498 0 67.02 0 67.8903C0 69.3951 0.0719706 70.9524 0.22246 72.5096C0.641212 76.985 1.67502 81.3165 3.25842 85.4124C6.7393 94.4156 12.8832 102.261 21.0619 107.875C25.1055 110.662 29.4959 112.788 34.1152 114.221C38.7346 115.648 43.5699 116.387 48.5033 116.387C49.8446 116.387 51.2186 116.328 52.5796 116.217C53.1096 116.171 53.633 116.119 54.1499 116.053C64.5075 114.862 74.0144 110.446 81.6501 103.288C82.4156 102.575 83.155 101.835 83.8682 101.07C84.5814 100.311 85.2684 99.5257 85.9293 98.7274C89.9009 93.9052 92.9237 88.3633 94.7819 82.4157C94.7819 82.4157 94.7819 82.4157 94.7819 82.4092C96.2541 77.7309 97 72.8433 97 67.8903C97 67.2811 96.9869 66.6922 96.9607 66.0903ZM93.9968 61.2484C93.8201 60.6792 93.7547 60.038 93.6762 59.3052C93.5126 57.6956 93.3098 55.6934 91.818 52.8472C90.6271 50.5703 89.1026 48.5158 87.9837 47.0174C87.1397 45.8855 86.4134 44.904 86.3611 44.518C86.3284 44.3282 86.3218 44.0927 86.3087 43.831C86.2904 43.46 86.261 43.0249 86.1929 42.559C86.1929 42.561 86.1929 42.5623 86.1936 42.5636C86.1936 42.5616 86.1929 42.561 86.1929 42.559C86.2197 42.5682 86.2446 42.5793 86.2708 42.5891C86.6555 42.7226 87.035 42.8639 87.3981 43.0268C87.6671 43.1479 87.9491 43.282 88.235 43.422C88.3201 43.4639 88.4064 43.5078 88.4928 43.5509C88.7166 43.6635 88.9436 43.7819 89.1733 43.9056C89.2518 43.9481 89.3303 43.9887 89.4088 44.0318C89.6797 44.181 89.9519 44.3348 90.2241 44.4971C90.2247 44.499 90.226 44.5003 90.2267 44.5023C90.2293 44.5043 90.2326 44.5056 90.2359 44.5075C90.2352 44.5056 90.2339 44.5043 90.2332 44.5029C90.2522 44.5141 90.2705 44.5272 90.2895 44.5389C90.5767 44.711 90.8607 44.8949 91.1434 45.0807C90.8417 44.8824 90.5395 44.6855 90.2332 44.5029C90.5414 45.0506 90.8502 45.5982 91.1368 46.1603C94.1531 52.0686 95.874 58.4022 96.26 65.0107C95.0044 63.2375 94.2061 61.9158 93.9968 61.2484ZM20.9703 107.01C9.50045 98.9427 2.18537 86.3801 0.87023 72.4435C0.726284 70.9125 0.6543 69.3749 0.6543 67.8896C0.6543 67.4708 0.660842 67.0586 0.673928 66.6464C1.02725 67.641 1.19083 68.7009 1.19083 69.0935C1.19083 69.7805 2.10685 70.7685 3.12755 71.8089C3.31076 71.9921 3.45471 72.136 3.50051 72.1949C3.79494 72.7052 4.96614 78.6659 4.48196 81.2962C4.00432 83.848 6.82436 87.9962 7.63569 88.5459C7.87124 88.7029 8.04135 88.6375 8.11987 88.5851C8.20493 88.5393 8.32925 88.415 8.28999 88.1467C8.27691 88.0617 8.29654 88.0224 8.3358 87.9832C8.55172 87.7411 9.30415 87.656 9.8145 87.6691C10.1482 87.8523 11.6596 88.6963 12.772 89.3899C13.2823 89.6974 13.2365 90.3844 13.1122 91.6734C13.014 92.6941 12.8897 93.97 13.1645 95.3964C13.5113 97.2153 15.5331 98.9165 17.4829 100.565C18.9682 101.822 20.3749 102.999 20.6759 103.968C20.9442 104.812 21.0423 105.832 20.9703 107.01ZM81.2052 102.81C74.0537 109.51 65.2403 113.776 55.6286 115.196C56.9634 114.358 57.9579 113.579 58.6057 112.879C61.1771 110.105 62.2959 109.215 64.7234 108.652C67.321 108.051 72.8105 105.702 75.8007 103.909C78.7058 102.162 85.131 96.0245 85.5694 94.2841C85.6479 93.9765 85.746 93.512 85.8638 92.9362C86.3284 90.7247 87.192 86.6026 88.2389 85.3987C88.8016 84.7575 89.6718 84.5808 90.6664 84.3714C91.6609 84.1686 92.7536 83.9461 93.8266 83.246C91.3141 90.6658 86.9696 97.4116 81.2052 102.81Z" fill="#1F2E30"/>
<path d="M22.9092 90.4962C22.798 90.241 22.3204 89.783 21.2539 88.8146C20.6061 88.2192 19.8013 87.4864 19.6508 87.2378C19.2386 86.5508 18.1786 86.7471 17.6748 86.8452C17.6094 86.8517 17.5505 86.8648 17.5113 86.8714C17.4066 86.8845 17.2103 86.9172 16.9028 87.4864C16.6868 87.8921 16.412 88.5856 16.0653 89.7503L16.0064 89.9531C15.7643 90.7514 15.4895 91.6609 15.8624 93.6826C16.2615 95.8287 17.6159 98.0207 17.6748 98.1123C17.7141 98.1842 17.7861 98.2366 17.8711 98.2562C18.2375 98.3478 19.1143 98.5506 19.8798 98.5506C20.436 98.5506 20.9398 98.4459 21.1622 98.1253C21.4763 97.6673 21.7904 96.7775 22.1241 95.8353C22.2876 95.3642 22.4512 94.8931 22.6213 94.4809C22.726 94.2257 22.8045 93.9247 22.87 93.6041C23.1186 92.4068 23.1055 90.9477 22.9092 90.4962ZM22.0128 94.2323C21.8427 94.6576 21.6726 95.1417 21.5025 95.6194C21.2015 96.4765 20.8874 97.3663 20.6257 97.7524C20.4687 97.9748 19.3106 97.9291 18.159 97.6542C17.8842 97.1831 16.8308 95.3249 16.5036 93.5583C16.1568 91.7001 16.3989 90.9084 16.6345 90.1429L16.6934 89.9335C16.9289 89.1418 17.171 88.481 17.3608 88.0426C17.4851 87.7678 17.5832 87.5846 17.6552 87.5126C17.6945 87.5061 17.7403 87.493 17.7926 87.4864C18.1001 87.4275 18.9114 87.277 19.0947 87.578C19.2779 87.879 19.8667 88.4286 20.8155 89.2988C21.4043 89.8419 22.2157 90.5813 22.3138 90.7645C22.412 90.9935 22.4643 92.0796 22.3007 93.1134C22.2353 93.5125 22.1437 93.8986 22.0128 94.2323Z" fill="#1F2E30"/>
<path d="M10.6258 61.766C9.87985 60.8696 9.10776 59.934 8.62358 59.031C7.8515 57.5916 7.96274 55.1576 8.06089 53.0115C8.15249 51.1271 8.21791 49.6418 7.70756 48.981C7.46547 48.6604 7.21685 48.4903 6.96167 48.4772C6.89624 48.4706 6.82427 48.4772 6.75884 48.4903C6.01293 48.6669 5.6596 49.9821 5.09036 52.7432C4.73704 54.464 3.90608 56.0932 3.2387 57.4084C2.85266 58.1674 2.51242 58.8282 2.32921 59.3778C1.86466 60.778 2.447 62.0016 3.24525 63.6897C3.36302 63.9448 3.49387 64.2131 3.61818 64.4944C4.63235 66.6863 5.08383 67.7529 5.26703 68.6689C5.35864 69.1465 7.49818 74.2304 8.34223 74.2304H8.34878C8.4731 74.2239 8.58432 74.2043 8.68901 74.1781C9.23862 74.0538 9.51998 73.7201 9.66393 73.4387C10.1285 72.5227 9.7228 71.0309 9.1143 70.0952C8.83295 69.6634 9.27134 69.2839 10.4098 68.453C11.0576 67.9819 11.7904 67.4519 12.4054 66.7583C13.629 65.3843 12.1699 63.6308 10.6258 61.766ZM11.9147 66.3265C11.352 66.9612 10.6454 67.4715 10.0238 67.923C8.93765 68.7081 7.91693 69.454 8.56469 70.4486C9.07505 71.2337 9.4022 72.4965 9.08159 73.1377C8.95073 73.3864 8.73482 73.5303 8.40767 73.5696C7.89731 73.0592 6.0849 69.4213 5.90823 68.538C5.71194 67.5566 5.24739 66.4639 4.2136 64.2196C4.08274 63.9383 3.95843 63.67 3.83411 63.4148C3.07513 61.7987 2.57131 60.7322 2.9508 59.5806C3.12092 59.0768 3.44806 58.4422 3.82102 57.7028C4.44914 56.4727 5.21467 54.9613 5.62034 53.3321C5.66614 53.1816 5.69887 53.0246 5.73158 52.8741C5.79701 52.5535 5.87552 52.1674 5.96712 51.7618C6.15687 50.9177 6.38588 49.9952 6.61489 49.5044C6.61489 49.4979 6.62142 49.4913 6.62142 49.4913C6.71956 49.282 6.81771 49.1576 6.90931 49.1315C6.92894 49.1315 7.03365 49.1707 7.19068 49.3801C7.55709 49.8512 7.47857 51.4412 7.41314 52.9788C7.30845 55.2099 7.19068 57.7421 8.04781 59.3386C8.56471 60.3004 9.3564 61.2622 10.1219 62.1848C11.4829 63.8205 12.7653 65.3712 11.9147 66.3265Z" fill="#1F2E30"/>
<path d="M80.2113 95.161C80.1524 94.7553 80.087 94.2973 80.1786 93.6692C80.2833 92.9037 80.2768 91.4576 80.2571 90.2014V89.8481C80.2506 89.148 80.2375 88.3497 80.2637 88.2319C80.3095 88.088 80.2702 87.9375 80.159 87.8132C79.7533 87.3683 77.7577 86.9299 76.966 87.1196C75.9388 87.3683 73.2234 90.9538 72.5953 92.3082C72.3597 92.8055 71.8363 93.3355 71.3325 93.8393C70.3772 94.8011 69.3958 95.7957 69.8341 96.9734C69.8799 97.0977 69.9454 97.2547 70.0239 97.4314C70.5343 98.5699 71.6466 100.559 72.9617 101.01C73.1449 101.069 73.3216 101.102 73.4982 101.102C73.7796 101.102 74.0544 101.024 74.303 100.866C75.6051 100.088 79.858 97.4968 80.1656 96.5677C80.3422 96.0443 80.2768 95.6125 80.2113 95.161ZM79.544 96.3649C79.3804 96.8425 76.5211 98.7793 73.9693 100.304L73.9628 100.31C73.7207 100.461 73.459 100.487 73.1711 100.389C72.1962 100.055 71.1493 98.3932 70.6062 97.1239C70.5473 96.993 70.495 96.8687 70.4492 96.7444C70.1548 95.9592 70.953 95.1544 71.797 94.3038C72.3401 93.7542 72.9028 93.185 73.1842 92.583C73.8712 91.1109 76.4818 87.9113 77.1165 87.7608C77.2147 87.7347 77.3324 87.7281 77.4633 87.7281C78.1699 87.7281 79.2822 88.016 79.6094 88.2058C79.5898 88.4413 79.5898 88.8862 79.6028 89.8546C79.6094 90.149 79.6094 90.4697 79.6094 90.7968C79.6225 91.8437 79.6159 92.9756 79.5309 93.571C79.4262 94.2973 79.5047 94.8273 79.5636 95.2526C79.6225 95.6779 79.6683 95.9854 79.544 96.3649Z" fill="#1F2E30"/>
<path d="M89.0701 52.2583C88.6121 51.4012 87.4605 49.3532 86.4529 47.7763C85.9753 47.0239 85.5238 46.3761 85.1967 46.0163C85.0789 45.8854 84.8891 45.8723 84.7517 45.977C83.9797 46.5921 82.2327 48.1035 82.7103 48.9606C83.1225 49.7 84.3853 52.8799 83.7638 54.6596C83.273 56.0729 83.3974 56.9496 83.5609 58.0619C83.6329 58.5527 83.718 59.1154 83.7441 59.7893C83.8292 61.6213 86.2435 62.6682 87.5129 62.7206H87.6045C88.3635 62.7206 88.4943 62.3411 88.5205 62.171C88.5598 61.8503 89.0309 61.0521 89.4496 60.3389C89.6655 59.9725 89.888 59.593 90.0778 59.2331C90.3526 58.7359 90.575 58.2713 90.6666 57.8918C91.0134 56.5047 89.6197 53.279 89.0701 52.2583ZM88.8804 60.0118C88.3896 60.8493 87.9578 61.5821 87.8793 62.0335C87.6895 62.1121 86.9175 62.0793 86.008 61.641C85.5434 61.412 84.4442 60.7773 84.3984 59.7566C84.3657 59.0499 84.2807 58.4742 84.2087 57.9638C84.0516 56.9038 83.9404 56.1318 84.3853 54.8755C85.1378 52.7163 83.6133 49.2354 83.2796 48.64C83.1749 48.4503 83.8881 47.5473 84.9153 46.6902C85.6939 47.6717 87.0025 49.8897 87.9055 51.4928C88.1345 51.905 88.3373 52.2714 88.4943 52.5724C89.1879 53.8613 90.2937 56.6879 90.0319 57.7348C89.9992 57.8722 89.9403 58.0358 89.8618 58.2124C89.6328 58.7424 89.2402 59.4033 88.8804 60.0118Z" fill="#1F2E30"/>
<path d="M79.3665 41.3839C79.2258 41.3754 79.0839 41.3636 78.9438 41.3564C78.811 41.361 78.6782 41.3649 78.546 41.3708C78.7875 41.7307 79.0969 42.1141 79.5235 42.5427C81.3556 44.3747 81.6304 46.1217 80.9499 46.9003C80.6686 47.234 78.4243 46.7302 76.9456 46.4031C75.336 46.0432 73.7919 45.6964 72.6796 45.6964C72.1627 45.6964 71.7308 45.7749 71.4429 45.9581C70.3633 46.6321 66.7843 46.2329 65.3645 45.2777C65.1158 45.1075 64.8214 44.8458 64.8738 44.5579C64.9621 44.0286 65.0936 43.547 65.2317 43.0445C64.9955 43.0871 64.7586 43.1296 64.5224 43.1721C64.4092 43.5843 64.3019 43.9939 64.226 44.4467C64.1671 44.7935 64.2522 45.3169 65.0046 45.8207C66.503 46.8284 70.4026 47.378 71.7897 46.5143C72.4833 46.0759 74.878 46.6124 76.8017 47.0377C78.4243 47.4041 79.6151 47.6528 80.4134 47.6528C80.9041 47.6528 81.2444 47.5612 81.4406 47.3322C82.481 46.1348 81.8856 43.9756 79.9881 42.0781C79.7401 41.8308 79.5399 41.6025 79.3665 41.3839Z" fill="#1F2E30"/>
<path d="M66.2725 67.0404C61.201 68.5008 58.7395 72.4515 59.2597 72.7413C59.7262 73.1333 62.5652 70.3191 66.881 69.1204C71.1627 67.806 75.0702 68.6474 75.2521 68.0657C75.5341 67.5416 71.3322 65.5388 66.2725 67.0404Z" fill="#1F2E30"/>
<path d="M66.5706 69.6325C62.0585 69.3643 58.9205 72.2981 59.2549 72.7411C59.5159 73.2632 62.6258 71.5267 66.4522 71.7963C70.2857 71.9461 73.1869 74.0118 73.5035 73.5217C73.8843 73.1173 71.0853 69.8583 66.5706 69.6325Z" fill="#1F2E30"/>
<path d="M30.7236 67.0404C35.795 68.5008 38.2565 72.4515 37.7364 72.7413C37.2698 73.1333 34.4308 70.3191 30.1151 69.1204C25.8333 67.806 21.9258 68.6474 21.7439 68.0657C21.4613 67.5416 25.6639 65.5388 30.7236 67.0404Z" fill="#1F2E30"/>
<path d="M30.4244 69.6325C34.9365 69.3643 38.0745 72.2981 37.7401 72.7411C37.4791 73.2632 34.3692 71.5267 30.5428 71.7963C26.7093 71.9461 23.8081 74.0118 23.4914 73.5217C23.1113 73.1173 25.9104 69.8583 30.4244 69.6325Z" fill="#1F2E30"/>
<path d="M38.4661 80.7011C38.805 79.8446 39.4528 79.1327 40.2536 78.6793C40.7031 78.4248 41.294 78.1696 42.0438 77.9916C44.1441 77.4917 44.9443 78.2416 47.1951 78.7918C49.4459 79.3421 52.3961 77.7914 53.8467 77.4917C55.2973 77.1914 58.4478 78.3417 58.773 81.1427C59.0982 83.9431 55.1723 87.6942 48.9336 88.094C43.1993 88.4611 36.8218 84.8578 38.4661 80.7011Z" fill="#1F2E30"/>
<path d="M43.8305 78.297C43.8305 78.297 46.5498 79.6095 48.1626 79.5532C49.7755 79.497 53.751 78.0156 53.751 78.0156C53.751 78.0156 55.6825 81.204 49.3253 81.4291C42.9675 81.6542 43.4739 78.8224 43.8305 78.297Z" fill="#F6FAEC"/>
<path d="M42.7086 84.1227C41.8207 84.7842 41.9974 86.1641 43.0259 86.575C44.3888 87.1193 46.4846 87.722 48.8394 87.5682C51.2191 87.4131 53.2978 86.469 54.6286 85.6989C55.8411 84.9981 55.4138 83.1399 54.0156 83.0568C53.7787 83.0424 53.5157 83.045 53.2232 83.0673C50.273 83.2923 49.1973 85.5425 49.1973 85.5425C49.1973 85.5425 48.1223 83.2668 45.1962 83.3172C44.0996 83.3362 43.2909 83.6889 42.7086 84.1227Z" fill="#FBB6B6"/>
<path d="M12.4772 24.7252C12.9757 24.6113 13.4004 24.5996 13.7589 24.684C17.3026 25.4626 14.8627 34.6974 14.8627 34.6974C14.8627 34.6974 14.7437 34.5613 14.5402 34.3205C13.1334 32.6448 7.7649 25.8277 12.4772 24.7252Z" fill="#C4EFF7"/>
<path opacity="0.2" d="M12.4772 24.7242C12.9758 24.6104 13.4004 24.5986 13.759 24.683C13.4115 25.0298 13.0366 25.5244 12.6839 26.2343C11.9433 27.7144 13.4907 31.8626 14.5395 34.3195C13.1335 32.6439 7.76491 25.8267 12.4772 24.7242Z" fill="#5E8991"/>
<path d="M13.6382 24.3276C13.7056 24.3375 13.771 24.3499 13.8351 24.3649C14.4534 24.5004 14.9526 24.8694 15.3132 25.4602C16.9208 28.0931 15.2517 34.5085 15.1797 34.7801C15.1489 34.8972 15.056 34.9875 14.9383 35.0156C14.8205 35.0412 14.6968 35.0045 14.6177 34.9129C14.6177 34.9129 14.4966 34.7755 14.2911 34.5315C12.8406 32.8021 9.55663 28.5125 10.3863 26.0223C10.6604 25.1998 11.3389 24.6561 12.4048 24.4068C12.4055 24.4068 12.4061 24.4062 12.4068 24.4062C12.8622 24.3015 13.2757 24.276 13.6382 24.3276ZM14.6948 33.9943C15.0698 32.3297 15.9459 27.7522 14.7544 25.8011C14.4868 25.3627 14.1387 25.1017 13.6899 25.0029C13.3764 24.927 12.995 24.9433 12.5527 25.0428C11.7126 25.2397 11.2068 25.6277 11.0066 26.2284C10.4229 27.9806 12.5114 31.3653 14.6948 33.9943Z" fill="#1F2E30"/>
<path d="M34.3906 39.7474C34.3906 39.7474 37.1439 33.4884 39.1245 36.0506C41.0926 38.5965 34.3906 39.7474 34.3906 39.7474Z" fill="#C4EFF7" stroke="#1F2E30" stroke-miterlimit="10" stroke-linecap="round" stroke-linejoin="round"/>
<path d="M18.8166 22.9445C18.8166 22.9445 17.93 16.1647 20.9509 17.33C23.9535 18.4888 18.8166 22.9445 18.8166 22.9445Z" fill="#C4EFF7" stroke="#1F2E30" stroke-miterlimit="10" stroke-linecap="round" stroke-linejoin="round"/>
<path d="M50.4017 15.0354C50.4017 15.0354 47.1289 18.9128 41.3743 19.2026C35.6191 19.4925 44.3645 17.5741 44.9292 14.2456C45.4932 10.9166 50.4017 15.0354 50.4017 15.0354Z" fill="#9DE5F2"/>
<path opacity="0.2" d="M50.4017 15.0354C50.4017 15.0354 47.1289 18.9128 41.3743 19.2026C35.6191 19.4925 44.3645 17.5741 44.9292 14.2456C45.4932 10.9166 50.4017 15.0354 50.4017 15.0354Z" fill="#5E8991"/>
<path d="M40.4033 19.4972C39.4552 19.4972 39.2393 19.3716 39.1686 19.1249C39.0574 18.7382 39.5141 18.483 40.6179 17.866C42.1247 17.0233 44.403 15.75 44.6654 14.1993C44.7917 13.456 45.1299 12.9777 45.6717 12.7782C47.3297 12.1677 50.2446 14.5553 50.5718 14.8301L50.7759 15.0015L50.6038 15.2056C50.4671 15.3679 47.1903 19.1746 41.3867 19.4671C40.9928 19.4874 40.6696 19.4972 40.4033 19.4972ZM39.8439 18.9423C40.0689 18.9659 40.5073 18.979 41.3599 18.9365C46.1847 18.6931 49.2533 15.8488 50.0123 15.063C49.0459 14.3001 46.926 12.8842 45.8549 13.2794C45.5003 13.4096 45.283 13.74 45.1895 14.2896C44.8839 16.0916 42.4722 17.4394 40.8763 18.3312C40.4949 18.5452 40.0768 18.7788 39.8439 18.9423Z" fill="#1F2E30"/>
<path d="M58.4223 19.9141C57.857 20.7928 59.1839 23.8406 57.378 23.9754C55.5715 24.1167 55.2339 21.3824 55.2339 21.3824C55.16 21.3516 55.0801 21.315 55.0062 21.2777C52.6219 20.1228 49.8326 17.0012 48.3578 16.3436C46.834 15.6677 43.3623 15.7534 43.3623 15.7534C31.6143 16.466 29.728 22.0327 28.4743 24.6133C28.4311 24.6931 28.388 24.773 28.3513 24.8528C27.0794 27.3044 27.559 29.9282 27.559 29.9282C30.6616 31.3663 31.8171 33.8789 32.1306 35.0959C32.4381 36.3063 31.6209 36.1094 31.6209 36.1094C29.9007 34.1615 28.352 34.9238 25.8696 34.8682C24.1677 34.825 22.7479 35.421 21.8083 36.0786C21.366 36.3855 21.0343 36.7054 20.819 36.9815C20.1372 37.8544 20.0267 37.3192 20.0267 37.3192C19.4613 32.637 25.3291 29.2085 25.3291 29.2085C25.3291 29.2085 25.1629 24.4281 25.5869 22.3147C26.5454 17.4978 28.7884 13.8906 30.9018 11.2669C32.8431 8.85252 34.6686 7.26716 35.2947 6.33936C36.6099 4.39151 35.3621 2.88596 34.9381 2.65303C34.6614 2.50581 34.6555 2.26568 34.6863 2.11847C34.6987 2.03275 34.7229 1.97714 34.7229 1.97714C36.3325 -0.388811 40.4369 1.85413 40.9472 2.5117C41.4511 3.16273 42.8768 3.18759 42.8768 3.18759C56.1362 1.82992 58.7599 11.5626 59.2945 13.7624C59.829 15.9693 58.9876 19.0413 58.4223 19.9141Z" fill="#9DE5F2"/>
<path d="M57.377 23.9766C55.8034 24.1055 55.3395 22.0307 55.2486 21.506V21.4981C55.2407 21.4222 55.2335 21.3843 55.2335 21.3843C55.1576 21.3542 55.0817 21.3162 55.0052 21.2776C52.6255 20.1221 49.8355 17.0057 48.3607 16.3442C46.833 15.6676 43.3665 15.7586 43.3665 15.7586C31.6139 16.4652 29.7289 22.0379 28.4746 24.6145C28.4288 24.6983 28.3909 24.7742 28.3529 24.858C27.0836 27.3057 27.5625 29.9288 27.5625 29.9288C30.6639 31.3656 31.8194 33.8814 32.1315 35.0977C32.4357 36.3062 31.6224 36.1086 31.6224 36.1086C30.3603 34.6797 29.1819 34.7097 27.662 34.8013C27.1143 34.8393 26.5215 34.8851 25.8679 34.8701C24.1726 34.8243 22.7508 35.4249 21.8086 36.0785C22.3785 32.9163 26.195 29.6474 26.195 29.6474C26.195 29.6474 26.8716 22.1976 28.0042 20.0541C32.9605 10.6354 43.3521 11.4258 48.7651 12.2162C54.1853 12.9994 56.215 20.3426 56.215 20.3426C56.1528 21.0113 57.377 23.9766 57.377 23.9766Z" fill="#F5FCFE"/>
<path opacity="0.2" d="M55.3553 21.3461C55.3553 21.3461 55.3173 21.3991 55.2486 21.4979C55.2407 21.422 55.2336 21.3841 55.2336 21.3841C55.1577 21.354 55.0818 21.316 55.0052 21.2774C52.6255 20.1219 49.8356 17.0055 48.3608 16.344C46.833 15.6674 43.3665 15.7584 43.3665 15.7584C31.614 16.465 29.7289 22.0377 28.4746 24.6143C28.4288 24.6981 28.3909 24.774 28.3529 24.8577C27.0836 27.3055 27.5625 29.9286 27.5625 29.9286C30.6639 31.3654 31.8194 33.8812 32.1315 35.0975C32.4358 36.306 31.6225 36.1084 31.6225 36.1084C30.3603 34.6794 29.1819 34.7095 27.662 34.8011C26.5144 31.8895 25.7613 25.7168 30.1097 20.0231C35.051 13.5612 43.413 14.7324 43.413 14.7324C43.413 14.7324 43.413 14.7324 46.0132 14.3752C48.6127 14.0258 51.7906 15.9259 52.2388 17.1651C52.6949 18.3965 55.3553 21.3461 55.3553 21.3461Z" fill="#7EB7C2"/>
<path d="M20.2063 37.792C20.1696 37.792 20.1324 37.7881 20.0951 37.779C19.8719 37.7266 19.7568 37.5336 19.7254 37.3844C19.1849 32.9168 24.0483 29.646 25.0167 29.0414C24.9905 28.1365 24.9015 24.1721 25.2863 22.257C26.0871 18.2311 27.8466 14.5735 30.6633 11.077C31.7252 9.75593 32.7466 8.68811 33.5664 7.83032C34.2384 7.12761 34.769 6.57211 35.0412 6.16971C35.5182 5.46307 35.6772 4.76035 35.513 4.08118C35.352 3.41314 34.9274 2.99963 34.7913 2.92438C34.4622 2.74903 34.3097 2.4245 34.3869 2.05743C34.4007 1.95798 34.434 1.87619 34.4439 1.85395C34.9863 1.04719 35.7649 0.646108 36.7836 0.614701C38.6327 0.55058 40.7762 1.78983 41.191 2.32504C41.5286 2.76212 42.5513 2.87596 42.883 2.88185C55.2886 1.60858 58.7014 10.017 59.5938 13.6915C60.1389 15.9397 59.3125 19.1052 58.6811 20.0808C58.5273 20.3203 58.5797 20.9517 58.6248 21.5085C58.6975 22.3937 58.7733 23.3098 58.3022 23.8607C58.0876 24.1119 57.784 24.2539 57.4006 24.2827C55.5928 24.4247 55.0713 22.2439 54.9555 21.5961C54.9261 21.5824 54.8973 21.568 54.8685 21.5536C53.5311 20.9059 52.0844 19.6666 50.8079 18.5739C49.8055 17.7155 48.8587 16.9048 48.2326 16.6254C46.7899 15.9855 43.4038 16.0614 43.3698 16.0621C32.5117 16.721 30.2171 21.623 28.9844 24.2559C28.9026 24.4299 28.8254 24.5948 28.7508 24.7486C28.705 24.8343 28.6651 24.9089 28.6304 24.9835C27.5861 26.9967 27.7654 29.1415 27.8394 29.7226C30.5521 31.0377 31.9876 33.3107 32.428 35.0211C32.5686 35.574 32.5183 35.9764 32.2794 36.2184C31.9948 36.507 31.5937 36.4206 31.5486 36.4102L31.4544 36.3873L31.3902 36.3146C30.1889 34.9543 29.1401 35.0224 27.5541 35.1225C27.0516 35.1546 26.4823 35.1905 25.8627 35.1768C23.9855 35.1245 22.6298 35.8802 21.9847 36.3316C21.6065 36.594 21.2787 36.8924 21.0615 37.1718C20.8318 37.4675 20.5328 37.792 20.2063 37.792ZM34.9981 2.12417C34.9981 2.12941 34.9948 2.14511 34.9915 2.16474C34.9647 2.29626 35.0072 2.34402 35.0838 2.38458C35.3769 2.54554 35.9095 3.10759 36.1104 3.93724C36.2517 4.52415 36.27 5.44802 35.5503 6.51387C35.2493 6.95945 34.7023 7.53131 34.0107 8.25497C33.1987 9.10425 32.1878 10.1616 31.1423 11.4623C28.389 14.8798 26.6708 18.4503 25.8889 22.3774C25.4767 24.4325 25.635 29.1527 25.6363 29.2004L25.6429 29.3836L25.4845 29.4765C25.4283 29.5093 19.9622 32.7618 20.3116 37.0893C20.3744 37.0331 20.4621 36.9415 20.5766 36.7949C20.7566 36.5639 21.0863 36.208 21.6333 35.8285C22.34 35.3345 23.8278 34.5114 25.8778 34.5631C26.4686 34.5768 27.0005 34.5428 27.5155 34.5094C29.059 34.41 30.3964 34.3256 31.7671 35.8147C31.7966 35.8115 31.826 35.8036 31.8437 35.7853C31.8554 35.7729 31.9549 35.6518 31.8332 35.1729C31.6906 34.6193 30.8073 31.7738 27.4304 30.2087L27.2865 30.142L27.2577 29.9856C27.2374 29.8744 26.7748 27.2297 28.0795 24.7139C28.1129 24.6413 28.1586 24.5555 28.2044 24.4705C28.2725 24.3298 28.3484 24.1675 28.4282 23.9968C29.7152 21.2474 32.1106 16.1308 43.3443 15.449C43.4994 15.4444 46.9135 15.3692 48.4825 16.0647C49.1911 16.3807 50.1255 17.1809 51.2077 18.1074C52.4561 19.1759 53.87 20.3877 55.14 21.0027C55.2114 21.0387 55.284 21.0721 55.352 21.1002L55.5162 21.1689L55.5385 21.3455C55.5418 21.3704 55.865 23.7815 57.3542 23.6703C57.5727 23.6539 57.7298 23.5859 57.8357 23.4616C58.14 23.1056 58.0726 22.2838 58.0131 21.5595C57.9542 20.8417 57.8979 20.1632 58.1649 19.7491L58.1655 19.7484C58.6438 19.0104 59.5271 16.0248 58.9971 13.8375C57.9359 9.46869 54.4373 2.31916 42.9092 3.49624C42.7116 3.49493 41.2826 3.44913 40.7055 2.70257C40.4471 2.37019 38.5162 1.18329 36.8026 1.2304C36.005 1.25395 35.3978 1.55559 34.9981 2.12417Z" fill="#1F2E30"/>
<path opacity="0.2" d="M30.9062 11.2667C31.1058 11.1175 37.5363 6.29536 37.4263 4.93441C37.3184 3.61927 36.1367 2.04699 34.6861 2.11961C34.6554 2.26879 34.6639 2.50696 34.938 2.6581C35.3614 2.89169 36.6104 4.39331 35.2986 6.33985C34.6704 7.27027 32.8443 8.85433 30.9062 11.2667Z" fill="#7EB7C2"/>
<path d="M37.1582 15.7564C42.1197 15.7446 45.9415 11.877 45.9415 11.877C46.2412 11.2679 45.5607 9.9848 44.7395 9.52941C44.4484 9.36845 44.1402 9.31087 43.851 9.42472C42.7439 9.85656 38.6441 14.0879 37.6253 14.328C37.2818 14.4092 37.0044 14.5937 36.7878 14.8004C36.74 14.8462 36.7014 14.8966 36.6746 14.9509C36.4947 15.2977 36.727 15.7583 37.1582 15.7564Z" fill="#9DE5F2"/>
<path opacity="0.2" d="M36.6719 14.9509C37.1155 15.0438 37.7567 15.0864 38.5405 14.8849C39.8577 14.5479 43.7946 11.1913 44.7374 9.52941C44.4463 9.36845 44.1381 9.31087 43.8489 9.42472C42.7418 9.85656 38.642 14.0879 37.6232 14.328C37.2797 14.4092 37.0023 14.5937 36.7857 14.8004C36.7379 14.8462 36.6994 14.8966 36.6719 14.9509Z" fill="#5E8991"/>
<path d="M37.1549 16.0837C36.85 16.0837 36.5739 15.9299 36.4162 15.6715C36.2546 15.4065 36.2415 15.0728 36.3822 14.8C36.4221 14.7201 36.4816 14.639 36.5582 14.5651C36.8565 14.2804 37.1896 14.0946 37.5495 14.0089C38.0022 13.9016 39.4803 12.5937 40.6685 11.5422C42 10.3638 43.1496 9.34571 43.7319 9.11867C44.0925 8.97734 44.4955 9.02052 44.8972 9.24168C45.825 9.75661 46.6396 11.1961 46.234 12.0205L46.1731 12.1062C46.0135 12.2678 42.1982 16.0706 37.1582 16.083H37.1588C37.1569 16.0837 37.1556 16.0837 37.1549 16.0837ZM44.1664 9.69249C44.0977 9.69249 44.0316 9.70492 43.9694 9.72913C43.4951 9.9143 42.2238 11.0397 41.1016 12.0336C39.3664 13.5699 38.2718 14.5121 37.6999 14.6469C37.4546 14.7051 37.2229 14.8366 37.0116 15.0375C36.9861 15.063 36.973 15.0833 36.9665 15.0964C36.9207 15.186 36.9409 15.2756 36.975 15.3306C37.0024 15.3757 37.0561 15.4294 37.1549 15.4294H37.1562C41.6428 15.4189 45.2316 12.1049 45.6641 11.6894C45.8067 11.2556 45.2722 10.1996 44.5806 9.81484C44.432 9.73371 44.2933 9.69249 44.1664 9.69249Z" fill="#1F2E30"/>
<path d="M55.9297 13.469C55.9297 13.9702 56.336 14.3766 56.8372 14.3766C57.3384 14.3766 57.7447 13.9702 57.7447 13.469C57.7447 12.9678 57.3384 12.5615 56.8372 12.5615C56.336 12.5615 55.9297 12.9678 55.9297 13.469Z" fill="#1F2E30"/>
</svg>
