<svg width="24" height="25" viewBox="0 0 24 25" fill="none" xmlns="http://www.w3.org/2000/svg">
<circle cx="9" cy="6.5" r="4" fill="#7EB7C2"/>
<ellipse cx="9" cy="17.501" rx="7" ry="4" fill="#7EB7C2"/>
<path d="M20.9972 17.5007C20.9972 19.1576 18.9616 20.5007 16.4764 20.5007C17.2086 19.7003 17.712 18.6958 17.712 17.5021C17.712 16.307 17.2074 15.3015 16.4738 14.5007C18.9591 14.5007 20.9972 15.8438 20.9972 17.5007Z" fill="#7EB7C2"/>
<path d="M17.9972 6.50098C17.9972 8.15783 16.654 9.50098 14.9972 9.50098C14.6359 9.50098 14.2895 9.43711 13.9688 9.32006C14.4418 8.48796 14.712 7.52547 14.712 6.49986C14.712 5.47501 14.4422 4.51318 13.9698 3.68151C14.2903 3.5647 14.6363 3.50098 14.9972 3.50098C16.654 3.50098 17.9972 4.84412 17.9972 6.50098Z" fill="#7EB7C2"/>
</svg>
