<svg width="24" height="25" viewBox="0 0 24 25" fill="none" xmlns="http://www.w3.org/2000/svg">
<path d="M16.7137 2.62656C15.8784 2.19663 14.7918 2.89036 12.6187 4.27783L12.0565 4.63679C11.4389 5.03106 11.1301 5.2282 10.7836 5.28478C10.4371 5.34135 10.092 5.25097 9.40191 5.07019L8.77361 4.9056C6.34506 4.26944 5.13079 3.95136 4.43551 4.6312C3.74024 5.31103 4.02442 6.53855 4.59279 8.9936L4.73983 9.62875C4.90135 10.3264 4.9821 10.6752 4.91653 11.0216C4.85096 11.368 4.64648 11.6727 4.23754 12.2821L3.86521 12.8369C2.42609 14.9815 1.70653 16.0538 2.11218 16.9039C2.51782 17.754 3.78002 17.8189 6.30442 17.9487L6.95753 17.9823C7.67487 18.0192 8.03356 18.0377 8.33956 18.1952C8.64557 18.3526 8.86425 18.6314 9.30163 19.1888L9.69981 19.6963C11.2389 21.6578 12.0085 22.6386 12.9545 22.4842C13.9005 22.3297 14.3964 21.1423 15.3882 18.7675L15.6448 18.1531C15.9266 17.4783 16.0675 17.1409 16.3222 16.8918C16.5769 16.6428 16.9165 16.5104 17.5958 16.2454L18.2142 16.0043C20.6046 15.072 21.7997 14.6059 21.9787 13.6603C22.1577 12.7148 21.202 11.916 19.2906 10.3185L18.7961 9.90516C18.2529 9.4512 17.9813 9.2242 17.8327 8.9128C17.6841 8.60139 17.6753 8.24082 17.6578 7.51967L17.6418 6.86312C17.58 4.32537 17.5491 3.0565 16.7137 2.62656Z" fill="#7EB7C2"/>
<path d="M19.5303 18.9697C19.2374 18.6768 18.7626 18.6768 18.4697 18.9697C18.1768 19.2626 18.1768 19.7374 18.4697 20.0303L20.4697 22.0303C20.7626 22.3232 21.2374 22.3232 21.5303 22.0303C21.8232 21.7374 21.8232 21.2626 21.5303 20.9697L19.5303 18.9697Z" fill="#7EB7C2"/>
</svg>
